<?xml version="1.0" encoding="iso-8859-1"?>
<!-- Generator: Adobe Illustrator 19.0.0, SVG Export Plug-In . SVG Version: 6.00 Build 0)  -->
<svg version="1.1" id="Capa_1" xmlns="http://www.w3.org/2000/svg" xmlns:xlink="http://www.w3.org/1999/xlink" x="0px" y="0px"
	 viewBox="0 0 512 512" style="enable-background:new 0 0 512 512;" xml:space="preserve">
<g>
	<g>
		<path d="M468.293,0H43.707C19.606,0,0,19.606,0,43.707v424.585C0,492.388,19.606,512,43.707,512h424.585
			C492.388,512,512,492.388,512,468.293V43.707C512,19.606,492.388,0,468.293,0z M474.537,468.293c0,3.384-2.86,6.244-6.244,6.244
			H43.707c-3.384,0-6.244-2.86-6.244-6.244V43.707c0-3.384,2.86-6.244,6.244-6.244h424.585c3.384,0,6.244,2.86,6.244,6.244V468.293z
			"/>
	</g>
</g>
<g>
	<g>
		<rect x="237.268" y="18.732" width="37.463" height="474.537"/>
	</g>
</g>
<g>
	<g>
		<rect x="18.732" y="237.268" width="474.537" height="37.463"/>
	</g>
</g>
<g>
	<g>
		<rect x="118.634" y="305.951" width="37.463" height="112.39"/>
	</g>
</g>
<g>
	<g>
		<rect x="74.927" y="343.415" width="118.634" height="37.463"/>
	</g>
</g>
<g>
	<g>
		<rect x="74.927" y="124.878" width="118.634" height="37.463"/>
	</g>
</g>
<g>
	<g>
		<rect x="312.195" y="380.878" width="118.634" height="37.463"/>
	</g>
</g>
<g>
	<g>
		<rect x="312.195" y="324.683" width="118.634" height="37.463"/>
	</g>
</g>
<g transform="matrix(0.7071 -0.7071 0.7071 0.7071 1.417 48.622)">
	<g>
		<polygon points="253.263,345.384 253.263,307.927 214.576,307.927 214.576,269.265 177.118,269.265 177.118,307.927 
			138.469,307.927 138.469,345.384 177.118,345.384 177.118,384.059 214.575,384.059 214.576,345.384 		"/>
	</g>
</g>
<g>
</g>
<g>
</g>
<g>
</g>
<g>
</g>
<g>
</g>
<g>
</g>
<g>
</g>
<g>
</g>
<g>
</g>
<g>
</g>
<g>
</g>
<g>
</g>
<g>
</g>
<g>
</g>
<g>
</g>
</svg>
