<svg id="Layer_1" height="512" viewBox="0 0 512 512" width="512" xmlns="http://www.w3.org/2000/svg" data-name="Layer 1"><path d="m191 267.2a6 6 0 0 0 6-6v-51.957a6 6 0 0 0 -12 0v51.957a6 6 0 0 0 6 6z"/><path d="m418.611 442h-25.611v-419.266a5.417 5.417 0 0 0 -5.561-5.734h-262.878a5.417 5.417 0 0 0 -5.561 5.734v419.266h-25.611c-3.313 0-6.389 2.391-6.389 5.7v41.562c0 3.313 3.076 5.734 6.389 5.734h325.222c3.313 0 6.389-2.421 6.389-5.734v-41.562c0-3.309-3.076-5.7-6.389-5.7zm-287.611-413h250v413h-29v-377.7a6.365 6.365 0 0 0 -6.123-6.3h-179.754a6.365 6.365 0 0 0 -6.123 6.3v377.7h-29zm209 413h-168v-372h168zm73 41h-314v-29h314z"/></svg>