<?xml version="1.0" encoding="iso-8859-1"?>
<!-- Generator: Adobe Illustrator 19.0.0, SVG Export Plug-In . SVG Version: 6.00 Build 0)  -->
<svg version="1.1" id="Capa_1" xmlns="http://www.w3.org/2000/svg" xmlns:xlink="http://www.w3.org/1999/xlink" x="0px" y="0px"
	 viewBox="0 0 511.999 511.999" style="enable-background:new 0 0 511.999 511.999;" xml:space="preserve">
<g>
	<g>
		<path d="M255.997,190.726c-35.992,0-65.274,29.283-65.274,65.274s29.283,65.274,65.274,65.274s65.274-29.283,65.274-65.274
			S291.989,190.726,255.997,190.726z M255.997,287.218c-17.215,0-31.218-14.008-31.218-31.218c0-17.215,14.003-31.218,31.218-31.218
			c17.21,0,31.218,14.003,31.218,31.218C287.215,273.21,273.213,287.218,255.997,287.218z"/>
	</g>
</g>
<g>
	<g>
		<path d="M94.395,109.071c6.63-6.675,6.596-17.454-0.079-24.083c-6.669-6.624-17.454-6.59-24.083,0.079
			c-93.643,94.25-93.643,247.617,0,341.861c3.326,3.355,7.702,5.029,12.079,5.029c4.336,0,8.679-1.646,12.005-4.955
			c6.675-6.63,6.703-17.408,0.079-24.078C13.898,321.91,13.898,190.084,94.395,109.071z"/>
	</g>
</g>
<g>
	<g>
		<path d="M441.762,85.078c-6.63-6.681-17.414-6.709-24.078-0.079c-6.675,6.624-6.709,17.408-0.079,24.078
			c80.497,81.014,80.497,212.84,0,293.853c-6.63,6.669-6.596,17.448,0.079,24.078c3.32,3.303,7.657,4.949,11.999,4.949
			c4.37,0,8.752-1.68,12.079-5.018C535.411,332.689,535.411,179.328,441.762,85.078z"/>
	</g>
</g>
<g>
	<g>
		<path d="M166.435,180.628c6.652-6.647,6.652-17.431,0-24.078c-6.647-6.652-17.431-6.652-24.078,0
			c-54.842,54.836-54.842,144.063,0,198.899c3.32,3.326,7.68,4.989,12.039,4.989c4.354,0,8.713-1.657,12.039-4.989
			c6.652-6.647,6.652-17.431,0-24.078C124.875,289.812,124.875,222.188,166.435,180.628z"/>
	</g>
</g>
<g>
	<g>
		<path d="M369.637,156.55c-6.652-6.652-17.425-6.652-24.078,0c-6.652,6.647-6.652,17.431,0,24.078
			c41.554,41.56,41.554,109.184,0,150.744c-6.652,6.647-6.652,17.431,0,24.078c3.326,3.326,7.68,4.989,12.039,4.989
			c4.354,0,8.713-1.657,12.039-4.989C424.473,300.614,424.473,211.386,369.637,156.55z"/>
	</g>
</g>
<g>
</g>
<g>
</g>
<g>
</g>
<g>
</g>
<g>
</g>
<g>
</g>
<g>
</g>
<g>
</g>
<g>
</g>
<g>
</g>
<g>
</g>
<g>
</g>
<g>
</g>
<g>
</g>
<g>
</g>
</svg>
