<?xml version="1.0" encoding="UTF-8"?>
<!DOCTYPE svg PUBLIC "-//W3C//DTD SVG 1.1//EN" "http://www.w3.org/Graphics/SVG/1.1/DTD/svg11.dtd">
<!-- Creator: CorelDRAW 2019 (64-Bit) -->
<svg xmlns="http://www.w3.org/2000/svg" xml:space="preserve" width="279.4mm" height="215.9mm" version="1.1" style="shape-rendering:geometricPrecision; text-rendering:geometricPrecision; image-rendering:optimizeQuality; fill-rule:evenodd; clip-rule:evenodd"
viewBox="0 0 27940 21590"
 xmlns:xlink="http://www.w3.org/1999/xlink">
 <defs>
  <style type="text/css">
   <![CDATA[
    .str1 {stroke:#FFF212;stroke-width:100;stroke-miterlimit:22.9256}
    .str3 {stroke:#FFF212;stroke-width:20;stroke-miterlimit:22.9256}
    .str2 {stroke:#FFF212;stroke-width:20;stroke-miterlimit:22.9256}
    .str0 {stroke:#3E4095;stroke-width:20;stroke-miterlimit:22.9256}
    .fil2 {fill:none}
    .fil3 {fill:#FFF212}
    .fil1 {fill:#FFF212;fill-rule:nonzero}
    .fil0 {fill:url(#id0)}
   ]]>
  </style>
  <radialGradient id="id0" gradientUnits="userSpaceOnUse" gradientTransform="matrix(-2.21645 -2.24444 1.74892 -2.84444 1472 -17336)" cx="-1513.62" cy="-3625.57" r="14005.28" fx="-1513.62" fy="-3625.57">
   <stop offset="0" style="stop-opacity:1; stop-color:#567EBE"/>
   <stop offset="0.180392" style="stop-opacity:1; stop-color:#4596D1"/>
   <stop offset="0.65098" style="stop-opacity:1; stop-color:#419BD5"/>
   <stop offset="1" style="stop-opacity:1; stop-color:#356FB5"/>
  </radialGradient>
 </defs>
 <g id="Capa_x0020_1">
  <metadata id="CorelCorpID_0Corel-Layer"/>
  <circle class="fil0 str0" cx="13574.71" cy="10816.1" r="10777.37"/>
  <g>
   <path class="fil1" d="M4536.91 8414.37l0 0 19.78 -5.24 19.87 -4.2 19.91 -3.17 19.89 -2.15 19.84 -1.13 19.75 -0.15 19.63 0.83 19.47 1.78 19.26 2.72 19.04 3.65 18.78 4.54 18.49 5.43 18.16 6.29 17.82 7.14 17.44 7.98 17.03 8.79 16.59 9.6 16.12 10.37 15.63 11.15 15.11 11.9 14.55 12.64 13.97 13.37 13.35 14.09 12.69 14.76 12.01 15.45 11.3 16.1 10.54 16.74 9.75 17.35 8.93 17.94 8.07 18.5 7.18 19.04 6.26 19.52 -191.96 56.15 -3.16 -9.88 -3.61 -9.55 -4.02 -9.23 -4.45 -8.92 -4.84 -8.62 -5.23 -8.3 -5.61 -8 -5.98 -7.67 -6.32 -7.37 -6.66 -7.01 -6.98 -6.69 -7.29 -6.33 -7.58 -5.97 -7.86 -5.6 -8.11 -5.23 -8.35 -4.82 -8.57 -4.43 -8.77 -4.01 -8.95 -3.59 -9.13 -3.16 -9.26 -2.72 -9.4 -2.28 -9.5 -1.81 -9.6 -1.36 -9.69 -0.89 -9.75 -0.41 -9.81 0.07 -9.86 0.56 -9.89 1.07 -9.92 1.58 -9.96 2.1 -9.99 2.65 0 0 -56.15 -191.96zm-271.63 496.21l0 0 -5.25 -19.82 -4.21 -19.9 -3.17 -19.94 -2.14 -19.92 -1.14 -19.88 -0.14 -19.78 0.84 -19.65 1.79 -19.48 2.74 -19.28 3.66 -19.06 4.56 -18.79 5.44 -18.49 6.32 -18.17 7.16 -17.81 7.99 -17.42 8.81 -17.03 9.6 -16.58 10.4 -16.12 11.15 -15.61 11.91 -15.09 12.65 -14.54 13.37 -13.94 14.08 -13.33 14.76 -12.68 15.44 -11.99 16.08 -11.27 16.73 -10.53 17.32 -9.73 17.91 -8.91 18.48 -8.06 19.01 -7.17 19.48 -6.24 56.15 191.96 -9.85 3.15 -9.52 3.6 -9.21 4.01 -8.91 4.44 -8.61 4.84 -8.3 5.22 -7.99 5.6 -7.68 5.97 -7.36 6.32 -7.03 6.65 -6.68 6.98 -6.34 7.29 -5.99 7.57 -5.6 7.85 -5.23 8.11 -4.83 8.34 -4.44 8.57 -4.02 8.77 -3.6 8.95 -3.16 9.11 -2.73 9.27 -2.28 9.39 -1.83 9.5 -1.36 9.61 -0.9 9.69 -0.41 9.76 0.06 9.81 0.57 9.87 1.06 9.91 1.58 9.95 2.11 9.98 2.66 10.02 0 0 -191.96 56.15zm496.21 271.63l0 0 -19.78 5.24 -19.87 4.2 -19.91 3.17 -19.89 2.15 -19.84 1.13 -19.75 0.15 -19.63 -0.83 -19.47 -1.78 -19.26 -2.72 -19.04 -3.65 -18.78 -4.54 -18.49 -5.43 -18.16 -6.29 -17.82 -7.14 -17.44 -7.98 -17.03 -8.79 -16.59 -9.6 -16.12 -10.37 -15.63 -11.15 -15.11 -11.9 -14.55 -12.64 -13.97 -13.37 -13.35 -14.09 -12.69 -14.76 -12.01 -15.45 -11.3 -16.1 -10.54 -16.74 -9.75 -17.35 -8.93 -17.94 -8.07 -18.5 -7.18 -19.04 -6.26 -19.52 191.96 -56.15 3.16 9.88 3.61 9.55 4.02 9.23 4.45 8.92 4.84 8.62 5.23 8.3 5.61 8 5.98 7.67 6.32 7.37 6.66 7.01 6.98 6.69 7.29 6.33 7.58 5.97 7.86 5.6 8.11 5.23 8.35 4.82 8.57 4.43 8.77 4.01 8.95 3.59 9.13 3.16 9.26 2.72 9.4 2.28 9.5 1.81 9.6 1.36 9.69 0.89 9.75 0.41 9.81 -0.07 9.86 -0.56 9.89 -1.07 9.92 -1.58 9.96 -2.1 9.99 -2.65 0 0 56.15 191.96zm271.63 -496.21l5.25 19.82 4.21 19.9 3.17 19.94 2.14 19.92 1.14 19.88 0.14 19.78 -0.84 19.65 -1.79 19.48 -2.74 19.28 -3.66 19.06 -4.56 18.79 -5.44 18.49 -6.32 18.17 -7.16 17.81 -7.99 17.42 -8.81 17.03 -9.6 16.58 -10.4 16.12 -11.15 15.61 -11.91 15.09 -12.65 14.54 -13.37 13.94 -14.08 13.33 -14.76 12.68 -15.44 11.99 -16.08 11.27 -16.73 10.53 -17.32 9.73 -17.91 8.91 -18.48 8.06 -19.01 7.17 -19.48 6.24 -56.15 -191.96 9.85 -3.15 9.52 -3.6 9.21 -4.01 8.91 -4.44 8.61 -4.84 8.3 -5.22 7.99 -5.6 7.68 -5.97 7.36 -6.32 7.03 -6.65 6.68 -6.98 6.34 -7.29 5.99 -7.57 5.6 -7.85 5.23 -8.11 4.83 -8.34 4.44 -8.57 4.02 -8.77 3.6 -8.95 3.16 -9.11 2.73 -9.27 2.28 -9.39 1.83 -9.5 1.36 -9.61 0.9 -9.69 0.41 -9.76 -0.06 -9.81 -0.57 -9.87 -1.06 -9.91 -1.58 -9.95 -2.11 -9.98 -2.66 -10.02 191.96 -56.15zm8862.59 -2487.95l-8953.16 2618.63 -56.14 -191.96 8953.16 -2618.63 56.14 191.96z"/>
  </g>
  <g>
   <path class="fil1" d="M4210.48 9172.77l0 0 19.84 -4.99 19.93 -3.95 19.94 -2.92 19.92 -1.89 19.85 -0.89 19.76 0.11 19.61 1.07 19.44 2.04 19.23 2.96 19 3.89 18.72 4.78 18.41 5.66 18.08 6.53 17.73 7.36 17.33 8.2 16.92 9.01 16.47 9.8 15.99 10.58 15.48 11.35 14.96 12.09 14.39 12.83 13.8 13.54 13.17 14.25 12.5 14.93 11.82 15.6 11.08 16.24 10.33 16.87 9.53 17.48 8.7 18.05 7.84 18.6 6.94 19.13 6 19.6 -192.65 53.7 -3.04 -9.92 -3.48 -9.59 -3.91 -9.28 -4.33 -8.98 -4.73 -8.67 -5.13 -8.37 -5.51 -8.07 -5.87 -7.75 -6.24 -7.44 -6.56 -7.11 -6.9 -6.77 -7.21 -6.43 -7.5 -6.06 -7.79 -5.7 -8.04 -5.33 -8.29 -4.93 -8.51 -4.53 -8.72 -4.13 -8.91 -3.7 -9.08 -3.28 -9.23 -2.84 -9.36 -2.39 -9.49 -1.94 -9.58 -1.48 -9.67 -1.01 -9.75 -0.54 -9.8 -0.05 -9.87 0.44 -9.91 0.94 -9.94 1.45 -9.98 1.98 -10.03 2.52 0 0 -53.7 -192.65zm-277.91 492.71l0 0 -5 -19.88 -3.96 -19.96 -2.92 -19.97 -1.89 -19.95 -0.88 -19.89 0.11 -19.78 1.09 -19.64 2.04 -19.46 2.98 -19.24 3.9 -19.01 4.8 -18.73 5.68 -18.42 6.54 -18.09 7.39 -17.72 8.21 -17.32 9.03 -16.91 9.81 -16.46 10.6 -15.98 11.36 -15.48 12.09 -14.93 12.84 -14.37 13.54 -13.78 14.25 -13.15 14.92 -12.48 15.59 -11.8 16.23 -11.07 16.85 -10.31 17.45 -9.51 18.02 -8.68 18.58 -7.83 19.1 -6.92 19.56 -5.99 53.7 192.65 -9.89 3.03 -9.56 3.47 -9.26 3.9 -8.97 4.32 -8.67 4.73 -8.36 5.12 -8.07 5.5 -7.75 5.87 -7.44 6.22 -7.11 6.57 -6.77 6.89 -6.44 7.2 -6.07 7.51 -5.71 7.77 -5.33 8.04 -4.94 8.28 -4.54 8.51 -4.13 8.72 -3.72 8.91 -3.28 9.07 -2.85 9.23 -2.39 9.36 -1.95 9.48 -1.48 9.59 -1.02 9.67 -0.54 9.76 -0.06 9.81 0.44 9.88 0.94 9.92 1.45 9.96 1.98 10.01 2.53 10.06 0 0 -192.65 53.7zm492.71 277.91l0 0 -19.84 4.99 -19.93 3.95 -19.94 2.92 -19.92 1.89 -19.85 0.89 -19.76 -0.11 -19.61 -1.07 -19.44 -2.04 -19.23 -2.96 -19 -3.89 -18.72 -4.78 -18.41 -5.66 -18.08 -6.53 -17.73 -7.36 -17.33 -8.2 -16.92 -9.01 -16.47 -9.8 -15.99 -10.58 -15.48 -11.35 -14.96 -12.09 -14.39 -12.83 -13.8 -13.54 -13.17 -14.25 -12.5 -14.93 -11.82 -15.6 -11.08 -16.24 -10.33 -16.87 -9.53 -17.48 -8.7 -18.05 -7.84 -18.6 -6.94 -19.13 -6 -19.6 192.65 -53.7 3.04 9.92 3.48 9.59 3.91 9.28 4.33 8.98 4.73 8.67 5.13 8.37 5.51 8.07 5.87 7.75 6.24 7.44 6.56 7.11 6.9 6.77 7.21 6.43 7.5 6.06 7.79 5.7 8.04 5.33 8.29 4.93 8.51 4.53 8.72 4.13 8.91 3.7 9.08 3.28 9.23 2.84 9.36 2.39 9.49 1.94 9.58 1.48 9.67 1.01 9.75 0.54 9.8 0.05 9.87 -0.44 9.91 -0.94 9.94 -1.45 9.98 -1.98 10.03 -2.52 0 0 53.7 192.65zm277.91 -492.71l5 19.88 3.96 19.96 2.92 19.97 1.89 19.95 0.88 19.89 -0.11 19.78 -1.09 19.64 -2.04 19.46 -2.98 19.24 -3.9 19.01 -4.8 18.73 -5.68 18.42 -6.54 18.09 -7.39 17.72 -8.21 17.32 -9.03 16.91 -9.81 16.46 -10.6 15.98 -11.36 15.48 -12.09 14.93 -12.84 14.37 -13.54 13.78 -14.25 13.15 -14.92 12.48 -15.59 11.8 -16.23 11.07 -16.85 10.31 -17.45 9.51 -18.02 8.68 -18.58 7.83 -19.1 6.92 -19.56 5.99 -53.7 -192.65 9.89 -3.03 9.56 -3.47 9.26 -3.9 8.97 -4.32 8.67 -4.73 8.36 -5.12 8.07 -5.5 7.75 -5.87 7.44 -6.22 7.11 -6.57 6.77 -6.89 6.44 -7.2 6.07 -7.51 5.71 -7.77 5.33 -8.04 4.94 -8.28 4.54 -8.51 4.13 -8.72 3.72 -8.91 3.28 -9.07 2.85 -9.23 2.39 -9.36 1.95 -9.48 1.48 -9.59 1.02 -9.67 0.54 -9.76 0.06 -9.81 -0.44 -9.88 -0.94 -9.92 -1.45 -9.96 -1.98 -10.01 -2.53 -10.06 192.65 -53.7zm7928.1 -2106.02l-8020.31 2235.54 -53.7 -192.66 8020.31 -2235.54 53.7 192.66z"/>
  </g>
  <g>
   <path class="fil1" d="M4340.69 11242.93l0 0 20.41 -1.34 20.31 -0.31 20.14 0.71 19.94 1.72 19.68 2.69 19.42 3.65 19.1 4.59 18.76 5.49 18.38 6.37 17.99 7.23 17.56 8.07 17.09 8.87 16.62 9.67 16.11 10.43 15.58 11.17 15.02 11.9 14.44 12.61 13.83 13.27 13.2 13.94 12.54 14.59 11.85 15.2 11.14 15.8 10.4 16.38 9.62 16.93 8.82 17.46 7.99 17.98 7.13 18.45 6.23 18.9 5.32 19.32 4.37 19.71 3.39 20.06 2.39 20.36 -199.16 18.22 -1.21 -10.3 -1.7 -10.06 -2.18 -9.83 -2.65 -9.61 -3.09 -9.38 -3.54 -9.16 -3.97 -8.92 -4.39 -8.68 -4.79 -8.44 -5.19 -8.17 -5.57 -7.9 -5.94 -7.61 -6.29 -7.32 -6.63 -7 -6.96 -6.69 -7.27 -6.34 -7.56 -5.99 -7.83 -5.62 -8.1 -5.24 -8.34 -4.85 -8.58 -4.46 -8.77 -4.03 -8.98 -3.61 -9.17 -3.18 -9.33 -2.73 -9.49 -2.28 -9.64 -1.81 -9.78 -1.34 -9.92 -0.86 -10.04 -0.35 -10.17 0.15 -10.32 0.68 0 0 -18.22 -199.16zm-361.87 434.77l0 0 -1.34 -20.45 -0.31 -20.34 0.71 -20.18 1.73 -19.96 2.7 -19.72 3.66 -19.44 4.6 -19.12 5.5 -18.78 6.39 -18.39 7.25 -18 8.09 -17.56 8.89 -17.1 9.68 -16.62 10.45 -16.1 11.19 -15.57 11.91 -15.01 12.62 -14.43 13.29 -13.82 13.95 -13.18 14.58 -12.52 15.21 -11.83 15.8 -11.13 16.37 -10.37 16.92 -9.6 17.45 -8.81 17.96 -7.97 18.43 -7.11 18.87 -6.23 19.29 -5.3 19.68 -4.36 20.03 -3.38 20.32 -2.39 18.22 199.16 -10.27 1.2 -10.03 1.7 -9.81 2.17 -9.59 2.65 -9.38 3.09 -9.15 3.53 -8.92 3.96 -8.68 4.38 -8.43 4.79 -8.18 5.18 -7.9 5.56 -7.62 5.94 -7.33 6.29 -7.01 6.62 -6.68 6.95 -6.35 7.26 -5.99 7.55 -5.63 7.84 -5.26 8.09 -4.85 8.34 -4.46 8.57 -4.04 8.77 -3.62 8.98 -3.18 9.17 -2.74 9.33 -2.28 9.5 -1.82 9.64 -1.35 9.79 -0.85 9.94 -0.36 10.06 0.15 10.2 0.68 10.35 0 0 -199.16 18.22zm434.77 361.87l0 0 -20.41 1.34 -20.31 0.31 -20.14 -0.71 -19.94 -1.72 -19.68 -2.69 -19.42 -3.65 -19.1 -4.59 -18.76 -5.49 -18.38 -6.37 -17.99 -7.23 -17.56 -8.07 -17.09 -8.87 -16.62 -9.67 -16.11 -10.43 -15.58 -11.17 -15.02 -11.9 -14.44 -12.61 -13.83 -13.27 -13.2 -13.94 -12.54 -14.59 -11.85 -15.2 -11.14 -15.8 -10.4 -16.38 -9.62 -16.93 -8.82 -17.46 -7.99 -17.98 -7.13 -18.45 -6.23 -18.9 -5.32 -19.32 -4.37 -19.71 -3.39 -20.06 -2.39 -20.36 199.16 -18.22 1.21 10.3 1.7 10.06 2.18 9.83 2.65 9.61 3.09 9.38 3.54 9.16 3.97 8.92 4.39 8.68 4.79 8.44 5.19 8.17 5.57 7.9 5.94 7.61 6.29 7.32 6.63 7 6.96 6.69 7.27 6.34 7.56 5.99 7.83 5.62 8.1 5.24 8.34 4.85 8.58 4.46 8.77 4.03 8.98 3.61 9.17 3.18 9.33 2.73 9.49 2.28 9.64 1.81 9.78 1.34 9.92 0.86 10.04 0.35 10.17 -0.15 10.32 -0.68 0 0 18.22 199.16zm361.87 -434.77l1.34 20.45 0.31 20.34 -0.71 20.18 -1.73 19.96 -2.7 19.72 -3.66 19.44 -4.6 19.12 -5.5 18.78 -6.39 18.39 -7.25 18 -8.09 17.56 -8.89 17.1 -9.68 16.62 -10.45 16.1 -11.19 15.57 -11.91 15.01 -12.62 14.43 -13.29 13.82 -13.95 13.18 -14.58 12.52 -15.21 11.83 -15.8 11.13 -16.37 10.37 -16.92 9.6 -17.45 8.81 -17.96 7.97 -18.43 7.11 -18.87 6.23 -19.29 5.3 -19.68 4.36 -20.03 3.38 -20.32 2.39 -18.22 -199.16 10.27 -1.2 10.03 -1.7 9.81 -2.17 9.59 -2.65 9.38 -3.09 9.15 -3.53 8.92 -3.96 8.68 -4.38 8.43 -4.79 8.18 -5.18 7.9 -5.56 7.62 -5.94 7.33 -6.29 7.01 -6.62 6.68 -6.95 6.35 -7.26 5.99 -7.55 5.63 -7.84 5.26 -8.09 4.85 -8.34 4.46 -8.57 4.04 -8.77 3.62 -8.98 3.18 -9.17 2.74 -9.33 2.28 -9.5 1.82 -9.64 1.35 -9.79 0.85 -9.94 0.36 -10.06 -0.15 -10.2 -0.68 -10.35 199.16 -18.22zm10166.14 -829.98l-10280.12 940.83 -18.22 -199.16 10280.12 -940.83 18.22 199.16z"/>
  </g>
  <g>
   <path class="fil1" d="M4496.18 12051.89l0 0 10.22 -0.48 10.15 0.04 10.07 0.55 9.94 1.05 9.82 1.54 9.67 2.01 9.51 2.48 9.32 2.92 9.13 3.37 8.92 3.78 8.7 4.21 8.46 4.6 8.22 4.99 7.95 5.37 7.68 5.74 7.4 6.09 7.1 6.44 6.78 6.77 6.46 7.1 6.13 7.41 5.78 7.72 5.42 8 5.04 8.29 4.64 8.56 4.25 8.82 3.82 9.06 3.38 9.29 2.94 9.51 2.47 9.71 1.99 9.9 1.51 10.06 0.99 10.2 -99.74 7.19 -0.5 -5.16 -0.76 -5.05 -0.99 -4.93 -1.23 -4.83 -1.46 -4.73 -1.68 -4.61 -1.9 -4.5 -2.11 -4.38 -2.31 -4.26 -2.52 -4.14 -2.7 -4 -2.9 -3.86 -3.07 -3.72 -3.25 -3.57 -3.42 -3.41 -3.57 -3.24 -3.72 -3.06 -3.86 -2.89 -4 -2.7 -4.13 -2.5 -4.24 -2.31 -4.35 -2.1 -4.45 -1.9 -4.55 -1.67 -4.64 -1.46 -4.73 -1.23 -4.8 -1 -4.87 -0.76 -4.95 -0.53 -5.02 -0.27 -5.09 -0.02 -5.16 0.24 0 0 -7.19 -99.74zm-185.1 213.86l0 0 -0.48 -10.24 0.04 -10.17 0.56 -10.08 1.05 -9.96 1.54 -9.83 2.02 -9.69 2.48 -9.51 2.93 -9.33 3.37 -9.14 3.8 -8.93 4.22 -8.7 4.61 -8.46 5 -8.22 5.38 -7.95 5.74 -7.67 6.1 -7.39 6.45 -7.09 6.78 -6.78 7.1 -6.46 7.41 -6.12 7.71 -5.77 8.01 -5.4 8.28 -5.03 8.56 -4.64 8.81 -4.23 9.05 -3.82 9.28 -3.38 9.5 -2.92 9.69 -2.47 9.88 -1.99 10.05 -1.5 10.18 -0.99 7.19 99.74 -5.15 0.5 -5.03 0.75 -4.92 0.99 -4.83 1.23 -4.71 1.46 -4.61 1.68 -4.5 1.89 -4.38 2.11 -4.26 2.31 -4.14 2.51 -4 2.7 -3.87 2.9 -3.73 3.07 -3.56 3.25 -3.41 3.4 -3.24 3.57 -3.08 3.72 -2.89 3.87 -2.7 3.99 -2.51 4.12 -2.31 4.24 -2.11 4.35 -1.89 4.45 -1.68 4.55 -1.46 4.64 -1.23 4.73 -1 4.8 -0.77 4.89 -0.52 4.95 -0.28 5.03 -0.02 5.1 0.24 5.18 0 0 -99.74 7.19zm213.86 185.1l0 0 -10.22 0.48 -10.15 -0.04 -10.07 -0.55 -9.94 -1.05 -9.82 -1.54 -9.67 -2.01 -9.51 -2.48 -9.32 -2.92 -9.13 -3.37 -8.92 -3.78 -8.7 -4.21 -8.46 -4.6 -8.22 -4.99 -7.95 -5.37 -7.68 -5.74 -7.4 -6.09 -7.1 -6.44 -6.78 -6.77 -6.46 -7.1 -6.13 -7.41 -5.78 -7.72 -5.42 -8 -5.04 -8.29 -4.64 -8.56 -4.25 -8.82 -3.82 -9.06 -3.38 -9.29 -2.94 -9.51 -2.47 -9.71 -1.99 -9.9 -1.51 -10.06 -0.99 -10.2 99.74 -7.19 0.5 5.16 0.76 5.05 0.99 4.93 1.23 4.83 1.46 4.73 1.68 4.61 1.9 4.5 2.11 4.38 2.31 4.26 2.52 4.14 2.7 4 2.9 3.86 3.07 3.72 3.25 3.57 3.42 3.41 3.57 3.24 3.72 3.06 3.86 2.89 4 2.7 4.13 2.5 4.24 2.31 4.35 2.1 4.45 1.9 4.55 1.67 4.64 1.46 4.73 1.23 4.8 1 4.87 0.76 4.95 0.53 5.02 0.27 5.09 0.02 5.16 -0.24 0 0 7.19 99.74zm185.1 -213.86l0.48 10.24 -0.04 10.17 -0.56 10.08 -1.05 9.96 -1.54 9.83 -2.02 9.69 -2.48 9.51 -2.93 9.33 -3.37 9.14 -3.8 8.93 -4.22 8.7 -4.61 8.46 -5 8.22 -5.38 7.95 -5.74 7.67 -6.1 7.39 -6.45 7.09 -6.78 6.78 -7.1 6.46 -7.41 6.12 -7.71 5.77 -8.01 5.4 -8.28 5.03 -8.56 4.64 -8.81 4.23 -9.05 3.82 -9.28 3.38 -9.5 2.92 -9.69 2.47 -9.88 1.99 -10.05 1.5 -10.18 0.99 -7.19 -99.74 5.15 -0.5 5.03 -0.75 4.92 -0.99 4.83 -1.23 4.71 -1.46 4.61 -1.68 4.5 -1.89 4.38 -2.11 4.26 -2.31 4.14 -2.51 4 -2.7 3.87 -2.9 3.73 -3.07 3.56 -3.25 3.41 -3.4 3.24 -3.57 3.08 -3.72 2.89 -3.87 2.7 -3.99 2.51 -4.12 2.31 -4.24 2.11 -4.35 1.89 -4.45 1.68 -4.55 1.46 -4.64 1.23 -4.73 1 -4.8 0.77 -4.89 0.52 -4.95 0.28 -5.03 0.02 -5.1 -0.24 -5.18 99.74 -7.19zm7252.76 -472.82l-7310.8 527.14 -7.2 -99.74 7310.8 -527.14 7.2 99.74zm119.86 -259.28l7.19 99.74 0 0 -5.15 0.5 -5.03 0.75 -4.92 0.99 -4.83 1.23 -4.71 1.46 -4.61 1.68 -4.5 1.89 -4.38 2.11 -4.26 2.31 -4.14 2.51 -4 2.7 -3.87 2.9 -3.73 3.07 -3.56 3.24 -3.41 3.41 -3.24 3.57 -3.08 3.72 -2.89 3.87 -2.7 3.99 -2.51 4.12 -2.31 4.24 -2.11 4.35 -1.89 4.45 -1.68 4.55 -1.46 4.64 -1.23 4.73 -1 4.8 -0.77 4.89 -0.52 4.95 -0.28 5.03 -0.02 5.1 0.24 5.18 -99.74 7.19 -0.48 -10.24 0.04 -10.17 0.56 -10.08 1.05 -9.96 1.54 -9.83 2.02 -9.69 2.48 -9.51 2.93 -9.34 3.37 -9.13 3.8 -8.93 4.22 -8.7 4.61 -8.46 5 -8.22 5.38 -7.95 5.74 -7.67 6.1 -7.39 6.45 -7.09 6.78 -6.78 7.1 -6.46 7.41 -6.12 7.71 -5.77 8.01 -5.4 8.28 -5.03 8.56 -4.64 8.81 -4.23 9.05 -3.82 9.28 -3.38 9.5 -2.92 9.69 -2.47 9.88 -1.99 10.05 -1.5 10.18 -0.99 0 0zm213.86 185.1l-99.74 7.19 0 0 -0.5 -5.16 -0.76 -5.05 -0.99 -4.93 -1.23 -4.83 -1.46 -4.73 -1.68 -4.61 -1.9 -4.5 -2.11 -4.38 -2.31 -4.26 -2.52 -4.14 -2.7 -4 -2.9 -3.86 -3.07 -3.72 -3.25 -3.57 -3.42 -3.41 -3.57 -3.24 -3.72 -3.06 -3.86 -2.89 -4 -2.7 -4.13 -2.5 -4.24 -2.31 -4.35 -2.1 -4.45 -1.9 -4.55 -1.67 -4.64 -1.46 -4.73 -1.23 -4.8 -1 -4.87 -0.76 -4.95 -0.53 -5.02 -0.27 -5.09 -0.02 -5.16 0.24 -7.19 -99.74 10.22 -0.48 10.15 0.04 10.07 0.55 9.94 1.05 9.82 1.54 9.67 2.01 9.51 2.48 9.32 2.92 9.13 3.37 8.92 3.78 8.7 4.21 8.46 4.6 8.22 4.99 7.95 5.37 7.68 5.74 7.4 6.09 7.1 6.44 6.78 6.77 6.46 7.1 6.13 7.41 5.78 7.72 5.42 8 5.04 8.29 4.64 8.56 4.25 8.82 3.82 9.06 3.38 9.29 2.94 9.51 2.47 9.71 1.99 9.9 1.51 10.06 0.99 10.2 0 0zm-185.1 213.86l-7.19 -99.74 0 0 5.15 -0.5 5.03 -0.75 4.92 -0.99 4.83 -1.23 4.71 -1.46 4.61 -1.68 4.5 -1.89 4.38 -2.11 4.26 -2.31 4.14 -2.51 4 -2.7 3.87 -2.9 3.73 -3.07 3.56 -3.24 3.41 -3.41 3.24 -3.57 3.08 -3.72 2.89 -3.87 2.7 -3.99 2.51 -4.12 2.31 -4.24 2.11 -4.35 1.89 -4.45 1.68 -4.55 1.46 -4.64 1.23 -4.73 1 -4.8 0.77 -4.89 0.52 -4.95 0.28 -5.03 0.02 -5.1 -0.24 -5.18 99.74 -7.19 0.48 10.24 -0.04 10.17 -0.56 10.08 -1.05 9.96 -1.54 9.83 -2.02 9.69 -2.48 9.51 -2.93 9.34 -3.37 9.13 -3.8 8.93 -4.22 8.7 -4.61 8.46 -5 8.22 -5.38 7.95 -5.74 7.67 -6.1 7.39 -6.45 7.09 -6.78 6.78 -7.1 6.46 -7.41 6.12 -7.71 5.77 -8.01 5.4 -8.28 5.03 -8.56 4.64 -8.81 4.23 -9.05 3.82 -9.28 3.38 -9.5 2.92 -9.69 2.47 -9.88 1.99 -10.05 1.5 -10.18 0.99 0 0zm-213.86 -185.1l99.74 -7.19 0.5 5.16 0.76 5.05 0.99 4.93 1.23 4.83 1.46 4.73 1.68 4.61 1.9 4.5 2.11 4.38 2.31 4.26 2.52 4.14 2.7 4 2.9 3.86 3.07 3.72 3.25 3.57 3.42 3.41 3.57 3.24 3.72 3.06 3.86 2.89 4 2.7 4.13 2.5 4.24 2.31 4.35 2.1 4.45 1.9 4.55 1.67 4.64 1.46 4.73 1.23 4.8 1 4.87 0.76 4.95 0.53 5.02 0.27 5.09 0.02 5.16 -0.24 7.19 99.74 -10.22 0.48 -10.15 -0.04 -10.07 -0.55 -9.94 -1.05 -9.82 -1.54 -9.67 -2.01 -9.51 -2.48 -9.32 -2.92 -9.13 -3.37 -8.92 -3.78 -8.7 -4.21 -8.46 -4.6 -8.22 -4.99 -7.95 -5.37 -7.68 -5.74 -7.4 -6.09 -7.1 -6.44 -6.78 -6.77 -6.46 -7.1 -6.13 -7.41 -5.78 -7.72 -5.42 -8 -5.04 -8.29 -4.64 -8.56 -4.25 -8.82 -3.82 -9.06 -3.38 -9.29 -2.94 -9.51 -2.47 -9.71 -1.99 -9.9 -1.51 -10.06 -0.99 -10.2z"/>
  </g>
  <g>
   <path class="fil1" d="M4977.83 12518.06l0 0 7.68 -0.15 7.61 0.24 7.53 0.62 7.44 0.99 7.33 1.35 7.21 1.71 7.07 2.05 6.94 2.38 6.77 2.71 6.61 3.02 6.44 3.33 6.25 3.62 6.06 3.91 5.85 4.19 5.64 4.46 5.42 4.72 5.19 4.97 4.95 5.21 4.7 5.46 4.44 5.68 4.18 5.9 3.9 6.11 3.61 6.32 3.31 6.51 3 6.7 2.68 6.87 2.35 7.03 2 7.19 1.66 7.33 1.29 7.46 0.92 7.58 0.54 7.66 -74.93 3.36 -0.27 -3.88 -0.46 -3.8 -0.64 -3.72 -0.83 -3.64 -1 -3.57 -1.16 -3.49 -1.33 -3.42 -1.5 -3.32 -1.65 -3.25 -1.79 -3.15 -1.95 -3.05 -2.1 -2.96 -2.22 -2.85 -2.37 -2.74 -2.49 -2.63 -2.61 -2.5 -2.73 -2.37 -2.83 -2.25 -2.95 -2.1 -3.04 -1.96 -3.13 -1.82 -3.22 -1.67 -3.3 -1.5 -3.38 -1.35 -3.45 -1.19 -3.51 -1.02 -3.58 -0.85 -3.64 -0.67 -3.7 -0.49 -3.76 -0.31 -3.81 -0.12 -3.88 0.08 0 0 -3.36 -74.93zm-143.13 156.57l0 0 -0.15 -7.69 0.24 -7.63 0.62 -7.54 0.99 -7.45 1.36 -7.34 1.71 -7.22 2.06 -7.08 2.38 -6.94 2.72 -6.78 3.03 -6.61 3.33 -6.44 3.63 -6.25 3.92 -6.06 4.2 -5.85 4.46 -5.64 4.72 -5.41 4.98 -5.19 5.22 -4.95 5.45 -4.69 5.69 -4.44 5.9 -4.16 6.11 -3.89 6.31 -3.61 6.51 -3.3 6.69 -2.99 6.87 -2.68 7.02 -2.34 7.18 -2 7.32 -1.65 7.45 -1.29 7.56 -0.92 7.65 -0.54 3.36 74.93 -3.87 0.27 -3.78 0.46 -3.72 0.64 -3.64 0.82 -3.56 1 -3.49 1.16 -3.41 1.33 -3.33 1.49 -3.24 1.65 -3.16 1.8 -3.05 1.94 -2.96 2.09 -2.86 2.23 -2.74 2.36 -2.62 2.49 -2.51 2.6 -2.37 2.73 -2.25 2.84 -2.11 2.94 -1.96 3.04 -1.82 3.13 -1.67 3.22 -1.51 3.29 -1.35 3.38 -1.19 3.45 -1.02 3.52 -0.85 3.58 -0.68 3.65 -0.49 3.7 -0.31 3.76 -0.12 3.83 0.08 3.89 0 0 -74.93 3.36zm156.57 143.13l0 0 -7.68 0.15 -7.61 -0.24 -7.53 -0.62 -7.44 -0.99 -7.33 -1.35 -7.21 -1.71 -7.07 -2.05 -6.94 -2.38 -6.77 -2.71 -6.61 -3.02 -6.44 -3.33 -6.25 -3.62 -6.06 -3.91 -5.85 -4.19 -5.64 -4.46 -5.42 -4.72 -5.19 -4.97 -4.95 -5.21 -4.7 -5.46 -4.44 -5.68 -4.18 -5.9 -3.9 -6.11 -3.61 -6.32 -3.31 -6.51 -3 -6.7 -2.68 -6.87 -2.35 -7.03 -2 -7.19 -1.66 -7.33 -1.29 -7.46 -0.92 -7.58 -0.54 -7.66 74.93 -3.36 0.27 3.88 0.46 3.8 0.64 3.72 0.83 3.64 1 3.57 1.16 3.49 1.33 3.42 1.5 3.32 1.65 3.25 1.79 3.15 1.95 3.05 2.1 2.96 2.22 2.85 2.37 2.74 2.49 2.63 2.61 2.5 2.73 2.37 2.83 2.25 2.95 2.1 3.04 1.96 3.13 1.82 3.22 1.67 3.3 1.5 3.38 1.35 3.45 1.19 3.51 1.02 3.58 0.85 3.64 0.67 3.7 0.49 3.76 0.31 3.81 0.12 3.88 -0.08 0 0 3.36 74.93zm143.13 -156.57l0.15 7.69 -0.24 7.63 -0.62 7.54 -0.99 7.45 -1.36 7.34 -1.71 7.22 -2.06 7.08 -2.38 6.94 -2.72 6.78 -3.03 6.61 -3.33 6.44 -3.63 6.25 -3.92 6.06 -4.2 5.85 -4.46 5.64 -4.72 5.41 -4.98 5.19 -5.22 4.95 -5.45 4.69 -5.69 4.44 -5.9 4.16 -6.11 3.89 -6.31 3.61 -6.51 3.3 -6.69 2.99 -6.87 2.68 -7.02 2.34 -7.18 2 -7.32 1.65 -7.45 1.29 -7.56 0.92 -7.65 0.54 -3.36 -74.93 3.87 -0.27 3.78 -0.46 3.72 -0.64 3.64 -0.82 3.56 -1 3.49 -1.16 3.41 -1.33 3.33 -1.49 3.24 -1.65 3.16 -1.8 3.05 -1.94 2.96 -2.09 2.86 -2.23 2.74 -2.36 2.62 -2.49 2.51 -2.6 2.37 -2.73 2.25 -2.84 2.11 -2.94 1.96 -3.04 1.82 -3.13 1.67 -3.22 1.51 -3.29 1.35 -3.38 1.19 -3.45 1.02 -3.52 0.85 -3.58 0.68 -3.65 0.49 -3.7 0.31 -3.76 0.12 -3.83 -0.08 -3.89 74.93 -3.36zm7854.02 -314.43l-7898.65 353.97 -3.36 -74.92 7898.65 -353.97 3.36 74.92zm95.14 -191.95l3.36 74.93 0 0 -3.87 0.27 -3.78 0.46 -3.72 0.64 -3.64 0.82 -3.56 1 -3.49 1.16 -3.41 1.33 -3.33 1.49 -3.24 1.65 -3.16 1.8 -3.05 1.94 -2.96 2.09 -2.86 2.23 -2.74 2.36 -2.62 2.49 -2.51 2.6 -2.37 2.73 -2.25 2.84 -2.11 2.94 -1.96 3.04 -1.82 3.13 -1.67 3.22 -1.51 3.29 -1.35 3.38 -1.19 3.45 -1.02 3.52 -0.85 3.58 -0.68 3.65 -0.49 3.7 -0.31 3.76 -0.12 3.83 0.08 3.89 -74.93 3.36 -0.15 -7.69 0.24 -7.63 0.62 -7.54 0.99 -7.45 1.36 -7.34 1.71 -7.22 2.06 -7.08 2.38 -6.94 2.72 -6.78 3.03 -6.61 3.33 -6.44 3.63 -6.25 3.92 -6.06 4.2 -5.85 4.46 -5.64 4.72 -5.41 4.98 -5.19 5.22 -4.95 5.45 -4.69 5.69 -4.44 5.9 -4.16 6.11 -3.89 6.31 -3.6 6.51 -3.31 6.69 -2.99 6.87 -2.68 7.02 -2.34 7.18 -2 7.32 -1.65 7.45 -1.29 7.56 -0.92 7.65 -0.54 0 0zm156.57 143.13l-74.93 3.36 0 0 -0.27 -3.88 -0.46 -3.8 -0.64 -3.72 -0.83 -3.64 -1 -3.57 -1.16 -3.49 -1.33 -3.42 -1.5 -3.32 -1.65 -3.25 -1.79 -3.15 -1.95 -3.05 -2.1 -2.96 -2.22 -2.85 -2.37 -2.74 -2.49 -2.63 -2.61 -2.5 -2.73 -2.37 -2.83 -2.25 -2.95 -2.1 -3.04 -1.96 -3.13 -1.82 -3.22 -1.67 -3.3 -1.5 -3.38 -1.35 -3.45 -1.19 -3.51 -1.02 -3.58 -0.85 -3.64 -0.67 -3.7 -0.49 -3.76 -0.31 -3.81 -0.12 -3.88 0.08 -3.36 -74.93 7.68 -0.15 7.61 0.24 7.53 0.62 7.44 0.99 7.33 1.35 7.21 1.71 7.07 2.05 6.94 2.38 6.77 2.71 6.61 3.02 6.44 3.33 6.25 3.62 6.06 3.91 5.85 4.19 5.64 4.46 5.42 4.72 5.19 4.97 4.95 5.21 4.7 5.46 4.44 5.68 4.18 5.9 3.9 6.11 3.61 6.32 3.31 6.51 3 6.7 2.68 6.87 2.35 7.03 2 7.19 1.66 7.33 1.29 7.46 0.92 7.58 0.54 7.66 0 0zm-143.13 156.57l-3.36 -74.93 0 0 3.87 -0.27 3.78 -0.46 3.72 -0.64 3.64 -0.82 3.56 -1 3.49 -1.16 3.41 -1.33 3.33 -1.49 3.24 -1.65 3.16 -1.8 3.05 -1.94 2.96 -2.09 2.86 -2.23 2.74 -2.36 2.62 -2.49 2.51 -2.6 2.37 -2.73 2.25 -2.84 2.11 -2.94 1.96 -3.04 1.82 -3.13 1.67 -3.22 1.51 -3.29 1.35 -3.38 1.19 -3.45 1.02 -3.52 0.85 -3.58 0.68 -3.65 0.49 -3.7 0.31 -3.76 0.12 -3.83 -0.08 -3.89 74.93 -3.36 0.15 7.69 -0.24 7.63 -0.62 7.54 -0.99 7.45 -1.36 7.34 -1.71 7.22 -2.06 7.08 -2.38 6.94 -2.72 6.78 -3.03 6.61 -3.33 6.44 -3.63 6.25 -3.92 6.06 -4.2 5.85 -4.46 5.64 -4.72 5.41 -4.98 5.19 -5.22 4.95 -5.45 4.69 -5.69 4.44 -5.9 4.16 -6.11 3.89 -6.31 3.6 -6.51 3.31 -6.69 2.99 -6.87 2.68 -7.02 2.34 -7.18 2 -7.32 1.65 -7.45 1.29 -7.56 0.92 -7.65 0.54 0 0zm-156.57 -143.13l74.93 -3.36 0.27 3.88 0.46 3.8 0.64 3.72 0.83 3.64 1 3.57 1.16 3.49 1.33 3.42 1.5 3.32 1.65 3.25 1.79 3.15 1.95 3.05 2.1 2.96 2.22 2.85 2.37 2.74 2.49 2.63 2.61 2.5 2.73 2.37 2.83 2.25 2.95 2.1 3.04 1.96 3.13 1.82 3.22 1.67 3.3 1.5 3.38 1.35 3.45 1.19 3.51 1.02 3.58 0.85 3.64 0.67 3.7 0.49 3.76 0.31 3.81 0.12 3.88 -0.08 3.36 74.93 -7.68 0.15 -7.61 -0.24 -7.53 -0.62 -7.44 -0.99 -7.33 -1.35 -7.21 -1.71 -7.07 -2.05 -6.94 -2.38 -6.77 -2.71 -6.61 -3.02 -6.44 -3.33 -6.25 -3.62 -6.06 -3.91 -5.85 -4.19 -5.64 -4.46 -5.42 -4.72 -5.19 -4.97 -4.95 -5.21 -4.7 -5.46 -4.44 -5.68 -4.18 -5.9 -3.9 -6.11 -3.61 -6.32 -3.31 -6.51 -3 -6.7 -2.68 -6.87 -2.35 -7.03 -2 -7.19 -1.66 -7.33 -1.29 -7.46 -0.92 -7.58 -0.54 -7.66z"/>
  </g>
  <g>
   <path class="fil1" d="M3938.8 12762.45l0 0 20.45 0.49 20.25 1.51 20 2.52 19.7 3.49 19.37 4.45 19.01 5.38 18.62 6.28 18.19 7.14 17.74 8 17.27 8.81 16.76 9.61 16.23 10.38 15.69 11.11 15.11 11.83 14.52 12.53 13.89 13.2 13.25 13.85 12.59 14.46 11.89 15.07 11.19 15.65 10.44 16.2 9.68 16.74 8.88 17.25 8.07 17.72 7.22 18.19 6.35 18.61 5.44 19.02 4.52 19.39 3.57 19.72 2.58 20.02 1.58 20.28 0.55 20.5 -200 0.3 -0.28 -10.37 -0.79 -10.17 -1.29 -9.99 -1.78 -9.81 -2.24 -9.62 -2.71 -9.44 -3.15 -9.24 -3.59 -9.04 -4.02 -8.84 -4.43 -8.6 -4.84 -8.36 -5.23 -8.12 -5.61 -7.85 -5.98 -7.57 -6.33 -7.29 -6.67 -6.96 -7 -6.65 -7.29 -6.29 -7.6 -5.95 -7.88 -5.59 -8.14 -5.2 -8.38 -4.8 -8.62 -4.4 -8.84 -3.99 -9.05 -3.56 -9.25 -3.12 -9.44 -2.67 -9.62 -2.21 -9.8 -1.74 -9.97 -1.25 -10.14 -0.76 -10.34 -0.25 0 0 -0.3 -200zm-399.4 400.6l0 0 0.49 -20.49 1.52 -20.29 2.52 -20.03 3.5 -19.73 4.46 -19.4 5.39 -19.03 6.3 -18.64 7.16 -18.2 8.01 -17.75 8.84 -17.28 9.63 -16.76 10.39 -16.24 11.13 -15.68 11.85 -15.11 12.54 -14.5 13.21 -13.88 13.86 -13.24 14.48 -12.58 15.08 -11.88 15.64 -11.16 16.21 -10.42 16.73 -9.66 17.24 -8.87 17.72 -8.05 18.17 -7.2 18.59 -6.33 19 -5.44 19.35 -4.5 19.69 -3.56 19.99 -2.58 20.25 -1.57 20.46 -0.55 0.3 200 -10.34 0.28 -10.14 0.79 -9.97 1.28 -9.79 1.77 -9.62 2.24 -9.43 2.7 -9.24 3.15 -9.04 3.58 -8.83 4.02 -8.6 4.42 -8.37 4.84 -8.12 5.22 -7.86 5.61 -7.58 5.97 -7.28 6.32 -6.97 6.66 -6.65 6.99 -6.31 7.3 -5.96 7.59 -5.59 7.87 -5.21 8.13 -4.81 8.38 -4.4 8.62 -4 8.84 -3.56 9.05 -3.12 9.26 -2.68 9.44 -2.22 9.63 -1.74 9.82 -1.26 9.99 -0.76 10.18 -0.25 10.36 0 0 -200 0.3zm400.6 399.4l0 0 -20.45 -0.49 -20.25 -1.51 -20 -2.52 -19.7 -3.49 -19.37 -4.45 -19.01 -5.38 -18.62 -6.28 -18.19 -7.14 -17.74 -8 -17.27 -8.81 -16.76 -9.61 -16.23 -10.38 -15.69 -11.11 -15.11 -11.83 -14.52 -12.53 -13.89 -13.2 -13.25 -13.85 -12.59 -14.46 -11.89 -15.07 -11.19 -15.65 -10.44 -16.2 -9.68 -16.74 -8.88 -17.25 -8.07 -17.72 -7.22 -18.19 -6.35 -18.61 -5.44 -19.02 -4.52 -19.39 -3.57 -19.72 -2.58 -20.02 -1.58 -20.28 -0.55 -20.5 200 -0.3 0.28 10.37 0.79 10.17 1.29 9.99 1.78 9.81 2.24 9.62 2.71 9.44 3.15 9.24 3.59 9.04 4.02 8.84 4.43 8.6 4.84 8.36 5.23 8.12 5.61 7.85 5.98 7.57 6.33 7.29 6.67 6.96 7 6.65 7.29 6.29 7.6 5.95 7.88 5.59 8.14 5.2 8.38 4.8 8.62 4.4 8.84 3.99 9.05 3.56 9.25 3.12 9.44 2.67 9.62 2.21 9.8 1.74 9.97 1.25 10.14 0.76 10.34 0.25 0 0 0.3 200zm399.4 -400.6l-0.49 20.49 -1.52 20.29 -2.52 20.03 -3.5 19.73 -4.46 19.4 -5.39 19.03 -6.3 18.64 -7.16 18.2 -8.01 17.75 -8.84 17.28 -9.63 16.76 -10.39 16.24 -11.13 15.68 -11.85 15.11 -12.54 14.5 -13.21 13.88 -13.86 13.24 -14.48 12.58 -15.08 11.88 -15.64 11.16 -16.21 10.42 -16.73 9.66 -17.24 8.87 -17.72 8.05 -18.17 7.2 -18.59 6.33 -19 5.44 -19.35 4.5 -19.69 3.56 -19.99 2.58 -20.25 1.57 -20.46 0.55 -0.3 -200 10.34 -0.28 10.14 -0.79 9.97 -1.28 9.79 -1.77 9.62 -2.24 9.43 -2.7 9.24 -3.15 9.04 -3.58 8.83 -4.02 8.6 -4.42 8.37 -4.84 8.12 -5.22 7.86 -5.61 7.58 -5.97 7.28 -6.32 6.97 -6.66 6.65 -6.99 6.31 -7.3 5.96 -7.59 5.59 -7.87 5.21 -8.13 4.81 -8.38 4.4 -8.62 4 -8.84 3.56 -9.05 3.12 -9.26 2.68 -9.44 2.22 -9.63 1.74 -9.82 1.26 -9.99 0.76 -10.18 0.25 -10.36 200 -0.3zm11079.41 83.24l-11202.87 16.95 -0.3 -200 11202.87 -16.95 0.3 200zm275.64 -500.41l0.3 200 0 0 -10.34 0.28 -10.14 0.79 -9.97 1.28 -9.79 1.77 -9.62 2.24 -9.43 2.7 -9.24 3.15 -9.04 3.58 -8.83 4.02 -8.6 4.42 -8.37 4.84 -8.12 5.22 -7.86 5.61 -7.58 5.97 -7.28 6.32 -6.97 6.66 -6.65 6.99 -6.31 7.3 -5.96 7.59 -5.59 7.87 -5.21 8.13 -4.81 8.38 -4.4 8.62 -4 8.84 -3.56 9.05 -3.12 9.26 -2.68 9.44 -2.22 9.63 -1.74 9.82 -1.26 9.99 -0.76 10.18 -0.25 10.36 -200 0.3 0.49 -20.49 1.52 -20.29 2.52 -20.03 3.5 -19.73 4.46 -19.4 5.39 -19.03 6.3 -18.64 7.16 -18.2 8.01 -17.75 8.84 -17.28 9.63 -16.76 10.39 -16.24 11.13 -15.68 11.85 -15.11 12.54 -14.5 13.21 -13.88 13.86 -13.24 14.48 -12.58 15.08 -11.88 15.64 -11.16 16.21 -10.42 16.73 -9.66 17.24 -8.87 17.71 -8.05 18.18 -7.2 18.59 -6.33 19 -5.44 19.35 -4.5 19.69 -3.56 19.99 -2.58 20.25 -1.57 20.46 -0.55 0 0zm400.6 399.4l-200 0.3 0 0 -0.28 -10.37 -0.79 -10.17 -1.29 -9.99 -1.78 -9.81 -2.24 -9.62 -2.71 -9.44 -3.15 -9.24 -3.59 -9.04 -4.02 -8.84 -4.43 -8.6 -4.84 -8.36 -5.23 -8.12 -5.61 -7.85 -5.98 -7.57 -6.33 -7.29 -6.67 -6.96 -7 -6.65 -7.29 -6.29 -7.6 -5.95 -7.88 -5.59 -8.14 -5.2 -8.38 -4.8 -8.62 -4.4 -8.84 -3.99 -9.05 -3.56 -9.25 -3.12 -9.44 -2.67 -9.62 -2.21 -9.8 -1.74 -9.97 -1.25 -10.15 -0.76 -10.33 -0.25 -0.3 -200 20.45 0.49 20.25 1.51 20 2.52 19.7 3.49 19.37 4.45 19.01 5.38 18.62 6.28 18.19 7.14 17.74 8 17.27 8.81 16.76 9.61 16.23 10.38 15.69 11.11 15.11 11.83 14.52 12.53 13.89 13.2 13.25 13.85 12.59 14.46 11.89 15.07 11.19 15.65 10.44 16.2 9.68 16.74 8.88 17.25 8.07 17.72 7.22 18.19 6.35 18.61 5.44 19.02 4.52 19.39 3.57 19.72 2.58 20.02 1.58 20.28 0.55 20.5 0 0zm-399.4 400.6l-0.3 -200 0 0 10.34 -0.28 10.14 -0.79 9.97 -1.28 9.79 -1.77 9.62 -2.24 9.43 -2.7 9.24 -3.15 9.04 -3.58 8.83 -4.02 8.6 -4.42 8.37 -4.84 8.12 -5.22 7.86 -5.61 7.58 -5.97 7.28 -6.32 6.97 -6.66 6.65 -6.99 6.31 -7.3 5.96 -7.59 5.59 -7.87 5.21 -8.13 4.81 -8.38 4.4 -8.62 4 -8.84 3.56 -9.05 3.12 -9.26 2.68 -9.44 2.22 -9.63 1.74 -9.82 1.26 -9.99 0.76 -10.18 0.25 -10.36 200 -0.3 -0.49 20.49 -1.52 20.29 -2.52 20.03 -3.5 19.73 -4.46 19.4 -5.39 19.03 -6.3 18.64 -7.16 18.2 -8.01 17.75 -8.84 17.28 -9.63 16.76 -10.39 16.24 -11.13 15.68 -11.85 15.11 -12.54 14.5 -13.21 13.88 -13.86 13.24 -14.48 12.58 -15.08 11.88 -15.64 11.16 -16.21 10.42 -16.73 9.66 -17.24 8.87 -17.71 8.05 -18.18 7.2 -18.59 6.33 -19 5.44 -19.35 4.5 -19.69 3.56 -19.99 2.58 -20.25 1.57 -20.46 0.55 0 0zm-400.6 -399.4l200 -0.3 0.28 10.37 0.79 10.17 1.29 9.99 1.78 9.81 2.24 9.62 2.71 9.44 3.15 9.24 3.59 9.04 4.02 8.84 4.43 8.6 4.84 8.36 5.23 8.12 5.61 7.85 5.98 7.57 6.33 7.29 6.67 6.96 7 6.65 7.29 6.29 7.6 5.95 7.88 5.59 8.14 5.2 8.38 4.8 8.62 4.4 8.84 3.99 9.05 3.56 9.25 3.12 9.44 2.67 9.62 2.21 9.8 1.74 9.97 1.25 10.15 0.76 10.33 0.25 0.3 200 -20.45 -0.49 -20.25 -1.51 -20 -2.52 -19.7 -3.49 -19.37 -4.45 -19.01 -5.38 -18.62 -6.28 -18.19 -7.14 -17.74 -8 -17.27 -8.81 -16.76 -9.61 -16.23 -10.38 -15.69 -11.11 -15.11 -11.83 -14.52 -12.53 -13.89 -13.2 -13.25 -13.85 -12.59 -14.46 -11.89 -15.07 -11.19 -15.65 -10.44 -16.2 -9.68 -16.74 -8.88 -17.25 -8.07 -17.72 -7.22 -18.19 -6.35 -18.61 -5.44 -19.02 -4.52 -19.39 -3.57 -19.72 -2.58 -20.02 -1.58 -20.28 -0.55 -20.5z"/>
  </g>
  <g>
   <path class="fil1" d="M4430.24 14078.91l0 0 20.45 0.75 20.23 1.76 19.97 2.77 19.65 3.74 19.31 4.69 18.94 5.61 18.53 6.51 18.11 7.38 17.63 8.21 17.16 9.03 16.64 9.82 16.1 10.57 15.54 11.31 14.96 12.02 14.36 12.71 13.73 13.37 13.08 14.01 12.4 14.62 11.71 15.22 10.98 15.78 10.24 16.33 9.47 16.86 8.67 17.36 7.84 17.82 7 18.27 6.11 18.7 5.21 19.08 4.27 19.44 3.32 19.76 2.34 20.05 1.32 20.3 0.3 20.5 -199.98 -2.2 -0.15 -10.36 -0.67 -10.19 -1.16 -10 -1.65 -9.83 -2.13 -9.65 -2.58 -9.47 -3.04 -9.28 -3.48 -9.08 -3.91 -8.89 -4.32 -8.65 -4.73 -8.43 -5.14 -8.18 -5.51 -7.92 -5.88 -7.64 -6.24 -7.36 -6.58 -7.05 -6.91 -6.73 -7.22 -6.39 -7.52 -6.04 -7.81 -5.68 -8.07 -5.31 -8.32 -4.91 -8.57 -4.51 -8.79 -4.09 -9 -3.67 -9.21 -3.24 -9.4 -2.78 -9.6 -2.33 -9.78 -1.87 -9.95 -1.38 -10.13 -0.88 -10.34 -0.38 0 0 2.2 -199.98zm-404.35 395.57l0 0 0.75 -20.48 1.77 -20.27 2.77 -20 3.75 -19.68 4.7 -19.34 5.63 -18.97 6.52 -18.55 7.4 -18.11 8.23 -17.65 9.05 -17.17 9.83 -16.64 10.6 -16.1 11.33 -15.55 12.03 -14.95 12.72 -14.34 13.39 -13.72 14.01 -13.07 14.64 -12.39 15.22 -11.69 15.79 -10.96 16.33 -10.22 16.85 -9.45 17.35 -8.65 17.81 -7.83 18.26 -6.97 18.67 -6.1 19.07 -5.2 19.4 -4.26 19.73 -3.31 20.03 -2.33 20.26 -1.32 20.46 -0.3 -2.2 199.98 -10.33 0.15 -10.16 0.66 -9.97 1.16 -9.82 1.65 -9.65 2.12 -9.46 2.58 -9.28 3.03 -9.08 3.47 -8.88 3.91 -8.66 4.32 -8.42 4.72 -8.19 5.13 -7.93 5.51 -7.65 5.87 -7.36 6.23 -7.05 6.57 -6.74 6.91 -6.4 7.22 -6.05 7.51 -5.68 7.8 -5.31 8.07 -4.92 8.32 -4.51 8.55 -4.11 8.8 -3.67 9.01 -3.24 9.21 -2.8 9.41 -2.33 9.6 -1.87 9.79 -1.38 9.98 -0.89 10.16 -0.38 10.37 0 0 -199.98 -2.2zm395.57 404.35l0 0 -20.45 -0.75 -20.23 -1.76 -19.97 -2.77 -19.65 -3.74 -19.31 -4.69 -18.94 -5.61 -18.53 -6.51 -18.11 -7.38 -17.63 -8.21 -17.16 -9.03 -16.64 -9.82 -16.1 -10.57 -15.54 -11.31 -14.96 -12.02 -14.36 -12.71 -13.73 -13.37 -13.08 -14.01 -12.4 -14.62 -11.71 -15.22 -10.98 -15.78 -10.24 -16.33 -9.47 -16.86 -8.67 -17.36 -7.84 -17.82 -7 -18.27 -6.11 -18.7 -5.21 -19.08 -4.27 -19.44 -3.32 -19.76 -2.34 -20.05 -1.32 -20.3 -0.3 -20.5 199.98 2.2 0.15 10.36 0.67 10.19 1.16 10 1.65 9.83 2.13 9.65 2.58 9.47 3.04 9.28 3.48 9.08 3.91 8.89 4.32 8.65 4.73 8.43 5.14 8.18 5.51 7.92 5.88 7.64 6.24 7.36 6.58 7.05 6.91 6.73 7.22 6.39 7.52 6.04 7.81 5.68 8.07 5.31 8.32 4.91 8.57 4.51 8.79 4.09 9 3.67 9.21 3.24 9.4 2.78 9.6 2.33 9.78 1.87 9.95 1.38 10.13 0.88 10.34 0.38 0 0 -2.2 199.98zm404.35 -395.57l-0.75 20.48 -1.77 20.27 -2.77 20 -3.75 19.68 -4.7 19.34 -5.63 18.97 -6.52 18.55 -7.4 18.11 -8.23 17.65 -9.05 17.17 -9.83 16.64 -10.6 16.1 -11.33 15.55 -12.03 14.95 -12.72 14.34 -13.39 13.72 -14.01 13.07 -14.64 12.39 -15.22 11.69 -15.79 10.96 -16.33 10.22 -16.85 9.45 -17.35 8.65 -17.81 7.83 -18.26 6.97 -18.67 6.1 -19.07 5.2 -19.4 4.26 -19.73 3.31 -20.03 2.33 -20.26 1.32 -20.46 0.3 2.2 -199.98 10.33 -0.15 10.16 -0.66 9.97 -1.16 9.82 -1.65 9.65 -2.12 9.46 -2.58 9.28 -3.03 9.08 -3.47 8.88 -3.91 8.66 -4.32 8.42 -4.72 8.19 -5.13 7.93 -5.51 7.65 -5.87 7.36 -6.23 7.05 -6.57 6.74 -6.91 6.4 -7.22 6.05 -7.51 5.68 -7.8 5.31 -8.07 4.92 -8.32 4.51 -8.55 4.11 -8.8 3.67 -9.01 3.24 -9.21 2.8 -9.41 2.33 -9.6 1.87 -9.79 1.38 -9.98 0.89 -10.16 0.38 -10.37 199.98 2.2zm11114.57 222l-11239.27 -123.37 2.2 -199.98 11239.27 123.37 -2.2 199.98zm281.85 -496.92l-2.19 199.98 0 0 -10.34 0.15 -10.16 0.66 -9.97 1.16 -9.82 1.65 -9.65 2.12 -9.46 2.58 -9.28 3.03 -9.08 3.47 -8.88 3.91 -8.66 4.32 -8.42 4.72 -8.19 5.13 -7.93 5.51 -7.65 5.87 -7.36 6.23 -7.05 6.57 -6.74 6.91 -6.4 7.22 -6.05 7.51 -5.68 7.8 -5.31 8.07 -4.92 8.32 -4.51 8.55 -4.11 8.8 -3.67 9.01 -3.24 9.21 -2.8 9.41 -2.33 9.6 -1.87 9.79 -1.38 9.98 -0.89 10.16 -0.38 10.36 -199.98 -2.19 0.75 -20.49 1.77 -20.26 2.77 -20 3.75 -19.68 4.7 -19.34 5.63 -18.97 6.52 -18.55 7.4 -18.11 8.23 -17.65 9.05 -17.17 9.83 -16.64 10.6 -16.1 11.33 -15.55 12.04 -14.95 12.71 -14.34 13.39 -13.72 14.01 -13.07 14.64 -12.39 15.22 -11.69 15.79 -10.96 16.33 -10.22 16.85 -9.45 17.35 -8.65 17.81 -7.83 18.26 -6.97 18.67 -6.1 19.07 -5.2 19.4 -4.26 19.73 -3.31 20.03 -2.33 20.26 -1.32 20.46 -0.3 0 0zm395.57 404.35l-199.98 -2.19 0 0 -0.15 -10.37 -0.67 -10.19 -1.16 -10 -1.65 -9.83 -2.13 -9.65 -2.58 -9.47 -3.04 -9.28 -3.48 -9.08 -3.91 -8.89 -4.32 -8.65 -4.73 -8.43 -5.14 -8.18 -5.51 -7.92 -5.88 -7.64 -6.24 -7.36 -6.58 -7.05 -6.91 -6.73 -7.22 -6.39 -7.52 -6.04 -7.81 -5.68 -8.07 -5.31 -8.32 -4.91 -8.57 -4.51 -8.79 -4.09 -9 -3.67 -9.21 -3.24 -9.4 -2.78 -9.6 -2.33 -9.78 -1.87 -9.95 -1.38 -10.13 -0.88 -10.33 -0.38 2.19 -199.98 20.45 0.75 20.23 1.76 19.97 2.77 19.65 3.74 19.31 4.69 18.94 5.61 18.53 6.51 18.11 7.38 17.63 8.21 17.16 9.03 16.64 9.82 16.1 10.57 15.54 11.31 14.96 12.02 14.36 12.71 13.73 13.37 13.08 14.01 12.4 14.62 11.71 15.22 10.98 15.78 10.24 16.33 9.47 16.86 8.67 17.36 7.84 17.82 7 18.27 6.11 18.7 5.21 19.08 4.27 19.44 3.32 19.76 2.34 20.05 1.32 20.3 0.3 20.5 0 0zm-404.35 395.57l2.19 -199.98 0 0 10.34 -0.15 10.16 -0.66 9.97 -1.16 9.82 -1.65 9.65 -2.12 9.46 -2.58 9.28 -3.03 9.08 -3.47 8.88 -3.91 8.66 -4.32 8.42 -4.72 8.19 -5.13 7.93 -5.51 7.65 -5.87 7.36 -6.23 7.05 -6.57 6.74 -6.91 6.4 -7.22 6.05 -7.51 5.68 -7.8 5.31 -8.07 4.92 -8.32 4.51 -8.55 4.11 -8.8 3.67 -9.01 3.24 -9.21 2.8 -9.41 2.33 -9.6 1.87 -9.79 1.38 -9.98 0.89 -10.16 0.38 -10.36 199.98 2.19 -0.75 20.49 -1.77 20.26 -2.77 20 -3.75 19.68 -4.7 19.34 -5.63 18.97 -6.52 18.55 -7.4 18.11 -8.23 17.65 -9.05 17.17 -9.83 16.64 -10.6 16.1 -11.33 15.55 -12.04 14.95 -12.71 14.34 -13.39 13.72 -14.01 13.07 -14.64 12.39 -15.22 11.69 -15.79 10.96 -16.33 10.22 -16.85 9.45 -17.35 8.65 -17.81 7.83 -18.26 6.97 -18.67 6.1 -19.07 5.2 -19.4 4.26 -19.73 3.31 -20.03 2.33 -20.26 1.32 -20.46 0.3 0 0zm-395.57 -404.35l199.98 2.19 0.15 10.37 0.67 10.19 1.16 10 1.65 9.83 2.13 9.65 2.58 9.47 3.04 9.28 3.48 9.08 3.91 8.89 4.32 8.65 4.73 8.43 5.14 8.18 5.51 7.92 5.88 7.64 6.24 7.36 6.58 7.05 6.91 6.73 7.22 6.39 7.52 6.04 7.81 5.68 8.07 5.31 8.32 4.91 8.57 4.51 8.79 4.09 9 3.67 9.21 3.24 9.4 2.78 9.6 2.33 9.78 1.87 9.95 1.38 10.13 0.88 10.33 0.38 -2.19 199.98 -20.45 -0.75 -20.23 -1.76 -19.97 -2.77 -19.65 -3.74 -19.31 -4.69 -18.94 -5.61 -18.53 -6.51 -18.11 -7.38 -17.63 -8.21 -17.16 -9.03 -16.64 -9.82 -16.1 -10.57 -15.54 -11.31 -14.96 -12.02 -14.36 -12.71 -13.73 -13.37 -13.08 -14.01 -12.4 -14.62 -11.71 -15.22 -10.98 -15.78 -10.24 -16.33 -9.47 -16.86 -8.67 -17.36 -7.84 -17.82 -7 -18.27 -6.11 -18.7 -5.21 -19.08 -4.27 -19.44 -3.32 -19.76 -2.34 -20.05 -1.32 -20.3 -0.3 -20.5z"/>
  </g>
  <g>
   <path class="fil1" d="M16896.98 14207.01l0 0 20.46 0.46 20.25 1.49 20 2.49 19.71 3.48 19.37 4.42 19.02 5.35 18.62 6.26 18.2 7.12 17.75 7.98 17.28 8.79 16.78 9.59 16.24 10.35 15.7 11.1 15.12 11.81 14.54 12.51 13.91 13.18 13.27 13.83 12.6 14.45 11.92 15.05 11.2 15.64 10.46 16.19 9.7 16.73 8.91 17.24 8.08 17.71 7.25 18.17 6.37 18.61 5.47 19.01 4.54 19.38 3.59 19.72 2.61 20.02 1.6 20.28 0.58 20.49 -200 0.55 -0.29 -10.37 -0.81 -10.17 -1.3 -9.98 -1.79 -9.81 -2.25 -9.62 -2.72 -9.44 -3.16 -9.24 -3.61 -9.03 -4.03 -8.83 -4.44 -8.6 -4.85 -8.35 -5.24 -8.12 -5.62 -7.84 -5.99 -7.56 -6.34 -7.28 -6.68 -6.96 -7 -6.63 -7.3 -6.29 -7.61 -5.94 -7.88 -5.57 -8.15 -5.2 -8.39 -4.79 -8.62 -4.39 -8.85 -3.98 -9.05 -3.54 -9.26 -3.11 -9.44 -2.66 -9.62 -2.2 -9.81 -1.73 -9.97 -1.24 -10.14 -0.75 -10.34 -0.23 0 0 -0.55 -200zm-398.9 401.1l0 0 0.47 -20.49 1.49 -20.29 2.49 -20.04 3.49 -19.73 4.43 -19.41 5.37 -19.04 6.27 -18.64 7.14 -18.21 7.99 -17.76 8.81 -17.29 9.61 -16.78 10.37 -16.25 11.12 -15.69 11.83 -15.12 12.52 -14.52 13.19 -13.9 13.84 -13.26 14.47 -12.59 15.06 -11.9 15.63 -11.18 16.19 -10.44 16.73 -9.68 17.22 -8.89 17.71 -8.07 18.16 -7.23 18.59 -6.35 18.99 -5.46 19.35 -4.53 19.68 -3.58 19.99 -2.6 20.25 -1.6 20.45 -0.58 0.55 200 -10.34 0.29 -10.14 0.8 -9.96 1.3 -9.79 1.78 -9.62 2.26 -9.42 2.71 -9.24 3.15 -9.04 3.6 -8.82 4.02 -8.6 4.44 -8.36 4.84 -8.12 5.24 -7.85 5.62 -7.57 5.98 -7.27 6.33 -6.97 6.67 -6.64 6.99 -6.3 7.31 -5.95 7.6 -5.57 7.87 -5.2 8.15 -4.8 8.38 -4.4 8.62 -3.98 8.85 -3.55 9.06 -3.12 9.25 -2.66 9.45 -2.21 9.64 -1.73 9.81 -1.24 10 -0.75 10.17 -0.24 10.37 0 0 -200 0.55zm401.1 398.9l0 0 -20.46 -0.46 -20.25 -1.49 -20 -2.49 -19.71 -3.48 -19.37 -4.42 -19.02 -5.35 -18.62 -6.26 -18.2 -7.12 -17.75 -7.98 -17.28 -8.79 -16.78 -9.59 -16.24 -10.35 -15.7 -11.1 -15.12 -11.81 -14.54 -12.51 -13.91 -13.18 -13.27 -13.83 -12.6 -14.45 -11.92 -15.05 -11.2 -15.64 -10.46 -16.19 -9.7 -16.73 -8.91 -17.24 -8.08 -17.71 -7.25 -18.17 -6.37 -18.61 -5.47 -19.01 -4.54 -19.38 -3.59 -19.72 -2.61 -20.02 -1.6 -20.28 -0.58 -20.49 200 -0.55 0.29 10.37 0.81 10.17 1.3 9.98 1.79 9.81 2.25 9.62 2.72 9.44 3.16 9.24 3.61 9.03 4.03 8.83 4.44 8.6 4.85 8.35 5.24 8.12 5.62 7.84 5.99 7.56 6.34 7.28 6.68 6.96 7 6.63 7.3 6.29 7.61 5.94 7.88 5.57 8.15 5.2 8.39 4.79 8.62 4.39 8.85 3.98 9.05 3.54 9.26 3.11 9.44 2.66 9.62 2.2 9.81 1.73 9.97 1.24 10.14 0.75 10.34 0.23 0 0 0.55 200zm398.9 -401.1l-0.47 20.49 -1.49 20.29 -2.49 20.04 -3.49 19.73 -4.43 19.41 -5.37 19.04 -6.27 18.64 -7.14 18.21 -7.99 17.76 -8.81 17.29 -9.61 16.78 -10.37 16.25 -11.12 15.69 -11.83 15.12 -12.52 14.52 -13.19 13.9 -13.84 13.26 -14.47 12.59 -15.06 11.9 -15.63 11.18 -16.19 10.44 -16.73 9.68 -17.22 8.89 -17.71 8.07 -18.16 7.23 -18.59 6.35 -18.99 5.46 -19.35 4.53 -19.68 3.58 -19.99 2.6 -20.25 1.6 -20.45 0.58 -0.55 -200 10.34 -0.29 10.14 -0.8 9.96 -1.3 9.79 -1.78 9.62 -2.26 9.42 -2.71 9.24 -3.15 9.04 -3.6 8.82 -4.02 8.6 -4.44 8.36 -4.84 8.12 -5.24 7.85 -5.62 7.57 -5.98 7.27 -6.33 6.97 -6.67 6.64 -6.99 6.3 -7.31 5.95 -7.6 5.57 -7.87 5.2 -8.15 4.8 -8.38 4.4 -8.62 3.98 -8.85 3.55 -9.06 3.12 -9.25 2.66 -9.45 2.21 -9.64 1.73 -9.81 1.24 -10 0.75 -10.17 0.24 -10.37 200 -0.55zm4619.38 87.29l-4742.72 13.06 -0.54 -200 4742.72 -13.06 0.54 200zm275.02 -500.75l0.55 200 0 0 -10.34 0.29 -10.14 0.8 -9.96 1.3 -9.79 1.78 -9.62 2.26 -9.42 2.71 -9.24 3.15 -9.04 3.6 -8.82 4.02 -8.6 4.44 -8.36 4.84 -8.12 5.24 -7.85 5.62 -7.57 5.98 -7.27 6.33 -6.97 6.67 -6.64 6.99 -6.3 7.31 -5.95 7.6 -5.57 7.87 -5.2 8.15 -4.8 8.38 -4.4 8.62 -3.98 8.85 -3.55 9.06 -3.12 9.25 -2.66 9.45 -2.21 9.64 -1.73 9.81 -1.24 10 -0.75 10.17 -0.24 10.37 -200 0.55 0.47 -20.49 1.49 -20.29 2.49 -20.04 3.49 -19.73 4.43 -19.41 5.37 -19.04 6.27 -18.64 7.14 -18.22 7.99 -17.75 8.81 -17.29 9.61 -16.78 10.37 -16.25 11.12 -15.69 11.83 -15.12 12.52 -14.52 13.19 -13.9 13.84 -13.26 14.47 -12.59 15.06 -11.9 15.63 -11.18 16.19 -10.44 16.73 -9.68 17.22 -8.89 17.71 -8.07 18.16 -7.23 18.59 -6.35 18.99 -5.46 19.35 -4.53 19.68 -3.58 19.99 -2.6 20.25 -1.6 20.45 -0.58 0 0zm401.1 398.9l-200 0.55 0 0 -0.29 -10.37 -0.81 -10.17 -1.3 -9.98 -1.79 -9.81 -2.25 -9.62 -2.72 -9.44 -3.16 -9.24 -3.61 -9.03 -4.03 -8.83 -4.44 -8.6 -4.85 -8.35 -5.24 -8.12 -5.62 -7.84 -5.99 -7.56 -6.34 -7.28 -6.68 -6.96 -7 -6.63 -7.3 -6.29 -7.61 -5.94 -7.88 -5.57 -8.15 -5.19 -8.39 -4.8 -8.62 -4.39 -8.85 -3.98 -9.05 -3.54 -9.26 -3.11 -9.43 -2.66 -9.63 -2.2 -9.81 -1.73 -9.97 -1.24 -10.14 -0.75 -10.34 -0.23 -0.55 -200 20.46 0.46 20.25 1.49 20.01 2.49 19.7 3.48 19.37 4.42 19.02 5.35 18.62 6.26 18.2 7.12 17.75 7.98 17.28 8.79 16.78 9.59 16.24 10.35 15.7 11.1 15.12 11.81 14.54 12.51 13.91 13.18 13.27 13.83 12.6 14.45 11.92 15.05 11.2 15.64 10.46 16.19 9.7 16.73 8.91 17.24 8.08 17.71 7.25 18.17 6.37 18.61 5.47 19.01 4.54 19.38 3.59 19.72 2.61 20.02 1.6 20.28 0.58 20.49 0 0zm-398.9 401.1l-0.55 -200 0 0 10.34 -0.29 10.14 -0.8 9.96 -1.3 9.79 -1.78 9.62 -2.26 9.42 -2.71 9.24 -3.15 9.04 -3.6 8.82 -4.02 8.6 -4.44 8.36 -4.84 8.12 -5.24 7.85 -5.62 7.57 -5.98 7.27 -6.33 6.97 -6.67 6.64 -6.99 6.3 -7.31 5.95 -7.6 5.57 -7.87 5.2 -8.15 4.8 -8.38 4.4 -8.62 3.98 -8.85 3.55 -9.06 3.12 -9.25 2.66 -9.45 2.21 -9.64 1.73 -9.81 1.24 -10 0.75 -10.17 0.24 -10.37 200 -0.55 -0.47 20.49 -1.49 20.29 -2.49 20.04 -3.49 19.73 -4.43 19.41 -5.37 19.04 -6.27 18.64 -7.14 18.22 -7.99 17.75 -8.81 17.29 -9.61 16.78 -10.37 16.25 -11.12 15.69 -11.83 15.12 -12.52 14.52 -13.19 13.9 -13.84 13.26 -14.47 12.59 -15.06 11.9 -15.63 11.18 -16.19 10.44 -16.73 9.68 -17.22 8.89 -17.71 8.07 -18.16 7.23 -18.59 6.35 -18.99 5.46 -19.35 4.53 -19.68 3.58 -19.99 2.6 -20.25 1.6 -20.45 0.58 0 0zm-401.1 -398.9l200 -0.55 0.29 10.37 0.81 10.17 1.3 9.98 1.79 9.81 2.25 9.62 2.72 9.44 3.16 9.24 3.61 9.03 4.03 8.83 4.44 8.6 4.85 8.35 5.24 8.12 5.62 7.84 5.99 7.56 6.34 7.28 6.68 6.96 7 6.63 7.3 6.29 7.61 5.94 7.88 5.57 8.15 5.19 8.39 4.8 8.62 4.39 8.85 3.98 9.05 3.54 9.26 3.11 9.43 2.66 9.63 2.2 9.81 1.73 9.97 1.24 10.14 0.75 10.34 0.23 0.55 200 -20.46 -0.46 -20.25 -1.49 -20.01 -2.49 -19.7 -3.48 -19.37 -4.42 -19.02 -5.35 -18.62 -6.26 -18.2 -7.12 -17.75 -7.98 -17.28 -8.79 -16.78 -9.59 -16.24 -10.35 -15.7 -11.1 -15.12 -11.81 -14.54 -12.51 -13.91 -13.18 -13.27 -13.83 -12.6 -14.45 -11.92 -15.05 -11.2 -15.64 -10.46 -16.19 -9.7 -16.73 -8.91 -17.24 -8.08 -17.71 -7.25 -18.17 -6.37 -18.61 -5.47 -19.01 -4.54 -19.38 -3.59 -19.72 -2.61 -20.02 -1.6 -20.28 -0.58 -20.49z"/>
  </g>
  <g>
   <path class="fil1" d="M22754.46 12518.67l0 0 -20.46 -0.55 -20.25 -1.56 -19.99 -2.58 -19.69 -3.55 -19.35 -4.5 -19 -5.43 -18.6 -6.33 -18.17 -7.2 -17.72 -8.04 -17.24 -8.86 -16.74 -9.66 -16.2 -10.41 -15.65 -11.16 -15.08 -11.88 -14.49 -12.57 -13.86 -13.23 -13.21 -13.89 -12.54 -14.49 -11.86 -15.11 -11.14 -15.68 -10.39 -16.23 -9.64 -16.76 -8.83 -17.28 -8.02 -17.74 -7.17 -18.21 -6.3 -18.63 -5.39 -19.03 -4.47 -19.4 -3.51 -19.73 -2.52 -20.03 -1.52 -20.29 -0.5 -20.49 200 0.25 0.25 10.37 0.77 10.17 1.26 9.99 1.74 9.82 2.22 9.63 2.68 9.44 3.13 9.25 3.56 9.05 4 8.85 4.41 8.61 4.81 8.38 5.21 8.14 5.59 7.86 5.96 7.59 6.31 7.3 6.65 6.98 6.98 6.66 7.28 6.32 7.58 5.97 7.86 5.61 8.12 5.22 8.37 4.83 8.61 4.43 8.83 4.01 9.04 3.58 9.24 3.14 9.43 2.7 9.62 2.24 9.79 1.76 9.97 1.29 10.14 0.79 10.34 0.27 0 0 -0.25 200zm400.5 -399.5l0 0 -0.55 20.5 -1.57 20.28 -2.58 20.02 -3.56 19.72 -4.51 19.39 -5.44 19.02 -6.35 18.62 -7.21 18.18 -8.06 17.73 -8.88 17.25 -9.68 16.74 -10.44 16.21 -11.18 15.65 -11.89 15.07 -12.58 14.47 -13.25 13.85 -13.89 13.2 -14.51 12.53 -15.11 11.84 -15.68 11.12 -16.23 10.38 -16.76 9.61 -17.27 8.82 -17.74 8 -18.19 7.15 -18.61 6.28 -19.01 5.38 -19.37 4.46 -19.69 3.5 -20 2.52 -20.26 1.52 -20.45 0.49 0.25 -200 10.34 -0.25 10.14 -0.76 9.97 -1.26 9.8 -1.74 9.62 -2.22 9.44 -2.67 9.25 -3.12 9.05 -3.56 8.84 -3.99 8.62 -4.4 8.38 -4.81 8.13 -5.2 7.88 -5.59 7.6 -5.95 7.29 -6.3 6.99 -6.64 6.67 -6.97 6.33 -7.28 5.98 -7.58 5.61 -7.85 5.23 -8.12 4.83 -8.37 4.43 -8.6 4.02 -8.83 3.59 -9.04 3.15 -9.25 2.7 -9.44 2.25 -9.62 1.77 -9.81 1.28 -9.99 0.79 -10.17 0.28 -10.37 0 0 200 0.25zm-399.5 -400.5l0 0 20.46 0.55 20.25 1.56 19.99 2.58 19.69 3.55 19.35 4.5 19 5.43 18.6 6.33 18.17 7.2 17.72 8.04 17.24 8.86 16.74 9.66 16.2 10.41 15.65 11.16 15.08 11.88 14.49 12.57 13.86 13.23 13.21 13.89 12.54 14.49 11.86 15.11 11.14 15.68 10.39 16.23 9.64 16.76 8.83 17.28 8.02 17.74 7.17 18.21 6.3 18.63 5.39 19.03 4.47 19.4 3.51 19.73 2.52 20.03 1.52 20.29 0.5 20.49 -200 -0.25 -0.25 -10.37 -0.77 -10.17 -1.26 -9.99 -1.74 -9.82 -2.22 -9.63 -2.68 -9.44 -3.13 -9.25 -3.56 -9.05 -4 -8.85 -4.41 -8.61 -4.81 -8.38 -5.21 -8.14 -5.59 -7.86 -5.96 -7.59 -6.31 -7.3 -6.65 -6.98 -6.98 -6.66 -7.28 -6.32 -7.58 -5.97 -7.86 -5.61 -8.12 -5.22 -8.37 -4.83 -8.61 -4.43 -8.83 -4.01 -9.04 -3.58 -9.24 -3.14 -9.43 -2.7 -9.62 -2.24 -9.79 -1.76 -9.97 -1.29 -10.14 -0.79 -10.34 -0.27 0 0 0.25 -200zm-400.5 399.5l0.55 -20.5 1.57 -20.28 2.58 -20.02 3.56 -19.72 4.51 -19.39 5.44 -19.02 6.35 -18.62 7.21 -18.18 8.06 -17.73 8.88 -17.25 9.68 -16.74 10.44 -16.21 11.18 -15.65 11.89 -15.07 12.58 -14.47 13.25 -13.85 13.89 -13.2 14.51 -12.53 15.11 -11.84 15.68 -11.12 16.23 -10.38 16.76 -9.61 17.27 -8.82 17.74 -8 18.19 -7.15 18.61 -6.28 19.01 -5.38 19.37 -4.46 19.69 -3.5 20 -2.52 20.26 -1.52 20.45 -0.49 -0.25 200 -10.34 0.25 -10.14 0.76 -9.97 1.26 -9.8 1.74 -9.62 2.22 -9.44 2.67 -9.25 3.12 -9.05 3.56 -8.84 3.99 -8.62 4.4 -8.38 4.81 -8.13 5.2 -7.88 5.59 -7.6 5.95 -7.29 6.3 -6.99 6.64 -6.67 6.97 -6.33 7.28 -5.98 7.58 -5.61 7.85 -5.23 8.12 -4.83 8.37 -4.43 8.6 -4.02 8.83 -3.59 9.04 -3.15 9.25 -2.7 9.44 -2.25 9.62 -1.77 9.81 -1.28 9.99 -0.79 10.17 -0.28 10.37 -200 -0.25zm-3773.32 -16.04l121.76 -158.66 -57.5 -20.61 8 0.27 23.5 0.79 38.16 1.26 52.02 1.72 65.01 2.14 77.19 2.51 88.56 2.87 99.07 3.17 108.78 3.45 117.64 3.7 125.7 3.91 132.9 4.08 139.28 4.22 144.84 4.32 149.57 4.4 153.48 4.44 156.55 4.44 158.78 4.42 160.2 4.34 160.8 4.24 160.55 4.12 159.47 3.95 157.57 3.75 154.84 3.5 151.27 3.24 146.88 2.93 141.66 2.6 135.59 2.22 128.68 1.81 120.96 1.37 112.37 0.9 102.93 0.39 -0.26 200 -103.87 -0.39 -113.11 -0.9 -121.56 -1.39 -129.2 -1.81 -136.01 -2.24 -142 -2.6 -147.2 -2.93 -151.53 -3.24 -155.08 -3.52 -157.79 -3.75 -159.65 -3.95 -160.71 -4.12 -160.94 -4.26 -160.34 -4.34 -158.92 -4.42 -156.65 -4.44 -153.58 -4.44 -149.67 -4.4 -144.94 -4.34 -139.36 -4.22 -132.98 -4.08 -125.76 -3.91 -117.72 -3.7 -108.82 -3.45 -99.15 -3.17 -88.6 -2.87 -77.25 -2.51 -65.07 -2.14 -52.04 -1.72 -38.22 -1.28 -23.54 -0.79 -8.04 -0.27 -57.5 -20.61zm57.5 20.61l-32.06 -1.08 -25.44 -19.53 57.5 20.61zm-2895.17 -1363.63l27.5 -198.1 86.93 13.03 87.23 15 87.54 16.97 87.84 18.92 88.14 20.89 88.45 22.85 88.74 24.8 89.05 26.75 89.34 28.7 89.64 30.66 89.94 32.59 90.25 34.55 90.54 36.48 90.85 38.43 91.14 40.36 91.45 42.3 91.75 44.24 92.05 46.16 92.35 48.11 92.65 50.03 92.97 51.95 93.27 53.9 93.58 55.81 93.89 57.75 94.2 59.66 94.52 61.6 94.81 63.53 95.13 65.43 95.46 67.37 95.76 69.29 96.08 71.22 96.39 73.13 -121.76 158.66 -94.63 -71.79 -94.26 -69.86 -93.88 -67.93 -93.5 -65.99 -93.13 -64.07 -92.75 -62.13 -92.36 -60.2 -91.98 -58.26 -91.61 -56.35 -91.22 -54.41 -90.83 -52.48 -90.45 -50.55 -90.07 -48.63 -89.67 -46.71 -89.29 -44.78 -88.89 -42.86 -88.51 -40.94 -88.12 -39.02 -87.73 -37.11 -87.34 -35.2 -86.93 -33.27 -86.56 -31.37 -86.16 -29.46 -85.76 -27.56 -85.37 -25.65 -84.98 -23.74 -84.59 -21.85 -84.2 -19.95 -83.8 -18.06 -83.42 -16.17 -83.03 -14.28 -82.65 -12.39zm-315.03 259.14l27.5 -198.1 0 0 10.28 1.16 10.15 0.63 10.05 0.11 9.95 -0.39 9.83 -0.88 9.71 -1.36 9.59 -1.83 9.45 -2.3 9.3 -2.74 9.14 -3.19 8.96 -3.62 8.77 -4.05 8.56 -4.46 8.34 -4.86 8.09 -5.24 7.83 -5.63 7.55 -6 7.27 -6.35 6.95 -6.69 6.63 -7.01 6.29 -7.34 5.93 -7.62 5.56 -7.92 5.18 -8.21 4.79 -8.46 4.38 -8.73 3.96 -8.99 3.54 -9.23 3.09 -9.47 2.63 -9.72 2.17 -9.97 1.69 -10.23 198.1 27.5 -3.34 20.23 -4.32 19.88 -5.28 19.49 -6.22 19.05 -7.11 18.59 -7.98 18.1 -8.82 17.58 -9.63 17.03 -10.4 16.46 -11.15 15.88 -11.87 15.27 -12.55 14.63 -13.2 13.98 -13.84 13.31 -14.43 12.62 -15.02 11.91 -15.56 11.19 -16.09 10.44 -16.58 9.66 -17.04 8.88 -17.5 8.07 -17.92 7.24 -18.3 6.38 -18.66 5.51 -19 4.61 -19.29 3.69 -19.57 2.74 -19.79 1.77 -19.99 0.78 -20.16 -0.23 -20.27 -1.25 -20.33 -2.3 0 0zm-341.19 -451.21l198.1 27.5 0 0 -1.16 10.31 -0.63 10.18 -0.12 10.07 0.4 9.96 0.88 9.85 1.37 9.72 1.84 9.59 2.3 9.45 2.75 9.31 3.19 9.13 3.63 8.96 4.05 8.77 4.47 8.55 4.86 8.33 5.26 8.09 5.64 7.83 6 7.55 6.35 7.25 6.7 6.95 7.02 6.62 7.34 6.28 7.63 5.93 7.93 5.55 8.2 5.18 8.46 4.78 8.73 4.38 8.97 3.95 9.23 3.53 9.46 3.09 9.7 2.63 9.94 2.16 10.2 1.68 -27.5 198.1 -20.19 -3.33 -19.85 -4.31 -19.45 -5.28 -19.03 -6.2 -18.56 -7.09 -18.08 -7.97 -17.56 -8.81 -17.02 -9.6 -16.46 -10.39 -15.87 -11.13 -15.26 -11.84 -14.64 -12.53 -13.98 -13.19 -13.32 -13.82 -12.64 -14.43 -11.92 -15 -11.2 -15.55 -10.45 -16.07 -9.69 -16.58 -8.9 -17.05 -8.08 -17.5 -7.26 -17.92 -6.4 -18.32 -5.53 -18.67 -4.62 -19.01 -3.7 -19.32 -2.75 -19.59 -1.78 -19.83 -0.79 -20.02 0.23 -20.19 1.26 -20.3 2.3 -20.37 0 0zm451.21 -341.19l-27.5 198.1 0 0 -10.28 -1.16 -10.15 -0.63 -10.05 -0.11 -9.95 0.39 -9.83 0.88 -9.71 1.36 -9.59 1.83 -9.45 2.3 -9.3 2.74 -9.14 3.19 -8.96 3.62 -8.77 4.05 -8.56 4.46 -8.34 4.86 -8.09 5.24 -7.83 5.63 -7.55 6 -7.27 6.35 -6.95 6.69 -6.63 7.01 -6.29 7.34 -5.93 7.62 -5.56 7.92 -5.18 8.21 -4.79 8.46 -4.38 8.73 -3.96 8.99 -3.54 9.23 -3.09 9.47 -2.63 9.72 -2.17 9.97 -1.69 10.23 -198.1 -27.5 3.34 -20.23 4.32 -19.88 5.28 -19.49 6.22 -19.05 7.11 -18.59 7.98 -18.1 8.82 -17.58 9.63 -17.03 10.4 -16.46 11.15 -15.88 11.87 -15.27 12.55 -14.63 13.2 -13.98 13.84 -13.31 14.43 -12.62 15.02 -11.91 15.56 -11.19 16.09 -10.44 16.58 -9.66 17.04 -8.88 17.5 -8.07 17.92 -7.24 18.3 -6.38 18.66 -5.51 19 -4.61 19.29 -3.69 19.57 -2.74 19.79 -1.77 19.99 -0.78 20.16 0.23 20.27 1.25 20.33 2.3 0 0zm341.19 451.21l-198.1 -27.5 1.16 -10.31 0.63 -10.18 0.12 -10.07 -0.4 -9.96 -0.88 -9.85 -1.37 -9.72 -1.84 -9.59 -2.3 -9.45 -2.75 -9.31 -3.19 -9.13 -3.63 -8.96 -4.05 -8.77 -4.47 -8.55 -4.86 -8.33 -5.26 -8.09 -5.64 -7.83 -6 -7.55 -6.35 -7.25 -6.7 -6.95 -7.02 -6.62 -7.34 -6.28 -7.63 -5.93 -7.93 -5.55 -8.2 -5.18 -8.46 -4.78 -8.73 -4.38 -8.97 -3.95 -9.23 -3.53 -9.46 -3.09 -9.7 -2.63 -9.94 -2.16 -10.2 -1.68 27.5 -198.1 20.19 3.33 19.85 4.31 19.45 5.28 19.03 6.2 18.56 7.09 18.08 7.97 17.56 8.81 17.02 9.6 16.46 10.39 15.87 11.13 15.26 11.84 14.64 12.53 13.98 13.19 13.32 13.82 12.64 14.43 11.92 15 11.2 15.55 10.45 16.07 9.69 16.58 8.9 17.05 8.08 17.5 7.26 17.92 6.4 18.32 5.53 18.67 4.62 19.01 3.7 19.32 2.75 19.59 1.78 19.83 0.79 20.02 -0.23 20.19 -1.26 20.3 -2.3 20.37z"/>
  </g>
  <g>
   <path class="fil1" d="M23034.92 12953.7l0 0 -5.1 14.47 -5.8 14.09 -6.44 13.67 -7.08 13.23 -7.68 12.77 -8.26 12.31 -8.8 11.81 -9.33 11.3 -9.83 10.79 -10.3 10.26 -10.75 9.71 -11.18 9.16 -11.57 8.6 -11.95 8.02 -12.32 7.43 -12.64 6.84 -12.95 6.22 -13.24 5.61 -13.51 4.97 -13.76 4.34 -13.98 3.67 -14.19 3 -14.37 2.33 -14.51 1.62 -14.64 0.92 -14.75 0.19 -14.83 -0.54 -14.87 -1.29 -14.89 -2.05 -14.87 -2.82 -14.83 -3.59 -14.74 -4.38 46.32 -142.65 7.46 2.21 7.44 1.8 7.42 1.41 7.4 1.02 7.39 0.63 7.36 0.27 7.32 -0.09 7.28 -0.46 7.23 -0.81 7.17 -1.16 7.09 -1.5 7 -1.84 6.9 -2.18 6.79 -2.5 6.67 -2.82 6.52 -3.13 6.36 -3.44 6.19 -3.74 6.01 -4.03 5.81 -4.32 5.6 -4.59 5.38 -4.86 5.14 -5.12 4.9 -5.37 4.65 -5.63 4.37 -5.87 4.1 -6.1 3.82 -6.35 3.52 -6.58 3.21 -6.82 2.91 -7.05 2.58 -7.31 0 0 142.65 46.32zm-192.66 -377.96l0 0 14.5 5.11 14.11 5.81 13.69 6.46 13.25 7.09 12.79 7.69 12.32 8.27 11.82 8.82 11.31 9.35 10.79 9.84 10.26 10.32 9.72 10.77 9.15 11.18 8.59 11.59 8.01 11.96 7.42 12.32 6.83 12.65 6.22 12.96 5.59 13.25 4.96 13.51 4.32 13.75 3.66 13.98 2.99 14.18 2.31 14.35 1.61 14.5 0.91 14.63 0.19 14.74 -0.55 14.8 -1.29 14.85 -2.04 14.86 -2.82 14.86 -3.59 14.8 -4.37 14.71 -142.65 -46.32 2.2 -7.44 1.8 -7.41 1.4 -7.41 1.02 -7.39 0.64 -7.38 0.27 -7.35 -0.09 -7.32 -0.45 -7.28 -0.81 -7.23 -1.15 -7.16 -1.5 -7.09 -1.84 -7.01 -2.16 -6.91 -2.5 -6.79 -2.81 -6.66 -3.13 -6.52 -3.43 -6.37 -3.74 -6.2 -4.02 -6.01 -4.31 -5.81 -4.59 -5.61 -4.85 -5.38 -5.12 -5.15 -5.38 -4.9 -5.62 -4.65 -5.87 -4.38 -6.11 -4.11 -6.35 -3.82 -6.6 -3.52 -6.82 -3.23 -7.08 -2.91 -7.33 -2.59 0 0 46.32 -142.65zm-377.96 192.66l0 0 5.1 -14.47 5.8 -14.09 6.44 -13.67 7.08 -13.23 7.68 -12.77 8.26 -12.31 8.8 -11.81 9.33 -11.3 9.83 -10.79 10.3 -10.26 10.75 -9.71 11.18 -9.16 11.57 -8.6 11.95 -8.02 12.32 -7.43 12.64 -6.84 12.95 -6.22 13.24 -5.61 13.51 -4.97 13.76 -4.34 13.98 -3.67 14.19 -3 14.37 -2.33 14.51 -1.62 14.64 -0.92 14.75 -0.19 14.83 0.54 14.87 1.29 14.89 2.05 14.87 2.82 14.83 3.59 14.74 4.38 -46.32 142.65 -7.46 -2.21 -7.44 -1.8 -7.42 -1.41 -7.4 -1.02 -7.39 -0.63 -7.36 -0.27 -7.32 0.09 -7.28 0.46 -7.23 0.81 -7.17 1.16 -7.09 1.5 -7 1.84 -6.9 2.18 -6.79 2.5 -6.67 2.82 -6.52 3.13 -6.36 3.44 -6.19 3.74 -6.01 4.03 -5.81 4.32 -5.6 4.59 -5.38 4.86 -5.14 5.12 -4.9 5.37 -4.65 5.63 -4.37 5.87 -4.1 6.1 -3.82 6.35 -3.52 6.58 -3.21 6.82 -2.91 7.05 -2.58 7.31 0 0 -142.65 -46.32zm192.66 377.96l-14.5 -5.11 -14.11 -5.81 -13.69 -6.46 -13.25 -7.09 -12.79 -7.69 -12.32 -8.27 -11.82 -8.82 -11.31 -9.35 -10.79 -9.84 -10.26 -10.32 -9.72 -10.77 -9.15 -11.18 -8.59 -11.59 -8.01 -11.96 -7.42 -12.32 -6.83 -12.65 -6.22 -12.96 -5.59 -13.25 -4.96 -13.51 -4.32 -13.75 -3.66 -13.98 -2.99 -14.18 -2.31 -14.35 -1.61 -14.5 -0.91 -14.63 -0.19 -14.74 0.55 -14.8 1.29 -14.85 2.04 -14.86 2.82 -14.86 3.59 -14.8 4.37 -14.71 142.65 46.32 -2.2 7.44 -1.8 7.41 -1.4 7.41 -1.02 7.39 -0.64 7.38 -0.27 7.35 0.09 7.32 0.45 7.28 0.81 7.23 1.15 7.16 1.5 7.09 1.84 7.01 2.16 6.91 2.5 6.79 2.81 6.66 3.13 6.52 3.43 6.37 3.74 6.2 4.02 6.01 4.31 5.81 4.59 5.61 4.85 5.38 5.12 5.15 5.38 4.9 5.62 4.65 5.87 4.38 6.11 4.11 6.35 3.82 6.6 3.52 6.82 3.23 7.08 2.91 7.33 2.59 -46.32 142.65zm-8122.2 -1028.02l65.36 -135.02 449.09 214.56 436.39 202.7 423.68 190.85 410.95 179.01 398.23 167.16 385.49 155.3 372.76 143.46 359.99 131.61 347.23 119.75 334.44 107.92 321.63 96.07 308.8 84.24 295.97 72.39 283.07 60.59 270.17 48.78 257.22 36.99 244.22 25.25 231.18 13.52 218.1 1.87 204.97 -9.72 191.81 -21.22 178.62 -32.59 165.46 -43.84 152.36 -54.94 139.4 -65.9 126.65 -76.77 114.19 -87.66 102 -98.61 90.09 -109.79 78.35 -121.24 66.67 -133 54.96 -145.02 142.66 46.32 -60.2 158.84 -73.81 147.2 -87.43 135.28 -100.99 123.07 -114.38 110.59 -127.51 97.88 -140.33 85.09 -152.9 72.3 -165.24 59.6 -177.46 47.02 -189.58 34.61 -201.71 22.32 -213.85 10.16 -226.02 -1.93 -238.24 -13.94 -250.52 -25.89 -262.82 -37.79 -275.17 -49.68 -287.57 -61.55 -299.99 -73.39 -312.44 -85.22 -324.93 -97.05 -337.42 -108.88 -349.95 -120.69 -362.47 -132.51 -375.02 -144.34 -387.59 -156.14 -400.15 -167.96 -412.73 -179.79 -425.32 -191.59 -437.91 -203.42 -450.51 -215.22zm-284.64 112.2l65.37 -135.02 0 0 7.06 3.2 7.1 2.8 7.15 2.39 7.19 2.02 7.22 1.64 7.24 1.27 7.27 0.91 7.27 0.55 7.27 0.18 7.26 -0.16 7.23 -0.52 7.19 -0.86 7.14 -1.21 7.07 -1.54 6.99 -1.88 6.88 -2.21 6.78 -2.53 6.65 -2.86 6.51 -3.17 6.34 -3.47 6.19 -3.78 5.99 -4.08 5.79 -4.36 5.6 -4.66 5.37 -4.94 5.14 -5.22 4.9 -5.49 4.66 -5.77 4.39 -6.05 4.13 -6.33 3.85 -6.61 3.56 -6.92 135.02 65.37 -7.05 13.66 -7.67 13.19 -8.27 12.69 -8.83 12.16 -9.37 11.62 -9.88 11.07 -10.35 10.51 -10.8 9.94 -11.22 9.34 -11.63 8.76 -11.99 8.16 -12.33 7.54 -12.66 6.93 -12.94 6.31 -13.22 5.67 -13.46 5.03 -13.69 4.39 -13.89 3.74 -14.06 3.07 -14.22 2.4 -14.35 1.72 -14.45 1.03 -14.54 0.33 -14.59 -0.38 -14.62 -1.09 -14.62 -1.83 -14.6 -2.56 -14.53 -3.31 -14.45 -4.05 -14.33 -4.82 -14.18 -5.57 -13.98 -6.34 0 0zm-139.31 -400.77l135.02 65.37 0 0 -3.21 7.08 -2.8 7.13 -2.41 7.15 -2.01 7.2 -1.65 7.23 -1.26 7.26 -0.91 7.27 -0.54 7.27 -0.18 7.28 0.17 7.25 0.52 7.23 0.87 7.2 1.21 7.13 1.55 7.07 1.88 6.99 2.22 6.88 2.54 6.78 2.86 6.64 3.17 6.5 3.49 6.35 3.78 6.18 4.08 5.99 4.37 5.79 4.66 5.59 4.94 5.37 5.22 5.13 5.49 4.9 5.77 4.65 6.04 4.38 6.31 4.12 6.59 3.84 6.9 3.55 -65.37 135.02 -13.63 -7.03 -13.17 -7.66 -12.67 -8.26 -12.14 -8.81 -11.61 -9.35 -11.06 -9.86 -10.5 -10.34 -9.93 -10.79 -9.35 -11.21 -8.76 -11.6 -8.16 -11.98 -7.55 -12.32 -6.93 -12.64 -6.32 -12.94 -5.68 -13.21 -5.05 -13.46 -4.4 -13.69 -3.75 -13.88 -3.08 -14.06 -2.42 -14.23 -1.73 -14.35 -1.04 -14.46 -0.34 -14.56 0.37 -14.6 1.09 -14.63 1.82 -14.64 2.56 -14.61 3.31 -14.56 4.05 -14.47 4.83 -14.36 5.58 -14.2 6.35 -14.01 0 0zm400.77 -139.31l-65.37 135.02 0 0 -7.06 -3.2 -7.1 -2.8 -7.15 -2.39 -7.19 -2.02 -7.22 -1.64 -7.24 -1.27 -7.27 -0.91 -7.27 -0.55 -7.27 -0.18 -7.26 0.16 -7.23 0.52 -7.19 0.86 -7.14 1.21 -7.07 1.54 -6.99 1.88 -6.88 2.21 -6.78 2.53 -6.65 2.86 -6.51 3.17 -6.34 3.47 -6.19 3.78 -5.99 4.08 -5.79 4.36 -5.6 4.66 -5.37 4.94 -5.14 5.22 -4.9 5.49 -4.66 5.77 -4.39 6.05 -4.13 6.33 -3.85 6.61 -3.56 6.92 -135.02 -65.37 7.05 -13.66 7.67 -13.19 8.27 -12.69 8.83 -12.16 9.37 -11.62 9.88 -11.07 10.35 -10.51 10.8 -9.94 11.22 -9.34 11.63 -8.76 11.99 -8.16 12.33 -7.54 12.66 -6.93 12.94 -6.31 13.22 -5.67 13.46 -5.03 13.69 -4.39 13.89 -3.74 14.06 -3.07 14.22 -2.4 14.35 -1.72 14.45 -1.03 14.54 -0.33 14.59 0.38 14.62 1.09 14.62 1.83 14.6 2.56 14.53 3.31 14.45 4.05 14.33 4.82 14.18 5.57 13.98 6.34 0 0zm139.31 400.77l-135.02 -65.37 3.21 -7.08 2.8 -7.13 2.41 -7.15 2.01 -7.2 1.65 -7.23 1.26 -7.26 0.91 -7.27 0.54 -7.27 0.18 -7.28 -0.17 -7.25 -0.52 -7.23 -0.87 -7.2 -1.21 -7.13 -1.55 -7.07 -1.88 -6.99 -2.22 -6.88 -2.54 -6.78 -2.86 -6.64 -3.17 -6.5 -3.49 -6.35 -3.78 -6.18 -4.08 -5.99 -4.37 -5.79 -4.66 -5.59 -4.94 -5.37 -5.22 -5.13 -5.49 -4.9 -5.77 -4.65 -6.04 -4.38 -6.31 -4.12 -6.59 -3.84 -6.9 -3.55 65.37 -135.02 13.63 7.03 13.17 7.66 12.67 8.26 12.14 8.81 11.61 9.35 11.06 9.86 10.5 10.34 9.93 10.79 9.35 11.21 8.76 11.6 8.16 11.98 7.55 12.32 6.93 12.64 6.32 12.94 5.68 13.21 5.05 13.46 4.4 13.69 3.75 13.88 3.08 14.06 2.42 14.23 1.73 14.35 1.04 14.46 0.34 14.56 -0.37 14.6 -1.09 14.63 -1.82 14.64 -2.56 14.61 -3.31 14.56 -4.05 14.47 -4.83 14.36 -5.58 14.2 -6.35 14.01z"/>
  </g>
  <g>
   <path class="fil1" d="M15852.03 8959.33l0 0 -12.3 -16.35 -11.37 -16.83 -10.43 -17.25 -9.47 -17.63 -8.52 -17.95 -7.56 -18.25 -6.62 -18.5 -5.67 -18.71 -4.73 -18.88 -3.79 -19.01 -2.85 -19.11 -1.93 -19.17 -1 -19.2 -0.09 -19.19 0.83 -19.16 1.74 -19.09 2.65 -18.98 3.55 -18.84 4.44 -18.68 5.35 -18.48 6.24 -18.23 7.13 -17.98 8.02 -17.67 8.91 -17.31 9.79 -16.94 10.67 -16.53 11.54 -16.06 12.41 -15.57 13.27 -15.02 14.11 -14.44 14.93 -13.82 15.74 -13.14 124.24 156.74 -7.96 6.65 -7.49 6.93 -7.03 7.2 -6.6 7.48 -6.16 7.72 -5.73 7.98 -5.3 8.2 -4.86 8.43 -4.44 8.63 -4 8.81 -3.57 8.98 -3.12 9.14 -2.68 9.27 -2.24 9.39 -1.78 9.48 -1.33 9.56 -0.88 9.6 -0.42 9.63 0.05 9.65 0.5 9.64 0.96 9.61 1.43 9.56 1.89 9.49 2.36 9.41 2.82 9.31 3.28 9.19 3.76 9.06 4.23 8.92 4.71 8.77 5.2 8.6 5.69 8.43 6.22 8.27 0 0 -156.74 124.24zm561.97 64.99l0 0 -16.38 12.32 -16.86 11.39 -17.28 10.44 -17.66 9.48 -17.98 8.53 -18.28 7.58 -18.52 6.61 -18.73 5.67 -18.89 4.72 -19.04 3.78 -19.12 2.84 -19.18 1.91 -19.21 0.99 -19.2 0.07 -19.16 -0.85 -19.08 -1.76 -18.98 -2.66 -18.85 -3.56 -18.67 -4.47 -18.46 -5.35 -18.22 -6.26 -17.96 -7.14 -17.64 -8.03 -17.3 -8.91 -16.92 -9.79 -16.5 -10.66 -16.04 -11.54 -15.54 -12.39 -15 -13.24 -14.41 -14.09 -13.79 -14.91 -13.12 -15.71 156.74 -124.24 6.63 7.93 6.91 7.47 7.18 7.02 7.47 6.59 7.72 6.16 7.96 5.72 8.2 5.3 8.42 4.87 8.62 4.44 8.81 4.01 8.98 3.57 9.14 3.13 9.27 2.69 9.38 2.25 9.48 1.79 9.55 1.34 9.6 0.88 9.64 0.43 9.65 -0.03 9.64 -0.5 9.61 -0.96 9.56 -1.42 9.49 -1.88 9.42 -2.35 9.31 -2.82 9.2 -3.28 9.07 -3.76 8.93 -4.23 8.78 -4.72 8.62 -5.21 8.46 -5.71 8.29 -6.23 0 0 124.24 156.74zm64.99 -561.97l0 0 12.3 16.35 11.37 16.83 10.43 17.25 9.47 17.63 8.52 17.95 7.56 18.25 6.62 18.5 5.67 18.71 4.73 18.88 3.79 19.01 2.85 19.11 1.93 19.17 1 19.2 0.09 19.19 -0.83 19.16 -1.74 19.09 -2.65 18.98 -3.55 18.84 -4.44 18.68 -5.35 18.48 -6.24 18.23 -7.13 17.98 -8.02 17.67 -8.91 17.31 -9.79 16.94 -10.67 16.53 -11.54 16.06 -12.41 15.57 -13.27 15.02 -14.11 14.44 -14.93 13.82 -15.74 13.14 -124.24 -156.74 7.96 -6.65 7.49 -6.93 7.03 -7.2 6.6 -7.48 6.16 -7.72 5.73 -7.98 5.3 -8.2 4.86 -8.43 4.44 -8.63 4 -8.81 3.57 -8.98 3.12 -9.14 2.68 -9.27 2.24 -9.39 1.78 -9.48 1.33 -9.56 0.88 -9.6 0.42 -9.63 -0.05 -9.65 -0.5 -9.64 -0.96 -9.61 -1.43 -9.56 -1.89 -9.49 -2.36 -9.41 -2.82 -9.31 -3.28 -9.19 -3.76 -9.06 -4.23 -8.92 -4.71 -8.77 -5.2 -8.6 -5.69 -8.43 -6.22 -8.27 0 0 156.74 -124.24zm-561.97 -64.99l16.38 -12.32 16.86 -11.39 17.28 -10.44 17.66 -9.48 17.98 -8.53 18.28 -7.58 18.52 -6.61 18.73 -5.67 18.89 -4.72 19.04 -3.78 19.12 -2.84 19.18 -1.91 19.21 -0.99 19.2 -0.07 19.16 0.85 19.08 1.76 18.98 2.66 18.85 3.56 18.67 4.47 18.46 5.35 18.22 6.26 17.96 7.14 17.64 8.03 17.3 8.91 16.92 9.79 16.5 10.66 16.04 11.54 15.54 12.39 15 13.24 14.41 14.09 13.79 14.91 13.12 15.71 -156.74 124.24 -6.63 -7.93 -6.91 -7.47 -7.18 -7.02 -7.47 -6.59 -7.72 -6.16 -7.96 -5.72 -8.2 -5.3 -8.42 -4.87 -8.62 -4.44 -8.81 -4.01 -8.98 -3.57 -9.14 -3.13 -9.27 -2.69 -9.38 -2.25 -9.48 -1.79 -9.55 -1.34 -9.6 -0.88 -9.64 -0.43 -9.65 0.03 -9.64 0.5 -9.61 0.96 -9.56 1.42 -9.49 1.88 -9.42 2.35 -9.31 2.82 -9.2 3.28 -9.07 3.76 -8.93 4.23 -8.78 4.72 -8.62 5.21 -8.46 5.71 -8.29 6.23 -124.24 -156.74zm-3299.88 -1048.38l-53.72 -192.66 126.45 -33.06 125.49 -28.4 124.53 -23.73 123.57 -19.03 122.59 -14.34 121.61 -9.63 120.63 -4.9 119.59 -0.15 118.59 4.57 117.54 9.34 116.46 14.08 115.4 18.86 114.27 23.6 113.16 28.36 112 33.11 110.84 37.85 109.65 42.58 108.43 47.3 107.23 52 105.99 56.69 104.75 61.35 103.5 66.02 102.25 70.66 101.01 75.28 99.75 79.9 98.5 84.5 97.25 89.08 96.01 93.67 94.76 98.22 93.54 102.79 92.32 107.33 91.1 111.89 -156.74 124.24 -87.76 -107.79 -88.72 -103.17 -89.7 -98.55 -90.64 -93.96 -91.59 -89.35 -92.53 -84.76 -93.46 -80.18 -94.41 -75.62 -95.33 -71.06 -96.27 -66.52 -97.2 -62 -98.13 -57.49 -99.09 -52.99 -100.03 -48.52 -101.01 -44.04 -101.97 -39.62 -102.98 -35.15 -104 -30.75 -105.02 -26.32 -106.09 -21.92 -107.16 -17.5 -108.26 -13.1 -109.38 -8.68 -110.53 -4.27 -111.69 0.15 -112.85 4.58 -114.05 9.03 -115.25 13.48 -116.47 17.95 -117.69 22.41 -118.91 26.92 -120.13 31.42z"/>
  </g>
  <path class="fil1" d="M17374.63 8932.37c1024.19,239.23 2066.4,414.97 3114.86,470.45 481.39,24.61 961.53,23.25 1442.3,-14.46l-0.37 -5.1 -95.52 -150.34c-411.99,28.74 -823.9,30.6 -1236.6,12.84 -1074.21,-48.21 -2141.98,-226.92 -3190.87,-471.62 -4.27,-144.47 -99.68,-272.08 -239.91,-306.09 -166.51,-38.98 -329.72,70.04 -367.95,245.07 -36.88,175.53 66.37,347.37 232.59,387.68 140.59,32.91 278.83,-39.69 341.47,-168.43zm-123.65 -112.29c-19.37,88.01 -100.32,141.43 -183.98,122.54 -83,-20.29 -134.81,-106.09 -116.3,-193.85 19.38,-88.01 100.32,-141.43 183.98,-122.54 83.01,20.29 134.81,106.09 116.3,193.85z"/>
  <path class="fil2 str1" d="M21876.81 9371.29c-1489.66,-2402.75 -3729,-3394.39 -6717.94,-2975.01 1840.56,-471.86 3811.3,527.89 5912.21,2999.39"/>
  <g>
   <path class="fil1" d="M14163.67 5599.35l0 0 20.33 -2.26 20.28 -1.21 20.15 -0.19 20 0.83 19.78 1.81 19.56 2.78 19.29 3.72 18.99 4.65 18.65 5.55 18.29 6.42 17.9 7.27 17.48 8.11 17.03 8.91 16.56 9.7 16.07 10.47 15.54 11.22 14.98 11.95 14.41 12.64 13.81 13.34 13.18 14.01 12.52 14.66 11.83 15.29 11.12 15.9 10.37 16.48 9.59 17.06 8.79 17.59 7.94 18.12 7.08 18.61 6.17 19.06 5.25 19.5 4.28 19.88 3.29 20.24 -198.15 27.1 -1.67 -10.24 -2.15 -9.97 -2.62 -9.72 -3.07 -9.49 -3.51 -9.24 -3.95 -8.99 -4.36 -8.73 -4.77 -8.48 -5.17 -8.22 -5.54 -7.93 -5.92 -7.64 -6.27 -7.34 -6.61 -7.03 -6.94 -6.7 -7.25 -6.37 -7.55 -6.01 -7.82 -5.64 -8.07 -5.27 -8.33 -4.87 -8.55 -4.48 -8.77 -4.07 -8.95 -3.64 -9.13 -3.2 -9.29 -2.77 -9.45 -2.31 -9.58 -1.85 -9.71 -1.38 -9.84 -0.9 -9.94 -0.42 -10.05 0.1 -10.15 0.6 -10.28 1.14 0 0 -27.1 -198.15zm-342.11 450.51l0 0 -2.26 -20.37 -1.22 -20.31 -0.18 -20.19 0.83 -20.02 1.82 -19.82 2.79 -19.59 3.74 -19.31 4.66 -19 5.56 -18.66 6.44 -18.31 7.29 -17.9 8.12 -17.48 8.94 -17.04 9.72 -16.55 10.48 -16.05 11.23 -15.53 11.96 -14.98 12.66 -14.4 13.35 -13.79 14.01 -13.16 14.66 -12.5 15.29 -11.82 15.9 -11.09 16.47 -10.35 17.04 -9.58 17.58 -8.77 18.1 -7.93 18.57 -7.06 19.04 -6.16 19.47 -5.23 19.85 -4.27 20.2 -3.29 27.1 198.15 -10.21 1.66 -9.94 2.15 -9.7 2.61 -9.48 3.06 -9.23 3.51 -8.98 3.94 -8.73 4.36 -8.48 4.76 -8.21 5.16 -7.94 5.54 -7.64 5.91 -7.35 6.27 -7.04 6.61 -6.71 6.93 -6.37 7.24 -6.01 7.54 -5.66 7.81 -5.27 8.08 -4.89 8.32 -4.48 8.55 -4.07 8.76 -3.64 8.95 -3.22 9.12 -2.77 9.3 -2.32 9.45 -1.85 9.59 -1.39 9.72 -0.91 9.84 -0.41 9.96 0.09 10.07 0.61 10.18 1.14 10.31 0 0 -198.15 27.1zm450.51 342.11l0 0 -20.33 2.26 -20.28 1.21 -20.15 0.19 -20 -0.83 -19.78 -1.81 -19.56 -2.78 -19.29 -3.72 -18.99 -4.65 -18.65 -5.55 -18.29 -6.42 -17.9 -7.27 -17.48 -8.11 -17.03 -8.91 -16.56 -9.7 -16.07 -10.47 -15.54 -11.22 -14.98 -11.95 -14.41 -12.64 -13.81 -13.34 -13.18 -14.01 -12.52 -14.66 -11.83 -15.29 -11.12 -15.9 -10.37 -16.48 -9.59 -17.06 -8.79 -17.59 -7.94 -18.12 -7.08 -18.61 -6.17 -19.06 -5.25 -19.5 -4.28 -19.88 -3.29 -20.24 198.15 -27.1 1.67 10.24 2.15 9.97 2.62 9.72 3.07 9.49 3.51 9.24 3.95 8.99 4.36 8.73 4.77 8.48 5.17 8.22 5.54 7.93 5.92 7.64 6.27 7.34 6.61 7.03 6.94 6.7 7.25 6.37 7.55 6.01 7.82 5.64 8.07 5.27 8.33 4.87 8.55 4.48 8.77 4.07 8.95 3.64 9.13 3.2 9.29 2.77 9.45 2.31 9.58 1.85 9.71 1.38 9.84 0.9 9.94 0.42 10.05 -0.1 10.15 -0.6 10.28 -1.14 0 0 27.1 198.15zm342.11 -450.51l2.26 20.37 1.22 20.31 0.18 20.19 -0.83 20.02 -1.82 19.82 -2.79 19.59 -3.74 19.31 -4.66 19 -5.56 18.66 -6.44 18.31 -7.29 17.9 -8.12 17.48 -8.94 17.04 -9.72 16.55 -10.48 16.05 -11.23 15.53 -11.96 14.98 -12.66 14.4 -13.35 13.79 -14.01 13.16 -14.66 12.5 -15.29 11.82 -15.9 11.09 -16.47 10.35 -17.04 9.58 -17.58 8.77 -18.1 7.93 -18.57 7.06 -19.04 6.16 -19.47 5.23 -19.85 4.27 -20.2 3.29 -27.1 -198.15 10.21 -1.66 9.94 -2.15 9.7 -2.61 9.48 -3.06 9.23 -3.51 8.98 -3.94 8.73 -4.36 8.48 -4.76 8.21 -5.16 7.94 -5.54 7.64 -5.91 7.35 -6.27 7.04 -6.61 6.71 -6.93 6.37 -7.24 6.01 -7.54 5.66 -7.81 5.27 -8.08 4.89 -8.32 4.48 -8.55 4.07 -8.76 3.64 -8.95 3.22 -9.12 2.77 -9.3 2.32 -9.45 1.85 -9.59 1.39 -9.72 0.91 -9.84 0.41 -9.96 -0.09 -10.07 -0.61 -10.18 -1.14 -10.31 198.15 -27.1zm1321.91 -202.17l4.8 199.94 0.01 0 -43.44 1.13 -43.53 1.29 -43.61 1.46 -43.73 1.62 -43.8 1.79 -43.9 1.95 -43.99 2.13 -44.09 2.28 -44.17 2.45 -44.26 2.62 -44.37 2.77 -44.46 2.95 -44.55 3.11 -44.62 3.27 -44.74 3.44 -44.81 3.6 -44.92 3.78 -45 3.93 -45.1 4.11 -45.19 4.26 -45.27 4.44 -45.37 4.59 -45.45 4.77 -45.56 4.93 -45.65 5.09 -45.74 5.27 -45.82 5.42 -45.92 5.59 -46 5.76 -46.11 5.91 -46.18 6.09 -46.28 6.26 -27.1 -198.16 46.92 -6.34 46.84 -6.17 46.75 -6.01 46.66 -5.84 46.58 -5.67 46.48 -5.5 46.4 -5.33 46.31 -5.17 46.22 -5.01 46.15 -4.83 46.03 -4.67 45.97 -4.5 45.87 -4.32 45.78 -4.17 45.7 -3.99 45.6 -3.84 45.53 -3.66 45.42 -3.5 45.36 -3.33 45.25 -3.15 45.16 -2.99 45.07 -2.83 44.98 -2.66 44.91 -2.49 44.81 -2.32 44.71 -2.15 44.64 -1.99 44.54 -1.81 44.45 -1.66 44.37 -1.48 44.27 -1.31 44.18 -1.15 0.01 0zm2108.08 158.74l-36.6 196.62 -61.09 -11.14 -61.33 -10.75 -61.54 -10.33 -61.77 -9.93 -61.99 -9.53 -62.22 -9.11 -62.44 -8.71 -62.66 -8.31 -62.9 -7.9 -63.12 -7.5 -63.34 -7.08 -63.57 -6.69 -63.79 -6.28 -64.02 -5.88 -64.23 -5.46 -64.47 -5.06 -64.69 -4.65 -64.93 -4.25 -65.14 -3.85 -65.38 -3.43 -65.6 -3.04 -65.81 -2.63 -66.05 -2.22 -66.27 -1.81 -66.5 -1.41 -66.72 -1 -66.95 -0.59 -67.19 -0.19 -67.4 0.22 -67.63 0.62 -67.85 1.03 -68.09 1.44 -4.8 -199.94 69.25 -1.46 69.05 -1.05 68.83 -0.64 68.6 -0.22 68.39 0.19 68.17 0.61 67.96 1.02 67.72 1.43 67.53 1.85 67.29 2.26 67.09 2.67 66.86 3.1 66.64 3.51 66.42 3.91 66.21 4.33 65.99 4.75 65.77 5.16 65.55 5.58 65.34 6 65.11 6.4 64.89 6.83 64.68 7.24 64.46 7.66 64.24 8.06 64.02 8.49 63.8 8.91 63.58 9.31 63.37 9.73 63.15 10.15 62.92 10.57 62.71 10.99 62.49 11.4zm326.61 -244.38l-36.59 196.63 0 0 -10.21 -1.64 -10.11 -1.09 -10.03 -0.58 -9.96 -0.06 -9.86 0.42 -9.77 0.92 -9.66 1.39 -9.55 1.85 -9.41 2.32 -9.28 2.76 -9.11 3.21 -8.95 3.64 -8.76 4.06 -8.55 4.47 -8.32 4.87 -8.08 5.26 -7.83 5.64 -7.55 6.01 -7.25 6.36 -6.94 6.7 -6.62 7.04 -6.28 7.35 -5.91 7.65 -5.56 7.96 -5.17 8.24 -4.78 8.52 -4.37 8.79 -3.96 9.05 -3.52 9.33 -3.08 9.58 -2.63 9.86 -2.15 10.15 -196.63 -36.59 4.26 -20.05 5.24 -19.66 6.17 -19.23 7.08 -18.74 7.96 -18.25 8.81 -17.71 9.62 -17.15 10.4 -16.58 11.15 -15.96 11.87 -15.35 12.56 -14.71 13.2 -14.03 13.84 -13.37 14.44 -12.66 14.99 -11.93 15.55 -11.22 16.06 -10.45 16.55 -9.69 17.01 -8.89 17.44 -8.09 17.84 -7.25 18.23 -6.41 18.58 -5.54 18.9 -4.64 19.18 -3.73 19.45 -2.79 19.67 -1.84 19.85 -0.86 20.01 0.14 20.13 1.15 20.19 2.19 20.2 3.23 0 0zm320.07 466.43l-196.63 -36.59 0 0 1.64 -10.24 1.1 -10.14 0.57 -10.06 0.07 -9.96 -0.43 -9.88 -0.92 -9.77 -1.39 -9.67 -1.87 -9.55 -2.32 -9.42 -2.77 -9.27 -3.21 -9.11 -3.64 -8.95 -4.07 -8.75 -4.48 -8.54 -4.88 -8.33 -5.27 -8.08 -5.65 -7.82 -6.01 -7.53 -6.37 -7.25 -6.71 -6.94 -7.04 -6.61 -7.35 -6.27 -7.66 -5.92 -7.96 -5.55 -8.24 -5.16 -8.51 -4.77 -8.78 -4.37 -9.06 -3.95 -9.31 -3.52 -9.56 -3.07 -9.83 -2.62 -10.12 -2.14 36.59 -196.63 20.02 4.25 19.62 5.23 19.2 6.16 18.71 7.07 18.22 7.94 17.69 8.79 17.14 9.61 16.56 10.38 15.96 11.13 15.35 11.84 14.7 12.54 14.04 13.19 13.37 13.82 12.66 14.41 11.96 15 11.23 15.53 10.47 16.06 9.7 16.53 8.91 17.01 8.11 17.44 7.27 17.85 6.43 18.24 5.55 18.59 4.65 18.91 3.75 19.2 2.8 19.47 1.85 19.69 0.86 19.89 -0.13 20.04 -1.15 20.16 -2.19 20.22 -3.24 20.24 0 0zm-466.43 320.07l36.59 -196.63 0 0 10.21 1.64 10.11 1.09 10.03 0.58 9.96 0.06 9.86 -0.42 9.77 -0.92 9.66 -1.39 9.55 -1.85 9.41 -2.32 9.28 -2.76 9.11 -3.21 8.95 -3.64 8.76 -4.06 8.55 -4.47 8.32 -4.87 8.08 -5.26 7.83 -5.64 7.55 -6.01 7.25 -6.36 6.94 -6.7 6.62 -7.04 6.28 -7.35 5.91 -7.65 5.56 -7.96 5.17 -8.24 4.78 -8.52 4.37 -8.79 3.96 -9.05 3.52 -9.33 3.08 -9.58 2.63 -9.86 2.15 -10.15 196.63 36.59 -4.26 20.05 -5.24 19.66 -6.17 19.23 -7.08 18.74 -7.96 18.25 -8.81 17.71 -9.62 17.15 -10.4 16.58 -11.15 15.96 -11.87 15.35 -12.56 14.71 -13.2 14.03 -13.84 13.37 -14.44 12.66 -14.99 11.93 -15.55 11.22 -16.06 10.45 -16.55 9.69 -17.01 8.89 -17.44 8.09 -17.84 7.25 -18.23 6.41 -18.58 5.54 -18.9 4.64 -19.18 3.73 -19.45 2.79 -19.67 1.84 -19.85 0.86 -20.01 -0.14 -20.13 -1.15 -20.19 -2.19 -20.2 -3.23 0 0zm-320.07 -466.43l196.63 36.59 -1.64 10.24 -1.1 10.14 -0.57 10.06 -0.07 9.96 0.43 9.88 0.92 9.77 1.39 9.67 1.87 9.55 2.32 9.42 2.77 9.27 3.21 9.11 3.64 8.95 4.07 8.75 4.48 8.54 4.88 8.33 5.27 8.08 5.65 7.82 6.01 7.53 6.37 7.25 6.71 6.94 7.04 6.61 7.35 6.27 7.66 5.92 7.96 5.55 8.24 5.16 8.51 4.77 8.78 4.37 9.06 3.95 9.31 3.52 9.56 3.07 9.83 2.62 10.12 2.14 -36.59 196.63 -20.02 -4.25 -19.62 -5.23 -19.2 -6.16 -18.71 -7.07 -18.22 -7.94 -17.69 -8.79 -17.14 -9.61 -16.56 -10.38 -15.96 -11.13 -15.35 -11.84 -14.7 -12.54 -14.04 -13.19 -13.37 -13.82 -12.66 -14.41 -11.96 -15 -11.23 -15.53 -10.47 -16.06 -9.7 -16.53 -8.91 -17.01 -8.11 -17.44 -7.27 -17.85 -6.43 -18.24 -5.55 -18.59 -4.65 -18.91 -3.75 -19.2 -2.8 -19.47 -1.85 -19.69 -0.86 -19.89 0.13 -20.04 1.15 -20.16 2.19 -20.22 3.24 -20.24z"/>
  </g>
  <path class="fil3 str2" d="M19863.6 11045.42c-307.86,-570.64 -721.58,-866.51 -1241.05,-887.71 -112.22,316.43 -128.23,599.52 -48.04,849.22 859.41,25.66 1289.09,38.49 1289.09,38.49z"/>
  <g>
   <path class="fil1" d="M5375.12 9455.6l0 0 18.02 -3.81 18.05 -2.86 18.04 -1.93 17.98 -1.01 17.88 -0.11 17.77 0.78 17.6 1.65 17.41 2.5 17.19 3.33 16.95 4.15 16.67 4.95 16.37 5.73 16.03 6.5 15.68 7.23 15.31 7.98 14.9 8.69 14.47 9.38 14.02 10.07 13.53 10.74 13.03 11.4 12.5 12.03 11.94 12.66 11.35 13.27 10.73 13.86 10.08 14.43 9.41 15 8.71 15.53 7.96 16.04 7.2 16.54 6.41 17 5.57 17.44 4.72 17.84 -175.12 41.62 -2.39 -9.02 -2.79 -8.75 -3.2 -8.48 -3.58 -8.23 -3.96 -7.96 -4.32 -7.71 -4.67 -7.44 -5.02 -7.18 -5.34 -6.91 -5.66 -6.61 -5.97 -6.33 -6.26 -6.03 -6.54 -5.72 -6.8 -5.39 -7.06 -5.07 -7.28 -4.73 -7.5 -4.37 -7.69 -4.01 -7.89 -3.63 -8.05 -3.27 -8.21 -2.87 -8.33 -2.48 -8.46 -2.07 -8.57 -1.66 -8.66 -1.25 -8.75 -0.82 -8.82 -0.38 -8.89 0.05 -8.94 0.5 -8.99 0.96 -9.05 1.44 -9.1 1.92 0 0 -41.62 -175.12zm-267 433.48l0 0 -3.81 -18.05 -2.87 -18.08 -1.93 -18.07 -1.01 -18.01 -0.11 -17.91 0.79 -17.79 1.66 -17.62 2.51 -17.43 3.35 -17.2 4.16 -16.97 4.97 -16.67 5.74 -16.37 6.51 -16.04 7.26 -15.68 7.99 -15.3 8.7 -14.89 9.39 -14.46 10.09 -14.01 10.75 -13.52 11.4 -13.02 12.03 -12.48 12.66 -11.92 13.27 -11.33 13.85 -10.71 14.43 -10.07 14.98 -9.39 15.51 -8.69 16.03 -7.95 16.51 -7.19 16.98 -6.39 17.41 -5.56 17.8 -4.71 41.62 175.12 -9 2.38 -8.72 2.79 -8.46 3.18 -8.21 3.58 -7.97 3.95 -7.7 4.31 -7.44 4.67 -7.18 5.01 -6.9 5.34 -6.62 5.66 -6.33 5.96 -6.04 6.26 -5.72 6.54 -5.41 6.79 -5.07 7.04 -4.72 7.28 -4.39 7.5 -4.01 7.7 -3.65 7.88 -3.27 8.04 -2.88 8.21 -2.48 8.33 -2.08 8.46 -1.67 8.57 -1.25 8.67 -0.82 8.75 -0.39 8.82 0.05 8.9 0.5 8.96 0.96 9.01 1.44 9.07 1.93 9.13 0 0 -175.12 41.62zm433.48 267l0 0 -18.02 3.81 -18.05 2.86 -18.04 1.93 -17.98 1.01 -17.88 0.11 -17.77 -0.78 -17.6 -1.65 -17.41 -2.5 -17.19 -3.33 -16.95 -4.15 -16.67 -4.95 -16.37 -5.73 -16.03 -6.5 -15.68 -7.23 -15.31 -7.98 -14.9 -8.69 -14.47 -9.38 -14.02 -10.07 -13.53 -10.74 -13.03 -11.4 -12.5 -12.03 -11.94 -12.66 -11.35 -13.27 -10.73 -13.86 -10.08 -14.43 -9.41 -15 -8.71 -15.53 -7.96 -16.04 -7.2 -16.54 -6.41 -17 -5.57 -17.44 -4.72 -17.84 175.12 -41.62 2.39 9.02 2.79 8.75 3.2 8.48 3.58 8.23 3.96 7.96 4.32 7.71 4.67 7.44 5.02 7.18 5.34 6.91 5.66 6.61 5.97 6.33 6.26 6.03 6.54 5.72 6.8 5.39 7.06 5.07 7.28 4.73 7.5 4.37 7.69 4.01 7.89 3.63 8.05 3.27 8.21 2.87 8.33 2.48 8.46 2.07 8.57 1.66 8.66 1.25 8.75 0.82 8.82 0.38 8.89 -0.05 8.94 -0.5 8.99 -0.96 9.05 -1.44 9.1 -1.92 0 0 41.62 175.12zm267 -433.48l3.81 18.05 2.87 18.08 1.93 18.07 1.01 18.01 0.11 17.91 -0.79 17.79 -1.66 17.62 -2.51 17.43 -3.35 17.2 -4.16 16.97 -4.97 16.67 -5.74 16.37 -6.51 16.04 -7.26 15.68 -7.99 15.3 -8.7 14.89 -9.39 14.46 -10.09 14.01 -10.75 13.52 -11.4 13.02 -12.03 12.48 -12.66 11.92 -13.27 11.33 -13.85 10.71 -14.43 10.07 -14.98 9.39 -15.51 8.69 -16.03 7.95 -16.51 7.19 -16.98 6.39 -17.41 5.56 -17.8 4.71 -41.62 -175.12 9 -2.38 8.72 -2.79 8.46 -3.18 8.21 -3.58 7.97 -3.95 7.7 -4.31 7.44 -4.67 7.18 -5.01 6.9 -5.34 6.62 -5.66 6.33 -5.96 6.04 -6.26 5.72 -6.54 5.41 -6.79 5.07 -7.04 4.72 -7.28 4.39 -7.5 4.01 -7.7 3.65 -7.88 3.27 -8.04 2.88 -8.21 2.48 -8.33 2.08 -8.46 1.67 -8.57 1.25 -8.67 0.82 -8.75 0.39 -8.82 -0.05 -8.9 -0.5 -8.96 -0.96 -9.01 -1.44 -9.07 -1.93 -9.13 175.12 -41.62zm6806.43 -1525.16l-6893.85 1638.45 -41.62 -175.12 6893.85 -1638.45 41.62 175.12z"/>
  </g>
  <g>
   <path class="fil1" d="M5462.19 10574.47l0 0 18.36 -1.37 18.28 -0.44 18.13 0.48 17.95 1.38 17.74 2.27 17.51 3.13 17.23 3.97 16.92 4.79 16.6 5.59 16.25 6.37 15.86 7.12 15.46 7.85 15.03 8.56 14.58 9.26 14.12 9.94 13.61 10.59 13.1 11.22 12.55 11.84 11.99 12.44 11.4 13.03 10.79 13.59 10.15 14.13 9.49 14.66 8.79 15.16 8.08 15.65 7.34 16.11 6.56 16.55 5.77 16.96 4.94 17.34 4.09 17.71 3.21 18.02 2.31 18.31 -179.1 17.99 -1.17 -9.26 -1.61 -9.04 -2.04 -8.83 -2.46 -8.62 -2.86 -8.43 -3.26 -8.21 -3.65 -8 -4.01 -7.78 -4.39 -7.55 -4.73 -7.31 -5.07 -7.07 -5.41 -6.8 -5.72 -6.54 -6.02 -6.25 -6.32 -5.96 -6.59 -5.65 -6.85 -5.33 -7.1 -4.99 -7.33 -4.66 -7.55 -4.3 -7.75 -3.94 -7.93 -3.56 -8.11 -3.18 -8.28 -2.78 -8.42 -2.39 -8.56 -1.97 -8.68 -1.55 -8.82 -1.13 -8.93 -0.69 -9.04 -0.24 -9.16 0.22 -9.28 0.69 0 0 -17.99 -179.1zm-322.21 394.19l0 0 -1.37 -18.4 -0.44 -18.3 0.48 -18.17 1.39 -17.98 2.28 -17.77 3.14 -17.52 3.98 -17.25 4.8 -16.94 5.61 -16.6 6.38 -16.26 7.14 -15.87 7.86 -15.46 8.59 -15.04 9.27 -14.57 9.95 -14.1 10.6 -13.61 11.23 -13.09 11.86 -12.54 12.45 -11.98 13.02 -11.38 13.59 -10.77 14.13 -10.14 14.66 -9.46 15.15 -8.78 15.64 -8.07 16.09 -7.32 16.53 -6.55 16.94 -5.75 17.31 -4.93 17.68 -4.08 18 -3.2 18.27 -2.31 17.99 179.1 -9.23 1.17 -9.01 1.6 -8.81 2.04 -8.62 2.45 -8.42 2.86 -8.2 3.25 -8 3.64 -7.78 4.01 -7.55 4.38 -7.31 4.73 -7.07 5.06 -6.81 5.41 -6.54 5.71 -6.26 6.02 -5.96 6.31 -5.65 6.58 -5.34 6.85 -5.01 7.1 -4.66 7.33 -4.3 7.54 -3.95 7.74 -3.57 7.94 -3.18 8.1 -2.79 8.28 -2.39 8.42 -1.98 8.56 -1.56 8.7 -1.13 8.82 -0.69 8.95 -0.24 9.06 0.21 9.18 0.7 9.31 0 0 -179.1 17.99zm394.19 322.21l0 0 -18.36 1.37 -18.28 0.44 -18.13 -0.48 -17.95 -1.38 -17.74 -2.27 -17.51 -3.13 -17.23 -3.97 -16.92 -4.79 -16.6 -5.59 -16.25 -6.37 -15.86 -7.12 -15.46 -7.85 -15.03 -8.56 -14.58 -9.26 -14.12 -9.94 -13.61 -10.59 -13.1 -11.22 -12.55 -11.84 -11.99 -12.44 -11.4 -13.03 -10.79 -13.59 -10.15 -14.13 -9.49 -14.66 -8.79 -15.16 -8.08 -15.65 -7.34 -16.11 -6.56 -16.55 -5.77 -16.96 -4.94 -17.34 -4.09 -17.71 -3.21 -18.02 -2.31 -18.31 179.1 -17.99 1.17 9.26 1.61 9.04 2.04 8.83 2.46 8.62 2.86 8.43 3.26 8.21 3.65 8 4.01 7.78 4.39 7.55 4.73 7.31 5.07 7.07 5.41 6.8 5.72 6.54 6.02 6.25 6.32 5.96 6.59 5.65 6.85 5.33 7.1 4.99 7.33 4.66 7.55 4.3 7.75 3.94 7.93 3.56 8.11 3.18 8.28 2.78 8.42 2.39 8.56 1.97 8.68 1.55 8.82 1.13 8.93 0.69 9.04 0.24 9.16 -0.22 9.28 -0.69 0 0 17.99 179.1zm322.21 -394.19l1.37 18.4 0.44 18.3 -0.48 18.17 -1.39 17.98 -2.28 17.77 -3.14 17.52 -3.98 17.25 -4.8 16.94 -5.61 16.6 -6.38 16.26 -7.14 15.87 -7.86 15.46 -8.59 15.04 -9.27 14.57 -9.95 14.1 -10.6 13.61 -11.23 13.09 -11.86 12.54 -12.45 11.98 -13.02 11.38 -13.59 10.77 -14.13 10.14 -14.66 9.46 -15.15 8.78 -15.64 8.07 -16.09 7.32 -16.53 6.55 -16.94 5.75 -17.31 4.93 -17.68 4.08 -18 3.2 -18.27 2.31 -17.99 -179.1 9.23 -1.17 9.01 -1.6 8.81 -2.04 8.62 -2.45 8.42 -2.86 8.2 -3.25 8 -3.64 7.78 -4.01 7.55 -4.38 7.31 -4.73 7.07 -5.06 6.81 -5.41 6.54 -5.71 6.26 -6.02 5.96 -6.31 5.65 -6.58 5.34 -6.85 5.01 -7.1 4.66 -7.33 4.3 -7.54 3.95 -7.74 3.57 -7.94 3.18 -8.1 2.79 -8.28 2.39 -8.42 1.98 -8.56 1.56 -8.7 1.13 -8.82 0.69 -8.95 0.24 -9.06 -0.21 -9.18 -0.7 -9.31 179.1 -17.99zm8838.39 -797.64l-8940.08 898.31 -18 -179.1 8940.08 -898.31 98.84 94.92 -80.84 84.18zm80.84 -84.18l-4.57 76.52 -76.27 7.66 80.84 -84.18zm-2213.15 -1811.52l9.72 -179.74 116.66 8.63 115.06 13.14 113.29 17.53 111.38 21.82 109.33 26.01 107.12 30.08 104.79 34.05 102.31 37.9 99.68 41.68 96.92 45.33 94.01 48.88 90.95 52.34 87.76 55.7 84.41 58.94 80.92 62.1 77.28 65.17 73.48 68.11 69.54 70.97 65.44 73.73 61.19 76.39 56.76 78.95 52.18 81.4 47.43 83.74 42.52 85.97 37.43 88.09 32.17 90.07 26.75 91.93 21.16 93.67 15.4 95.23 9.49 96.68 3.42 97.97 -2.8 99.06 -179.68 -10.74 2.48 -87.76 -3.02 -86.61 -8.39 -85.44 -13.62 -84.19 -18.72 -82.87 -23.71 -81.49 -28.59 -80.01 -33.33 -78.45 -38 -76.81 -42.51 -75.06 -46.94 -73.22 -51.24 -71.25 -55.41 -69.19 -59.48 -67.01 -63.4 -64.71 -67.22 -62.29 -70.88 -59.77 -74.44 -57.12 -77.83 -54.36 -81.12 -51.48 -84.25 -48.48 -87.23 -45.36 -90.12 -42.15 -92.82 -38.8 -95.41 -35.36 -97.85 -31.79 -100.14 -28.12 -102.29 -24.33 -104.32 -20.44 -106.19 -16.43 -107.94 -12.32 -109.54 -8.11z"/>
  </g>
  <line class="fil2 str1" x1="6304.93" y1="9635.33" x2="5968.34" y2= "10882.1" />
  <line class="fil2 str1" x1="6910.13" y1="9466.93" x2="6560.61" y2= "10849.49" />
  <line class="fil2 str1" x1="8192.65" y1="9147.13" x2="7793.75" y2= "10680.04" />
  <line class="fil2 str1" x1="7529.1" y1="9306.73" x2="7159.97" y2= "10749.27" />
  <line class="fil2 str1" x1="8830.04" y1="9001.86" x2="8431.67" y2= "10620.78" />
  <line class="fil2 str1" x1="9465.61" y1="8887.35" x2="9079.99" y2= "10507.51" />
  <line class="fil2 str1" x1="11734.25" y1="8270.32" x2="11252.92" y2= "10312.48" />
  <line class="fil2 str1" x1="10964.17" y1="8472.51" x2="10543.68" y2= "10383.86" />
  <line class="fil2 str1" x1="10206.12" y1="8691.09" x2="9796.96" y2= "10454.62" />
  <line class="fil2 str1" x1="12552.36" y1="8128.07" x2="12065.25" y2= "10258.41" />
  <g>
   <path class="fil3" d="M21229.89 11054.58c271.12,-434.08 598.47,-688.59 981.93,-763.75 103.88,255.74 234.37,488.33 228.38,779.32l3.16 20.66 -1213.47 -36.23z"/>
   <path class="fil2 str3" d="M22207.98 10290.68c132.72,244.01 209.89,510.67 231.54,800"/>
  </g>
  <polygon class="fil1" points="15546.12,2200.39 13537.19,7048.52 12871.17,7249.65 12659.74,7162.49 14716.25,2199.53 "/>
  <polygon class="fil1" points="16983.41,2201.87 14799.41,7441.12 14090.31,7145.8 16151.56,2201.01 "/>
  <polygon class="fil1" points="8716.33,17417.96 10645.77,13142.84 11246.18,13143.46 11447.31,13234.34 9549.81,17438.69 8760.41,17437.87 "/>
  <polygon class="fil1" points="10153.43,17448.25 11992.82,13153.16 12767.88,13153.96 12818.37,13175.51 10988.19,17449.11 "/>
 </g>
</svg>
