<?xml version="1.0" encoding="UTF-8" standalone="no"?>
<!-- Creator: CorelDRAW 2019 (64-Bit) -->

<svg
   xmlns:dc="http://purl.org/dc/elements/1.1/"
   xmlns:cc="http://creativecommons.org/ns#"
   xmlns:rdf="http://www.w3.org/1999/02/22-rdf-syntax-ns#"
   xmlns:svg="http://www.w3.org/2000/svg"
   xmlns="http://www.w3.org/2000/svg"
   xmlns:sodipodi="http://sodipodi.sourceforge.net/DTD/sodipodi-0.dtd"
   xmlns:inkscape="http://www.inkscape.org/namespaces/inkscape"
   xml:space="preserve"
   width="300"
   height="300"
   version="1.1"
   style="clip-rule:evenodd;fill-rule:evenodd;image-rendering:optimizeQuality;shape-rendering:geometricPrecision;text-rendering:geometricPrecision"
   viewBox="0 0 7937.5003 7937.5004"
   id="svg39"
   sodipodi:docname="logo.svg"
   inkscape:version="0.92.4 (5da689c313, 2019-01-14)"><metadata
   id="metadata43"><rdf:RDF><cc:Work
       rdf:about=""><dc:format>image/svg+xml</dc:format><dc:type
         rdf:resource="http://purl.org/dc/dcmitype/StillImage" /><dc:title></dc:title></cc:Work></rdf:RDF></metadata><sodipodi:namedview
   pagecolor="#ffffff"
   bordercolor="#666666"
   borderopacity="1"
   objecttolerance="10"
   gridtolerance="10"
   guidetolerance="10"
   inkscape:pageopacity="0"
   inkscape:pageshadow="2"
   inkscape:window-width="1366"
   inkscape:window-height="705"
   id="namedview41"
   showgrid="false"
   inkscape:zoom="0.28921569"
   inkscape:cx="527.99999"
   inkscape:cy="407.99999"
   inkscape:window-x="-8"
   inkscape:window-y="-8"
   inkscape:window-maximized="1"
   inkscape:current-layer="svg39"
   units="px" />
 <defs
   id="defs13">
  <style
   type="text/css"
   id="style2">
   <![CDATA[
    .str0 {stroke:#3E4095;stroke-width:20;stroke-miterlimit:22.9256}
    .fil2 {fill:none}
    .fil1 {fill:#FFF212;fill-rule:nonzero}
    .fil0 {fill:url(#id0)}
   ]]>
  </style>
  <radialGradient
   id="id0"
   gradientUnits="userSpaceOnUse"
   gradientTransform="matrix(-2.21645,-2.24444,1.74892,-2.84444,19544,12979)"
   cx="6005.4302"
   cy="-130.02"
   r="14005.28"
   fx="6005.4302"
   fy="-130.02">
   <stop
   offset="0"
   style="stop-opacity:1; stop-color:#567EBE"
   id="stop4" />
   <stop
   offset="0.180392"
   style="stop-opacity:1; stop-color:#4596D1"
   id="stop6" />
   <stop
   offset="0.65098"
   style="stop-opacity:1; stop-color:#419BD5"
   id="stop8" />
   <stop
   offset="1"
   style="stop-opacity:1; stop-color:#356FB5"
   id="stop10" />
  </radialGradient>
 </defs>
 <g
   id="Capa_x0020_1"
   transform="matrix(0.76261883,0,0,0.76261883,-5902.3109,-1009.1109)">
  <metadata
   id="CorelCorpID_0Corel-Layer" />
  <circle
   class="fil0 str0"
   cx="13005.43"
   cy="6569.98"
   r="5000"
   id="circle16"
   style="fill:url(#id0);stroke:#3e4095;stroke-width:20;stroke-miterlimit:22.92560005" />
  <g
   id="g20">
   <path
   class="fil1"
   d="m 13005.46,6641.1 v 0 l -3.64,-0.09 -3.6,-0.27 -3.55,-0.45 -3.5,-0.63 -3.45,-0.79 -3.38,-0.96 -3.31,-1.12 -3.23,-1.28 -3.15,-1.42 -3.07,-1.57 -2.98,-1.72 -2.88,-1.84 -2.79,-1.98 -2.68,-2.11 -2.58,-2.23 -2.47,-2.35 -2.35,-2.46 -2.24,-2.58 -2.11,-2.68 -1.99,-2.78 -1.85,-2.89 -1.72,-2.97 -1.57,-3.07 -1.43,-3.16 -1.28,-3.23 -1.13,-3.31 -0.96,-3.38 -0.8,-3.45 -0.63,-3.51 -0.46,-3.56 -0.28,-3.61 -0.09,-3.64 35.56,-0.01 0.05,1.84 0.14,1.81 0.22,1.77 0.32,1.75 0.39,1.71 0.48,1.68 0.56,1.64 0.64,1.61 0.71,1.57 0.79,1.53 0.86,1.49 0.93,1.44 0.99,1.4 1.06,1.35 1.13,1.29 1.18,1.24 1.24,1.19 1.3,1.12 1.35,1.06 1.4,0.99 1.45,0.93 1.49,0.85 1.53,0.79 1.57,0.71 1.61,0.63 1.64,0.56 1.68,0.48 1.71,0.39 1.74,0.31 1.77,0.23 1.81,0.13 1.84,0.05 v 0 z m 71.09,-71.15 v 0 l -0.09,3.64 -0.27,3.61 -0.46,3.56 -0.62,3.51 -0.8,3.45 -0.96,3.38 -1.12,3.31 -1.28,3.24 -1.43,3.15 -1.57,3.07 -1.72,2.98 -1.85,2.89 -1.98,2.78 -2.11,2.69 -2.24,2.57 -2.35,2.47 -2.46,2.35 -2.58,2.23 -2.68,2.11 -2.79,1.98 -2.88,1.85 -2.98,1.72 -3.06,1.57 -3.16,1.43 -3.23,1.28 -3.31,1.12 -3.37,0.96 -3.45,0.8 -3.5,0.63 -3.55,0.45 -3.6,0.28 -3.64,0.09 -0.01,-35.56 1.83,-0.05 1.81,-0.14 1.77,-0.22 1.74,-0.32 1.71,-0.39 1.68,-0.48 1.64,-0.56 1.61,-0.63 1.57,-0.71 1.53,-0.79 1.49,-0.86 1.44,-0.93 1.4,-0.99 1.35,-1.06 1.3,-1.12 1.24,-1.19 1.18,-1.24 1.13,-1.29 1.06,-1.35 0.99,-1.4 0.93,-1.45 0.86,-1.49 0.78,-1.53 0.71,-1.57 0.64,-1.61 0.56,-1.64 0.47,-1.68 0.4,-1.71 0.31,-1.75 0.23,-1.77 0.13,-1.81 0.05,-1.85 v 0 z m -71.15,-71.09 v 0 l 3.64,0.09 3.6,0.27 3.55,0.45 3.5,0.63 3.45,0.79 3.38,0.96 3.31,1.12 3.23,1.28 3.15,1.42 3.07,1.57 2.98,1.72 2.88,1.84 2.79,1.98 2.68,2.11 2.58,2.23 2.47,2.35 2.35,2.46 2.24,2.58 2.11,2.68 1.99,2.78 1.85,2.89 1.72,2.97 1.57,3.07 1.43,3.16 1.28,3.23 1.13,3.31 0.96,3.38 0.8,3.45 0.63,3.51 0.46,3.56 0.28,3.61 0.09,3.64 -35.56,0.01 -0.05,-1.84 -0.14,-1.81 -0.22,-1.77 -0.32,-1.75 -0.39,-1.71 -0.48,-1.68 -0.56,-1.64 -0.64,-1.61 -0.71,-1.57 -0.79,-1.53 -0.86,-1.49 -0.93,-1.44 -0.99,-1.4 -1.06,-1.35 -1.13,-1.29 -1.18,-1.24 -1.24,-1.19 -1.3,-1.12 -1.35,-1.06 -1.4,-0.99 -1.45,-0.93 -1.49,-0.85 -1.53,-0.79 -1.57,-0.71 -1.61,-0.63 -1.64,-0.56 -1.68,-0.48 -1.71,-0.39 -1.74,-0.31 -1.77,-0.23 -1.81,-0.13 -1.84,-0.05 v 0 z m -71.09,71.15 0.09,-3.64 0.27,-3.61 0.46,-3.56 0.62,-3.51 0.8,-3.45 0.96,-3.38 1.12,-3.31 1.28,-3.24 1.43,-3.15 1.57,-3.07 1.72,-2.98 1.85,-2.89 1.98,-2.78 2.11,-2.69 2.24,-2.57 2.35,-2.47 2.46,-2.35 2.58,-2.23 2.68,-2.11 2.79,-1.98 2.88,-1.85 2.98,-1.72 3.06,-1.57 3.16,-1.43 3.23,-1.28 3.31,-1.12 3.37,-0.96 3.45,-0.8 3.5,-0.63 3.55,-0.45 3.6,-0.28 3.64,-0.09 0.01,35.56 -1.83,0.05 -1.81,0.14 -1.77,0.22 -1.74,0.32 -1.71,0.39 -1.68,0.48 -1.64,0.56 -1.61,0.63 -1.57,0.71 -1.53,0.79 -1.49,0.86 -1.44,0.93 -1.4,0.99 -1.35,1.06 -1.3,1.12 -1.24,1.19 -1.18,1.24 -1.13,1.29 -1.06,1.35 -0.99,1.4 -0.93,1.45 -0.86,1.49 -0.78,1.53 -0.71,1.57 -0.64,1.61 -0.56,1.64 -0.47,1.68 -0.4,1.71 -0.31,1.75 -0.23,1.77 -0.13,1.81 -0.05,1.85 z m -3812.48,-8.38 3834.46,-1.63 v 20 l -3834.46,1.63 z m -49.11,81.14 -0.01,-35.56 v 0 l 1.83,-0.05 1.81,-0.14 1.77,-0.22 1.74,-0.32 1.71,-0.39 1.68,-0.48 1.64,-0.56 1.61,-0.63 1.57,-0.71 1.53,-0.79 1.49,-0.86 1.44,-0.93 1.4,-0.99 1.35,-1.06 1.3,-1.12 1.24,-1.19 1.18,-1.24 1.13,-1.29 1.06,-1.35 0.99,-1.4 0.93,-1.45 0.86,-1.49 0.78,-1.53 0.71,-1.57 0.64,-1.61 0.56,-1.64 0.47,-1.68 0.4,-1.71 0.31,-1.75 0.23,-1.77 0.13,-1.81 0.05,-1.85 35.56,-0.01 -0.09,3.64 -0.27,3.61 -0.46,3.56 -0.62,3.51 -0.8,3.45 -0.96,3.38 -1.12,3.31 -1.28,3.24 -1.43,3.15 -1.57,3.07 -1.72,2.98 -1.85,2.89 -1.98,2.78 -2.11,2.69 -2.24,2.57 -2.35,2.47 -2.46,2.35 -2.58,2.23 -2.68,2.11 -2.79,1.98 -2.88,1.85 -2.98,1.72 -3.06,1.57 -3.16,1.43 -3.23,1.28 -3.31,1.12 -3.37,0.96 -3.45,0.8 -3.5,0.63 -3.55,0.45 -3.6,0.28 z m -71.15,-71.09 35.56,-0.01 v 0 l 0.05,1.84 0.14,1.81 0.22,1.77 0.32,1.75 0.39,1.71 0.48,1.68 0.56,1.64 0.64,1.61 0.71,1.57 0.79,1.53 0.86,1.49 0.93,1.44 0.99,1.4 1.06,1.35 1.13,1.29 1.18,1.24 1.24,1.19 1.3,1.12 1.35,1.06 1.4,0.99 1.45,0.93 1.49,0.85 1.53,0.79 1.57,0.71 1.61,0.63 1.64,0.56 1.68,0.48 1.71,0.39 1.74,0.31 1.77,0.23 1.81,0.13 1.84,0.05 0.01,35.56 -3.64,-0.09 -3.6,-0.27 -3.55,-0.45 -3.5,-0.63 -3.45,-0.79 -3.38,-0.96 -3.31,-1.12 -3.23,-1.28 -3.15,-1.42 -3.07,-1.57 -2.98,-1.72 -2.88,-1.84 -2.79,-1.98 -2.68,-2.11 -2.58,-2.23 -2.47,-2.35 -2.35,-2.46 -2.24,-2.58 -2.11,-2.68 -1.99,-2.78 -1.85,-2.89 -1.72,-2.97 -1.57,-3.07 -1.43,-3.16 -1.28,-3.23 -1.13,-3.31 -0.96,-3.38 -0.8,-3.45 -0.63,-3.51 -0.46,-3.56 -0.28,-3.61 z m 71.09,-71.15 0.01,35.56 v 0 l -1.83,0.05 -1.81,0.14 -1.77,0.22 -1.74,0.32 -1.71,0.39 -1.68,0.48 -1.64,0.56 -1.61,0.63 -1.57,0.71 -1.53,0.79 -1.49,0.86 -1.44,0.93 -1.4,0.99 -1.35,1.06 -1.3,1.12 -1.24,1.19 -1.18,1.24 -1.13,1.29 -1.06,1.35 -0.99,1.4 -0.93,1.45 -0.86,1.49 -0.78,1.53 -0.71,1.57 -0.64,1.61 -0.56,1.64 -0.47,1.68 -0.4,1.71 -0.31,1.75 -0.23,1.77 -0.13,1.81 -0.05,1.85 -35.56,0.01 0.09,-3.64 0.27,-3.61 0.46,-3.56 0.62,-3.51 0.8,-3.45 0.96,-3.38 1.12,-3.31 1.28,-3.24 1.43,-3.15 1.57,-3.07 1.72,-2.98 1.85,-2.89 1.98,-2.78 2.11,-2.69 2.24,-2.57 2.35,-2.47 2.46,-2.35 2.58,-2.23 2.68,-2.11 2.79,-1.98 2.88,-1.85 2.98,-1.72 3.06,-1.57 3.16,-1.43 3.23,-1.28 3.31,-1.12 3.37,-0.96 3.45,-0.8 3.5,-0.63 3.55,-0.45 3.6,-0.28 z m 71.15,71.09 -35.56,0.01 -0.05,-1.84 -0.14,-1.81 -0.22,-1.77 -0.32,-1.75 -0.39,-1.71 -0.48,-1.68 -0.56,-1.64 -0.64,-1.61 -0.71,-1.57 -0.79,-1.53 -0.86,-1.49 -0.93,-1.44 -0.99,-1.4 -1.06,-1.35 -1.13,-1.29 -1.18,-1.24 -1.24,-1.19 -1.3,-1.12 -1.35,-1.06 -1.4,-0.99 -1.45,-0.93 -1.49,-0.85 -1.53,-0.79 -1.57,-0.71 -1.61,-0.63 -1.64,-0.56 -1.68,-0.48 -1.71,-0.39 -1.74,-0.31 -1.77,-0.23 -1.81,-0.13 -1.84,-0.05 -0.01,-35.56 3.64,0.09 3.6,0.27 3.55,0.45 3.5,0.63 3.45,0.79 3.38,0.96 3.31,1.12 3.23,1.28 3.15,1.42 3.07,1.57 2.98,1.72 2.88,1.84 2.79,1.98 2.68,2.11 2.58,2.23 2.47,2.35 2.35,2.46 2.24,2.58 2.11,2.68 1.99,2.78 1.85,2.89 1.72,2.97 1.57,3.07 1.43,3.16 1.28,3.23 1.13,3.31 0.96,3.38 0.8,3.45 0.63,3.51 0.46,3.56 0.28,3.61 z"
   id="path18"
   inkscape:connector-curvature="0"
   style="fill:#fff212;fill-rule:nonzero" />
  </g>
  <rect
   class="fil2"
   x="12631.26"
   y="6579.3901"
   width="4194.7202"
   height="370.85999"
   id="rect22"
   style="fill:none" />
  <path
   class="fil1"
   d="m 13741.8,6658.04 2681.62,-1.96 c 0,0 92.99,3.52 158.53,32.21 39.22,17.18 127.83,63.1 127.83,63.1 l 47.98,0.36 c 0,0 -110.89,-67.56 -171.44,-98.59 -51.02,-26.16 -130.45,-53.31 -198.06,-60.73 -56.6,-6.21 -357.45,-3.71 -357.45,-3.71 l -65.04,0.05 v 47.34 c 0,10.17 -8.78,18.41 -19.62,18.41 h -86.58 c -10.84,0 -19.62,-8.24 -19.62,-18.41 v -47.24 l -2098.15,1.61 z m 3043.38,-110.72 c 0,-6.32 -12.27,-11.44 -27.41,-11.44 -15.14,0 -27.41,5.12 -27.41,11.44 0,6.31 12.27,11.43 27.41,11.43 15.14,0 27.41,-5.12 27.41,-11.43 z m -204.63,-141.62 c -39.59,-17.14 -170.57,-68.59 -201.03,-71.46 6.09,25.73 54.82,77.19 76.15,91.47 21.32,14.3 155.34,60.03 219.31,77.19 54.53,14.62 106.71,16.76 120.96,17.09 -79.14,-44.36 -185.48,-101.33 -215.39,-114.29 z m 248.8,190.21 c 10.94,0 19.8,-6.4 19.8,-14.29 0,-7.89 -8.86,-14.29 -19.8,-14.29 -10.94,0 -19.8,6.4 -19.8,14.29 0,7.89 8.86,14.29 19.8,14.29 z m -749.87,-136.92 v 114.85 c 0,0 189.97,-1.71 233.81,0 43.84,1.71 102.29,6.85 137,17.14 34.7,10.28 98.63,29.13 98.63,29.13 l 32.88,-58.27 c 0,0 -67.58,-34.29 -126.04,-58.28 -59.8,-24.55 -116.9,-36 -179,-39.43 -40.16,-2.21 -197.28,-5.14 -197.28,-5.14 z m -234.66,-23.72 v 189.77 c 0,9.38 8.1,16.99 18.1,16.99 h 79.89 c 9.99,0 18.1,-7.61 18.1,-16.99 v -189.77 c 0,-9.38 -8.11,-17 -18.1,-17 h -79.89 c -10,0 -18.1,7.62 -18.1,17 z m -42.45,-14.65 v 18.75 h 14.98 v -18.75 z m -1846.93,46.66 v 105.76 h 1784.97 v -105.76 z m 2327.37,-101.63 c -66.49,-2.84 -209.16,2.81 -210.59,2.86 h -2314.77 v 8.89 h 2314.97 c 1.64,-0.06 143.92,-5.7 209.96,-2.87 65.56,2.8 135.03,25.26 135.72,25.49 l -9.46,-10.74 c -0.71,-0.23 -58.91,-20.77 -125.83,-23.63 z m -1136.37,-24.14 h -109.66 v 17.16 h 109.66 z m -155.35,0 h -109.65 v 17.16 h 109.65 z m -137.07,0 h -109.66 v 17.16 h 109.66 z m -155.35,0 h -109.66 v 17.16 h 109.66 z m -977.77,40.02 v 17.15 h 18.28 v -57.17 h 194.94 l 30.46,11.43 h 566.56 l 33.51,-22.86 603.11,2.86 39.6,28.58 c 0,0 560.46,0 587.88,-2.85 27.41,-2.87 134.01,-5.73 170.57,-14.3 36.55,-8.58 146.2,-28.59 201.04,-28.59 54.82,0 162.32,1.75 210.17,11.44 29.92,6.06 161.44,54.31 201.04,71.46 39.59,17.15 213.22,111.47 280.23,151.49 67.01,40.02 124.89,102.91 134.02,117.21 9.14,14.28 -3.05,40.01 -3.05,40.01 0,0 -27.41,31.44 -48.73,34.3 -21.32,2.85 -42.64,2.85 -45.69,20.01 -3.05,17.14 18.28,17.14 18.28,17.14 l -380.75,-5.71 -21.33,-42.87 h -6.67 c 8.51,9.07 13.71,20.95 13.71,33.99 0,28.46 -24.59,51.54 -54.93,51.54 -30.33,0 -54.92,-23.08 -54.92,-51.54 0,-13.04 5.2,-24.92 13.71,-33.99 h -3.33 l -41.59,62.88 -88.33,2.86 -9.14,-22.87 h -10.34 c -4.5,24.22 -26.96,42.66 -54.06,42.66 -27.1,0 -49.56,-18.44 -54.05,-42.66 h -1814.32 c -4.49,24.22 -26.96,42.66 -54.05,42.66 -27.1,0 -49.56,-18.44 -54.05,-42.66 h -12.14 l -15.22,20.01 h -94.43 l -9.15,-20.01 h -8.96 c -4.49,24.22 -26.95,42.66 -54.05,42.66 -27.1,0 -49.57,-18.44 -54.06,-42.66 h -224.08 c -12.18,0 -12.09,0 -12.09,0 l -0.06,-42.87 h -12.21 v -42.88 H 13727 v 14.29 h -21.33 v -320.14 z"
   id="path24"
   inkscape:connector-curvature="0"
   style="fill:#fff212;fill-rule:nonzero" />
  <path
   class="fil1"
   d="m 12998.97,4322.57 h 1543.28 c 348.27,0 613.61,28.28 796.03,85.87 244.85,77.5 455.56,215.75 630.19,414.73 175.59,197.93 308.26,440.9 399.96,728.9 65.24,206.34 107.28,447.9 125.74,723.87 h -869.32 c -12.1,-206.3 -37.92,-373.72 -77.81,-502.9 -95.95,-316.11 -271.25,-564.18 -629.21,-647.21 -117.07,-28.27 -348.27,-42.94 -691.65,-42.94 h -378.5 v 1193.05 h -848.71 z m 3500,2525.98 c -14.57,272.76 -55.48,513.67 -122.74,723.71 -104.37,327.79 -253.63,592.76 -447.76,794.88 -146.33,153.95 -344.37,273.34 -593.12,359.21 -186.32,63.88 -435.08,95.3 -747.25,95.3 h -1589.13 v -1973.1 h 848.71 v 1212.78 h 629.21 c 235.1,0 404.84,-14.66 509.23,-42.94 137.55,-36.65 250.7,-99.48 340.45,-187.46 90.73,-87.97 163.89,-232.49 220.47,-433.56 41.42,-144.69 67.69,-327.9 79.16,-548.82 z"
   id="path26"
   inkscape:connector-curvature="0"
   style="fill:#fff212;fill-rule:nonzero" />
  <g
   id="g30">
   <path
   class="fil1"
   d="m 9569.51,6411.55 3947.45,-1.65 v 20 l -3947.45,1.65 z m -49.11,81.14 -0.02,-35.56 v 0 l 1.84,-0.05 1.81,-0.14 1.77,-0.22 1.74,-0.32 1.71,-0.39 1.68,-0.48 1.64,-0.56 1.61,-0.63 1.57,-0.71 1.53,-0.79 1.49,-0.86 1.44,-0.93 1.4,-0.99 1.35,-1.06 1.3,-1.12 1.24,-1.19 1.18,-1.24 1.13,-1.29 1.06,-1.35 0.99,-1.4 0.93,-1.45 0.86,-1.48 0.78,-1.54 0.71,-1.57 0.64,-1.61 0.56,-1.64 0.47,-1.68 0.4,-1.71 0.31,-1.75 0.23,-1.77 0.13,-1.81 0.05,-1.84 35.56,-0.02 -0.09,3.64 -0.27,3.61 -0.46,3.56 -0.62,3.51 -0.8,3.45 -0.96,3.38 -1.13,3.31 -1.27,3.24 -1.43,3.15 -1.57,3.07 -1.72,2.98 -1.85,2.89 -1.98,2.78 -2.11,2.69 -2.24,2.57 -2.35,2.47 -2.46,2.35 -2.58,2.23 -2.68,2.11 -2.79,1.98 -2.88,1.85 -2.98,1.72 -3.06,1.57 -3.16,1.43 -3.23,1.28 -3.31,1.12 -3.37,0.96 -3.45,0.8 -3.5,0.63 -3.55,0.45 -3.6,0.28 z m -71.15,-71.09 35.56,-0.02 v 0 l 0.05,1.85 0.14,1.81 0.22,1.77 0.32,1.75 0.39,1.71 0.48,1.68 0.56,1.64 0.64,1.61 0.71,1.57 0.79,1.53 0.86,1.49 0.93,1.44 0.99,1.4 1.06,1.35 1.13,1.29 1.18,1.24 1.24,1.19 1.3,1.12 1.35,1.06 1.4,0.99 1.45,0.93 1.49,0.85 1.53,0.79 1.57,0.71 1.61,0.63 1.64,0.56 1.68,0.48 1.71,0.39 1.74,0.31 1.77,0.23 1.81,0.13 1.83,0.05 0.02,35.56 -3.64,-0.09 -3.6,-0.27 -3.55,-0.46 -3.51,-0.62 -3.44,-0.8 -3.38,-0.95 -3.31,-1.12 -3.23,-1.28 -3.15,-1.42 -3.07,-1.57 -2.98,-1.72 -2.88,-1.84 -2.79,-1.98 -2.68,-2.11 -2.58,-2.23 -2.47,-2.35 -2.35,-2.46 -2.24,-2.58 -2.11,-2.68 -1.99,-2.78 -1.85,-2.89 -1.72,-2.98 -1.57,-3.06 -1.43,-3.16 -1.28,-3.23 -1.13,-3.31 -0.96,-3.38 -0.8,-3.45 -0.63,-3.51 -0.46,-3.56 -0.28,-3.61 z m 71.09,-71.15 0.02,35.56 v 0 l -1.84,0.05 -1.81,0.14 -1.77,0.22 -1.74,0.32 -1.71,0.39 -1.68,0.48 -1.64,0.56 -1.61,0.63 -1.57,0.71 -1.53,0.79 -1.49,0.86 -1.44,0.93 -1.4,0.99 -1.35,1.06 -1.3,1.12 -1.24,1.19 -1.18,1.24 -1.13,1.29 -1.06,1.35 -0.99,1.4 -0.93,1.45 -0.86,1.48 -0.78,1.54 -0.71,1.57 -0.64,1.61 -0.56,1.64 -0.47,1.68 -0.4,1.71 -0.31,1.75 -0.23,1.77 -0.13,1.81 -0.05,1.84 -35.56,0.02 0.09,-3.64 0.27,-3.61 0.46,-3.56 0.62,-3.51 0.8,-3.45 0.96,-3.38 1.13,-3.31 1.27,-3.24 1.43,-3.15 1.57,-3.07 1.72,-2.98 1.85,-2.89 1.98,-2.78 2.11,-2.69 2.24,-2.57 2.35,-2.47 2.46,-2.35 2.58,-2.23 2.68,-2.11 2.79,-1.98 2.88,-1.85 2.98,-1.72 3.06,-1.57 3.16,-1.43 3.23,-1.28 3.31,-1.12 3.37,-0.96 3.45,-0.8 3.5,-0.63 3.55,-0.45 3.6,-0.28 z m 71.15,71.09 -35.56,0.02 -0.05,-1.85 -0.14,-1.81 -0.22,-1.77 -0.32,-1.75 -0.39,-1.71 -0.48,-1.68 -0.56,-1.64 -0.64,-1.61 -0.71,-1.57 -0.79,-1.53 -0.86,-1.49 -0.93,-1.44 -0.99,-1.4 -1.06,-1.35 -1.13,-1.29 -1.18,-1.24 -1.24,-1.19 -1.3,-1.12 -1.35,-1.06 -1.4,-0.99 -1.45,-0.93 -1.49,-0.85 -1.53,-0.79 -1.57,-0.71 -1.61,-0.63 -1.64,-0.56 -1.68,-0.48 -1.71,-0.39 -1.74,-0.31 -1.77,-0.23 -1.81,-0.13 -1.83,-0.05 -0.02,-35.56 3.64,0.09 3.6,0.27 3.55,0.46 3.51,0.62 3.44,0.8 3.38,0.95 3.31,1.12 3.23,1.28 3.15,1.42 3.07,1.57 2.98,1.72 2.88,1.84 2.79,1.98 2.68,2.11 2.58,2.23 2.47,2.35 2.35,2.46 2.24,2.58 2.11,2.68 1.99,2.78 1.85,2.89 1.72,2.98 1.57,3.06 1.43,3.16 1.28,3.23 1.13,3.31 0.96,3.38 0.8,3.45 0.63,3.51 0.46,3.56 0.28,3.61 z"
   id="path28"
   inkscape:connector-curvature="0"
   style="fill:#fff212;fill-rule:nonzero" />
  </g>
  <g
   id="g34">
   <path
   class="fil1"
   d="m 13625.71,6773.33 v 0 l -3.63,-0.09 -3.61,-0.27 -3.55,-0.45 -3.5,-0.63 -3.45,-0.79 -3.37,-0.96 -3.31,-1.12 -3.24,-1.28 -3.15,-1.42 -3.07,-1.57 -2.98,-1.71 -2.88,-1.85 -2.79,-1.98 -2.68,-2.11 -2.58,-2.23 -2.47,-2.35 -2.35,-2.46 -2.24,-2.58 -2.11,-2.68 -1.98,-2.78 -1.86,-2.89 -1.72,-2.97 -1.57,-3.07 -1.43,-3.15 -1.28,-3.24 -1.13,-3.31 -0.96,-3.38 -0.8,-3.45 -0.63,-3.51 -0.46,-3.56 -0.28,-3.6 -0.09,-3.65 35.56,-0.01 0.05,1.84 0.14,1.81 0.22,1.77 0.32,1.75 0.39,1.71 0.48,1.68 0.56,1.64 0.64,1.61 0.71,1.57 0.79,1.53 0.86,1.49 0.93,1.45 0.99,1.39 1.06,1.35 1.13,1.3 1.18,1.24 1.25,1.18 1.29,1.12 1.35,1.06 1.4,0.99 1.45,0.93 1.49,0.85 1.53,0.79 1.57,0.71 1.61,0.63 1.64,0.56 1.68,0.48 1.71,0.39 1.74,0.31 1.77,0.23 1.81,0.13 1.84,0.05 v 0 z m 71.09,-71.15 v 0 l -0.09,3.64 -0.27,3.61 -0.46,3.56 -0.62,3.51 -0.8,3.45 -0.96,3.38 -1.12,3.31 -1.28,3.24 -1.43,3.15 -1.57,3.07 -1.72,2.98 -1.85,2.88 -1.98,2.79 -2.11,2.68 -2.23,2.58 -2.36,2.47 -2.46,2.35 -2.58,2.23 -2.68,2.11 -2.79,1.98 -2.88,1.85 -2.98,1.72 -3.06,1.57 -3.15,1.43 -3.24,1.27 -3.3,1.13 -3.38,0.96 -3.44,0.8 -3.51,0.63 -3.55,0.45 -3.6,0.28 -3.64,0.09 -0.01,-35.56 1.83,-0.05 1.81,-0.14 1.77,-0.22 1.74,-0.32 1.71,-0.39 1.68,-0.48 1.64,-0.56 1.61,-0.63 1.57,-0.72 1.53,-0.78 1.49,-0.86 1.45,-0.93 1.39,-0.99 1.35,-1.06 1.3,-1.12 1.24,-1.19 1.18,-1.24 1.13,-1.3 1.06,-1.34 0.99,-1.4 0.93,-1.45 0.86,-1.49 0.78,-1.53 0.71,-1.57 0.64,-1.61 0.56,-1.64 0.47,-1.68 0.4,-1.71 0.31,-1.75 0.23,-1.77 0.13,-1.81 0.05,-1.85 v 0 z m -71.15,-71.09 v 0 l 3.63,0.09 3.61,0.27 3.55,0.45 3.5,0.63 3.45,0.79 3.37,0.96 3.31,1.12 3.24,1.28 3.15,1.42 3.07,1.57 2.98,1.71 2.88,1.85 2.79,1.98 2.68,2.11 2.58,2.23 2.47,2.35 2.35,2.46 2.24,2.58 2.11,2.68 1.98,2.78 1.86,2.89 1.72,2.97 1.57,3.07 1.43,3.15 1.28,3.24 1.13,3.31 0.96,3.38 0.8,3.45 0.63,3.51 0.46,3.56 0.28,3.6 0.09,3.65 -35.56,0.01 -0.05,-1.84 -0.14,-1.81 -0.22,-1.77 -0.32,-1.75 -0.39,-1.71 -0.48,-1.68 -0.56,-1.64 -0.64,-1.61 -0.71,-1.57 -0.79,-1.53 -0.86,-1.49 -0.93,-1.45 -0.99,-1.39 -1.06,-1.35 -1.13,-1.3 -1.18,-1.24 -1.25,-1.18 -1.29,-1.12 -1.35,-1.06 -1.4,-0.99 -1.45,-0.93 -1.49,-0.85 -1.53,-0.79 -1.57,-0.71 -1.61,-0.63 -1.64,-0.56 -1.68,-0.48 -1.71,-0.39 -1.74,-0.31 -1.77,-0.23 -1.81,-0.13 -1.84,-0.05 v 0 z m -71.09,71.15 0.09,-3.64 0.27,-3.61 0.46,-3.56 0.62,-3.51 0.8,-3.45 0.96,-3.38 1.12,-3.31 1.28,-3.24 1.43,-3.15 1.57,-3.07 1.72,-2.98 1.85,-2.88 1.98,-2.79 2.11,-2.68 2.23,-2.58 2.36,-2.47 2.46,-2.35 2.58,-2.23 2.68,-2.11 2.79,-1.98 2.88,-1.85 2.98,-1.72 3.06,-1.57 3.15,-1.43 3.24,-1.27 3.3,-1.13 3.38,-0.96 3.44,-0.8 3.51,-0.63 3.55,-0.45 3.6,-0.28 3.64,-0.09 0.01,35.56 -1.83,0.05 -1.81,0.14 -1.77,0.22 -1.74,0.32 -1.71,0.39 -1.68,0.48 -1.64,0.56 -1.61,0.63 -1.57,0.72 -1.53,0.78 -1.49,0.86 -1.45,0.93 -1.39,0.99 -1.35,1.06 -1.3,1.12 -1.24,1.19 -1.18,1.24 -1.13,1.3 -1.06,1.34 -0.99,1.4 -0.93,1.45 -0.86,1.49 -0.78,1.53 -0.71,1.57 -0.64,1.61 -0.56,1.64 -0.47,1.68 -0.4,1.71 -0.31,1.75 -0.23,1.77 -0.13,1.81 -0.05,1.85 z m -3607.24,-8.36 3629.22,-1.65 v 20 l -3629.22,1.65 z"
   id="path32"
   inkscape:connector-curvature="0"
   style="fill:#fff212;fill-rule:nonzero" />
  </g>
  <path
   class="fil1"
   d="M 10817.6,8822.56 V 6853.05 h 893.49 v 1969.51 z m 0,-2542.12 V 5083.79 H 9511.26 v -760.32 h 3499.99 v 760.32 h -1300.16 v 1196.65 z"
   id="path36"
   inkscape:connector-curvature="0"
   style="fill:#fff212;fill-rule:nonzero" />
 </g>
</svg>