<?xml version="1.0" encoding="iso-8859-1"?>
<!-- Generator: Adobe Illustrator 19.0.0, SVG Export Plug-In . SVG Version: 6.00 Build 0)  -->
<svg version="1.1" id="Capa_1" xmlns="http://www.w3.org/2000/svg" xmlns:xlink="http://www.w3.org/1999/xlink" x="0px" y="0px"
	 viewBox="0 0 512 512" style="enable-background:new 0 0 512 512;" xml:space="preserve">
<g>
	<g>
		<path d="M486.107,264.265l-168.3-119.303c-14.982-10.421-33.152-16.164-51.163-16.164H16.499v31.933h250.146
			c11.549,0,23.242,3.71,32.812,10.362l168.305,119.303c7.824,5.439,12.31,14.242,12.31,24.147c0,16.435-13.375,29.805-29.81,29.805
			H16.499v31.933h433.763c34.041,0,61.738-27.692,61.738-61.738C512,294.331,502.276,275.506,486.107,264.265z"/>
	</g>
</g>
<g>
	<g>
		<path d="M256,184.15H16.499v31.933h223.534v30.337H16.499v31.933H256c8.819,0,15.967-7.142,15.967-15.967v-62.27
			C271.967,191.297,264.819,184.15,256,184.15z"/>
	</g>
</g>
<g>
	<g>
		<rect x="177.231" y="200.116" width="31.933" height="62.27"/>
	</g>
</g>
<g>
	<g>
		<rect x="114.961" y="200.116" width="31.933" height="62.27"/>
	</g>
</g>
<g>
	<g>
		<rect x="52.158" y="200.116" width="31.933" height="62.27"/>
	</g>
</g>
<g>
	<g>
		<path d="M416.2,360.316c0,14.088-11.464,25.547-25.547,25.547c-14.093,0-25.552-11.464-25.552-25.547h-31.933
			c0,31.694,25.786,57.48,57.486,57.48c31.694,0,57.48-25.786,57.48-57.48H416.2z"/>
	</g>
</g>
<g>
	<g>
		<path d="M321.996,360.316c0,14.088-11.459,25.547-25.547,25.547c-14.088,0-25.547-11.464-25.547-25.547h-31.933
			c0,31.694,25.786,57.48,57.48,57.48s57.48-25.786,57.48-57.48H321.996z"/>
	</g>
</g>
<g>
	<g>
		<path d="M194.794,360.316c0,14.088-11.459,25.547-25.547,25.547c-14.029,0-25.015-11.225-25.015-25.547h-31.933
			c0,31.694,25.547,57.48,56.948,57.48c31.694,0,57.48-25.786,57.48-57.48H194.794z"/>
	</g>
</g>
<g>
	<g>
		<path d="M100.59,360.316c0,14.088-11.464,25.547-25.547,25.547c-14.088,0-25.547-11.464-25.547-25.547H17.563
			c0,31.694,25.786,57.48,57.48,57.48s57.48-25.786,57.48-57.48H100.59z"/>
	</g>
</g>
<g>
	<g>
		<path d="M481.131,422.054H31.933V73.979c0-8.819-7.148-15.967-15.967-15.967S0,65.16,0,73.979v364.042
			c0,8.819,7.148,15.967,15.967,15.967h465.164c8.824,0,15.967-7.148,15.967-15.967C497.098,429.202,489.95,422.054,481.131,422.054
			z"/>
	</g>
</g>
<g>
	<g>
		<path d="M345.414,259.193c-14.093,0-25.552-11.464-25.552-25.547v-79.302h-31.933v79.302c0,31.694,25.786,57.48,57.486,57.48
			h125.073v-31.933H345.414z"/>
	</g>
</g>
<g>
</g>
<g>
</g>
<g>
</g>
<g>
</g>
<g>
</g>
<g>
</g>
<g>
</g>
<g>
</g>
<g>
</g>
<g>
</g>
<g>
</g>
<g>
</g>
<g>
</g>
<g>
</g>
<g>
</g>
</svg>
