<?xml version="1.0" encoding="iso-8859-1"?>
<!-- Generator: Adobe Illustrator 19.0.0, SVG Export Plug-In . SVG Version: 6.00 Build 0)  -->
<svg version="1.1" id="Capa_1" xmlns="http://www.w3.org/2000/svg" xmlns:xlink="http://www.w3.org/1999/xlink" x="0px" y="0px"
	 viewBox="0 0 511.999 511.999" style="enable-background:new 0 0 511.999 511.999;" xml:space="preserve">
<g>
	<g>
		<path d="M492.445,207.091l-37.219-3.942c-10.78-19.342-25.299-36.715-43.293-51.813l1.825-16.795
			c2.43-21.877,2.838-28.121,2.069-33.134c-1.623-12.689-12.042-21.538-25.543-21.665c-14.647-0.419-36.805,5.904-68.104,19.32
			l12.535,29.256c27.129-11.623,41.829-15.315,49.346-16.376c-0.483,5.995-1.432,14.604-1.936,19.129l-2.652,24.402
			c-0.064,0.573-0.095,1.146-0.095,1.719c0,6.323,2.827,10.477,5.193,12.843c0.472,0.472,0.971,0.918,1.501,1.326
			c19.357,15.008,34.264,32.8,44.322,52.895c0.759,1.517,1.751,2.902,2.95,4.106c1.332,1.332,5.209,5.225,11.586,5.703l35.246,3.729
			v81.228l-35.267,3.735c-4.249,0.324-8.143,2.249-11.586,5.724c-1.241,1.263-2.265,2.716-3.034,4.313
			c-5.846,12.185-13.549,23.57-22.891,33.85c-1.888,2.074-3.183,4.594-3.772,7.299c-1.225,4.568-0.573,9.172,1.751,13.018
			c8.106,17.22,3.586,37.537-11.098,49.648c-19.198,15.591-48.688,14.27-67.085-2.918l-9.772-9.246
			c-2.366-2.371-6.52-5.193-12.843-5.193c-0.907,0-1.82,0.08-2.716,0.233c-25.257,4.361-52.036,3.512-77.462-2.461
			c-1.199-0.286-2.419-0.424-3.644-0.424c-6.323,0-10.472,2.828-12.61,4.965l-13.23,12.705
			c-8.854,8.451-20.779,13.103-33.575,13.103l-1.65,0.005c-13.464-0.398-25.432-5.671-34.545-15.198
			c-13.952-14.705-14.61-37.707-1.576-54.693c0.615-0.801,1.156-1.66,1.607-2.568c3.926-7.857,1.751-14.896-1.894-19.304
			c-17.793-23.066-27.193-49.85-27.193-77.472v-6.907c0.918-13.443,5.135-28.27,12.01-42.529l7.183-13.856
			c16.986-27.92,44.206-50.911,76.703-64.767L179.5,120.802c-38.768,16.53-71.34,44.243-91.732,78.035
			c-0.175,0.292-0.345,0.594-0.504,0.896l-7.628,14.732c-9.066,18.774-14.228,37.362-15.347,55.261
			c-0.021,0.334-0.032,0.663-0.032,0.997v7.422c0,31.575,9.671,62.136,28.063,88.995c-16.09,28.286-12.61,63.393,9.772,86.989
			c14.848,15.522,34.97,24.424,57.123,25.071h2.122c21.018,0,40.747-7.782,55.584-21.941l7.894-7.581
			c24.853,4.934,50.619,5.703,75.366,2.276l5.193,4.918c16.047,15.002,36.704,22.604,57.33,22.599
			c18.371,0,36.715-6.032,51.728-18.233c23.994-19.793,32.667-51.76,22.747-80.438c6.955-8.52,13.034-17.602,18.185-27.145
			l37.622-3.984c0.477-0.053,0.96-0.122,1.432-0.218c10.185-2.026,17.58-10.827,17.58-20.912V228.279
			C511.999,216.974,503.331,207.701,492.445,207.091z"/>
	</g>
</g>
<g>
	<g>
		<path d="M117.427,187.856c-6.212-6.217-16.291-6.217-22.503,0c-14.419,14.419-37.871,14.413-52.295,0
			c-14.419-14.419-14.419-37.877,0-52.295c6.217-6.217,6.217-16.291,0-22.509c-6.217-6.212-16.291-6.217-22.509,0
			c-26.827,26.827-26.827,70.481,0,97.307c13.411,13.411,31.034,20.116,48.651,20.116c17.623,0,35.24-6.705,48.656-20.116
			C123.645,204.147,123.645,194.068,117.427,187.856z"/>
	</g>
</g>
<g>
	<g>
		<circle cx="349.664" cy="242.602" r="15.915"/>
	</g>
</g>
<g>
	<g>
		<path d="M255.768,32.529c-48.264,0-87.53,39.267-87.53,87.53c0,30.683,15.527,58.555,41.527,74.56l16.679-27.108
			c-16.514-10.164-26.376-27.904-26.376-47.452c0-30.715,24.986-55.701,55.701-55.701c30.715,0,55.701,24.986,55.701,55.701
			c0,18.938-9.432,36.174-25.883,47.288l17.819,26.376c24.981-16.88,39.893-44.418,39.893-73.663
			C343.298,71.796,304.032,32.529,255.768,32.529z"/>
	</g>
</g>
<g>
	<g>
		<path d="M333.219,165.681H178.317c-8.79,0-15.915,7.124-15.915,15.915c0,8.79,7.124,15.915,15.915,15.915h154.902
			c8.795,0,15.915-7.124,15.915-15.915C349.134,172.806,342.009,165.681,333.219,165.681z"/>
	</g>
</g>
<g>
</g>
<g>
</g>
<g>
</g>
<g>
</g>
<g>
</g>
<g>
</g>
<g>
</g>
<g>
</g>
<g>
</g>
<g>
</g>
<g>
</g>
<g>
</g>
<g>
</g>
<g>
</g>
<g>
</g>
</svg>
