<?xml version="1.0" encoding="iso-8859-1"?>
<!-- Generator: Adobe Illustrator 19.0.0, SVG Export Plug-In . SVG Version: 6.00 Build 0)  -->
<svg version="1.1" id="Capa_1" xmlns="http://www.w3.org/2000/svg" xmlns:xlink="http://www.w3.org/1999/xlink" x="0px" y="0px"
	 viewBox="0 0 437 437" style="enable-background:new 0 0 437 437;" xml:space="preserve">
<g>
	<g>
		<path d="M159.538,259h-39c-5.5,0-10,4.5-10,10v157c0,5.5,4.5,10,10,10h39c5.5,0,10-4.5,10-10V269
			C169.538,263.5,165.038,259,159.538,259z M149.538,416h-19V279h19V416z"/>
	</g>
</g>
<g>
	<g>
		<path d="M238.538,236h-39c-5.5,0-10,4.5-10,10v181c0,5.5,4.5,10,10,10h39c5.5,0,10-4.5,10-10V246
			C248.538,240.5,244.038,236,238.538,236z M228.538,416h-19V256h19V416z"/>
	</g>
</g>
<g>
	<g>
		<path d="M81.538,345h-39c-5.5,0-10,4.5-10,10v71c0,5.5,4.5,10,10,10h39c5.5,0,10-4.5,10-10v-71
			C91.538,349.5,87.038,345,81.538,345z M70.538,416h-18v-51h18V416z"/>
	</g>
</g>
<g>
	<g>
		<path d="M316.538,178h-39c-5.5,0-10,4.5-10,10v238c0,5.5,4.5,10,10,10h39c5.5,0,10-4.5,10-10V188
			C326.538,182.5,322.038,178,316.538,178z M306.538,416h-19V198h19V416z"/>
	</g>
</g>
<g>
	<g>
		<path d="M395.538,126h-39c-5.5,0-10,4.5-10,10v290c0,5.5,4.5,10,10,10h39c5.5,0,10-4.5,10-10V136
			C405.538,130.5,401.038,126,395.538,126z M384.538,416h-18V146h18V416z"/>
	</g>
</g>
<g>
	<g>
		<path d="M410.438,2.7c-2-1.7-4.5-2.7-7.2-2.7h-68.5c-5.5,0-10,4.5-10,10s4.5,10,10,10l44.2-0.1l-108.1,108.2l-37.9-38.1
			c-1.9-1.9-4.4-3-7.1-3.1c-2.7,0.1-5.2,1.2-7.1,3.1l-192,192.2c-4,3.8-4.1,10.2-0.3,14.2s10.2,4.1,14.2,0.3
			c0.1-0.1,0.2-0.2,0.3-0.2l185-185l37.9,37.8c1.9,1.8,4.4,2.8,7.1,2.8c2.6,0,5.2-1,7.1-2.8L393.338,34l-0.1,44.1
			c0,5.5,4.4,9.9,9.9,9.9h0.1c5.5,0.1,9.9-4.3,10-9.8c0,0,0,0,0-0.1l0.1-68.4C413.338,7.1,412.238,4.6,410.438,2.7z"/>
	</g>
</g>
<g>
</g>
<g>
</g>
<g>
</g>
<g>
</g>
<g>
</g>
<g>
</g>
<g>
</g>
<g>
</g>
<g>
</g>
<g>
</g>
<g>
</g>
<g>
</g>
<g>
</g>
<g>
</g>
<g>
</g>
</svg>
