<svg xmlns="http://www.w3.org/2000/svg" xmlns:xlink="http://www.w3.org/1999/xlink" viewBox="0 0 170.58 170.98"><defs><style>.cls-1{fill:url(#Degradado_sin_nombre_4);}.cls-2{fill:#999;}.cls-3{fill:url(#Degradado_sin_nombre_4-2);}.cls-4{fill:url(#Degradado_sin_nombre_4-3);}</style><radialGradient id="Degradado_sin_nombre_4" cx="3.43" cy="-46.55" r="681.3" gradientUnits="userSpaceOnUse"><stop offset="0" stop-color="#332700"/><stop offset="0.02" stop-color="#c87a00"/><stop offset="0.24" stop-color="#ffbf00"/><stop offset="0.38" stop-color="#c87a00"/><stop offset="0.67" stop-color="#ffbf00"/><stop offset="0.78" stop-color="#c87a00"/><stop offset="1" stop-color="#332700"/></radialGradient><radialGradient id="Degradado_sin_nombre_4-2" cx="-32.82" cy="-10.74" r="538" xlink:href="#Degradado_sin_nombre_4"/><radialGradient id="Degradado_sin_nombre_4-3" cx="153.67" cy="149.79" r="157.04" xlink:href="#Degradado_sin_nombre_4"/></defs><title>Recurso 49</title><g id="Capa_2" data-name="Capa 2"><g id="Capa_1-2" data-name="Capa 1"><path class="cls-1" d="M132.17,129.75a19.33,19.33,0,0,0-14.86-12.88l-18.43-3.35v-1.43a27.64,27.64,0,0,0,8.22-7.3h5.57a8.29,8.29,0,0,0,8.27-8.27V63.43a35.85,35.85,0,1,0-71.7,0v19.3A11.07,11.07,0,0,0,58,93.54a27.66,27.66,0,0,0,13.27,18.55v1.43l-18.43,3.35a19.26,19.26,0,0,0-11.21,6.44l3.91,3.91a13.77,13.77,0,0,1,8.28-4.93l19.27-3.5,12,12,12-12,19.28,3.5a13.82,13.82,0,0,1,10.61,9.21l4,11.9H88.2l5.52,5.51h44.83ZM115.43,96.52a2.76,2.76,0,0,1-2.76,2.75h-2.32a28.5,28.5,0,0,0,1.8-5.73,11.85,11.85,0,0,0,3.28-1.31Zm-2.76-9V78a5.47,5.47,0,0,1,0,9.5Zm-55.15,0a5.47,5.47,0,0,1,0-9.5Zm0-18.54v3.15a10.5,10.5,0,0,0-2.76,1.14v-9.8a30.34,30.34,0,1,1,60.67,0v9.8a10.79,10.79,0,0,0-2.76-1.14V68.94h-2.76A30.28,30.28,0,0,1,88.33,60L85.1,56.77,81.86,60a30.32,30.32,0,0,1-21.59,8.94Zm35.85,45.74L85.1,123l-8.28-8.27v-.14a27.39,27.39,0,0,0,16.55,0Zm-8.27-4.37A22.09,22.09,0,0,1,63,88.24V74.35a35.79,35.79,0,0,0,22.07-9.8,35.69,35.69,0,0,0,22.05,9.8V88.24a22,22,0,0,1-3,11H85.1v5.52H99.63A21.86,21.86,0,0,1,85.1,110.31Z"/><path class="cls-2" d="M79.38,148.91h0L73.9,143.4h0L63.12,132.66,51.19,143.45a2.83,2.83,0,0,1-3.9,0l-6-6h0l-4.36-4.35-.95-.95-8.44-8.45a2.75,2.75,0,0,1,0-3.9l10.89-10.88L18,88.44,5.65,100.75a19.31,19.31,0,0,0,0,27.3l37.28,37.27a19.27,19.27,0,0,0,27.2.08l13.44-12.31ZM18,96.24l12.64,12.65-3,3L15,99.23Zm48.35,65.18a13.79,13.79,0,0,1-19.5,0L9.55,124.15a13.79,13.79,0,0,1,0-19.5l1.52-1.52,12.64,12.65-.1.11a8.26,8.26,0,0,0,0,11.69l19.78,19.77a8.26,8.26,0,0,0,11.6.1l.21-.18L67.9,160ZM72,156.24,59.29,143.56l3.65-3.29,12.65,12.65Z"/><path class="cls-2" d="M162.31,0H123.7a8.28,8.28,0,0,0-8.27,8.27V30.33a8.29,8.29,0,0,0,8.27,8.28h7.36l-2.85,16.63,26.61-16.63h7.49a8.29,8.29,0,0,0,8.27-8.28V8.27A8.28,8.28,0,0,0,162.31,0Zm2.75,30.33a2.76,2.76,0,0,1-2.75,2.76h-9.07L135.73,44l1.87-10.95H123.7a2.77,2.77,0,0,1-2.76-2.76V8.27a2.76,2.76,0,0,1,2.76-2.75h38.61a2.75,2.75,0,0,1,2.75,2.75Z"/><rect class="cls-2" x="126.46" y="11.03" width="33.09" height="5.52"/><rect class="cls-2" x="126.46" y="22.06" width="22.06" height="5.52"/><rect class="cls-2" x="154.03" y="22.06" width="5.52" height="5.52"/><path class="cls-3" d="M85.09,8.27A77.18,77.18,0,0,0,10,68L4.73,59.25,0,62.09,9.69,78.24l16.15-9.69L23,63.82,15.53,68.3A71.72,71.72,0,0,1,106.34,17L108,11.72A77.13,77.13,0,0,0,85.09,8.27Z"/><path class="cls-4" d="M169.24,61.06l-16.15-9.69L143.4,67.52l4.72,2.84,4.83-8a71.77,71.77,0,0,1-12.15,68.32l4.28,3.47A77.28,77.28,0,0,0,158.3,60.93l8.1,4.86Z"/><polyline class="cls-2" points="35.96 132.12 36.91 133.07 41.27 137.43 41.27 137.43 42.69 138.85"/></g></g></svg>