<svg xmlns="http://www.w3.org/2000/svg" xmlns:xlink="http://www.w3.org/1999/xlink" viewBox="0 0 142.6 161.86"><defs><style>.cls-1{fill:#999;}.cls-2{fill:url(#Degradado_sin_nombre_4);}.cls-3{fill:url(#Degradado_sin_nombre_4-2);}.cls-4{fill:url(#Degradado_sin_nombre_4-3);}</style><radialGradient id="Degradado_sin_nombre_4" cx="-9.66" cy="28.68" r="289.07" gradientUnits="userSpaceOnUse"><stop offset="0" stop-color="#332700"/><stop offset="0.02" stop-color="#c87a00"/><stop offset="0.24" stop-color="#ffbf00"/><stop offset="0.38" stop-color="#c87a00"/><stop offset="0.67" stop-color="#ffbf00"/><stop offset="0.78" stop-color="#c87a00"/><stop offset="1" stop-color="#332700"/></radialGradient><radialGradient id="Degradado_sin_nombre_4-2" cx="-92.76" cy="120.29" r="702.42" xlink:href="#Degradado_sin_nombre_4"/><radialGradient id="Degradado_sin_nombre_4-3" cx="360.63" cy="750.46" r="1056.42" xlink:href="#Degradado_sin_nombre_4"/></defs><title>Recurso 46</title><g id="Capa_2" data-name="Capa 2"><g id="Capa_1-2" data-name="Capa 1"><path class="cls-1" d="M73.18,88.34a2.54,2.54,0,0,0-.91,0,6,6,0,0,1-5.34-6,2.66,2.66,0,1,0-5.31,0A11.38,11.38,0,0,0,70,93.26v2.65a2.66,2.66,0,1,0,5.31,0V93.42A11.34,11.34,0,0,0,73,71a6,6,0,1,1,6-6,2.66,2.66,0,1,0,5.31,0,11.35,11.35,0,0,0-9-11.09V51.44a2.66,2.66,0,1,0-5.31,0V54a11.34,11.34,0,0,0,3,22.27,6,6,0,0,1,.22,12Z"/><path class="cls-2" d="M34.46,73.84A38.5,38.5,0,1,0,73,35.34,38.5,38.5,0,0,0,34.46,73.84ZM73,40.65A33.19,33.19,0,1,1,39.77,73.84,33.19,33.19,0,0,1,73,40.65Z"/><path class="cls-3" d="M124.55,118.89l-20.8,9.82a16.94,16.94,0,0,0-14.44-8.91l-19.2-.53A20.17,20.17,0,0,1,61.38,117l-2-1a34.46,34.46,0,0,0-31.92,0l.12-4.42a2.65,2.65,0,0,0-2.58-2.73l-21-.58a2.65,2.65,0,0,0-2.73,2.58L0,157.09a2.66,2.66,0,0,0,2.58,2.73l21.06.58h.07a2.66,2.66,0,0,0,2.65-2.59l.06-2.21,5.47-2.92a9.38,9.38,0,0,1,7-.77l32.67,9.17.17,0a35.39,35.39,0,0,0,22-2.49,1.74,1.74,0,0,0,.33-.18l47.36-30.63a2.66,2.66,0,0,0,.87-3.54A13.41,13.41,0,0,0,124.55,118.89ZM5.38,154.58l1.13-40.89,15.74.43L21.13,155Zm85.93-.69a30.1,30.1,0,0,1-18.41,2.05L40.33,146.8A14.62,14.62,0,0,0,29.39,148l-2.8,1.49.75-27.19A29.2,29.2,0,0,1,57,120.72l1.95,1a25.67,25.67,0,0,0,11,2.84l19.2.53a11.64,11.64,0,0,1,11.07,9.28l-28.6-.79a2.66,2.66,0,1,0-.14,5.31l31.56.87h.07a2.66,2.66,0,0,0,2.65-2.59,16.56,16.56,0,0,0-.25-3.44l21.33-10.08.06,0a8.1,8.1,0,0,1,9.17,1.29Z"/><path class="cls-4" d="M75.61,27.88V2.65a2.66,2.66,0,0,0-5.31,0V27.88a2.66,2.66,0,0,0,5.31,0Z"/><path class="cls-4" d="M95.53,27.88V15.93a2.66,2.66,0,1,0-5.31,0v12a2.66,2.66,0,0,0,5.31,0Z"/><path class="cls-4" d="M55.7,27.88V15.93a2.66,2.66,0,1,0-5.31,0v12a2.66,2.66,0,0,0,5.31,0Z"/></g></g></svg>