<svg xmlns="http://www.w3.org/2000/svg" xmlns:xlink="http://www.w3.org/1999/xlink" viewBox="0 0 176.59 175.85"><defs><style>.cls-1{fill:url(#Degradado_sin_nombre_4);}.cls-2{fill:#999;}.cls-3{fill:#737373;}.cls-4{fill:#fefefe;}.cls-5{fill:#c8c8c8;}.cls-6{fill:#fff;}.cls-7{fill:url(#Degradado_sin_nombre_4-8);}.cls-8{fill:none;}</style><radialGradient id="Degradado_sin_nombre_4" cx="9" cy="46.5" r="221.95" gradientUnits="userSpaceOnUse"><stop offset="0" stop-color="#332700"/><stop offset="0.02" stop-color="#c87a00"/><stop offset="0.24" stop-color="#ffbf00"/><stop offset="0.38" stop-color="#c87a00"/><stop offset="0.67" stop-color="#ffbf00"/><stop offset="0.78" stop-color="#c87a00"/><stop offset="1" stop-color="#332700"/></radialGradient><radialGradient id="Degradado_sin_nombre_4-8" cx="297.5" cy="160.65" r="553.68" xlink:href="#Degradado_sin_nombre_4"/></defs><title>Recurso 50</title><g id="Capa_2" data-name="Capa 2"><g id="Capa_1-2" data-name="Capa 1"><path class="cls-1" d="M130.7,104.7c-4-2-11.57-2-11.89-2a1.73,1.73,0,0,0,0,3.46c2,0,7.6.3,10.34,1.67a1.65,1.65,0,0,0,.77.19,1.74,1.74,0,0,0,.78-3.29Z"/><path class="cls-1" d="M139.33,129.36l-7.15-2a.72.72,0,0,1-.52-.7v-2.38a14.18,14.18,0,0,0,1.65-1.36,12.73,12.73,0,0,0,3.9-9.22v-3.29l.69-1.39a11,11,0,0,0,1.16-4.91V95.14a1.73,1.73,0,0,0-1.73-1.73H120.67a11,11,0,0,0-11,11v.1a9.18,9.18,0,0,0,1,4.09l.89,1.78v2.82a13.52,13.52,0,0,0,5.55,10.93v2.5c0,.39,0,.55-1.43,1l-3.49,1-10.09-3.67a1.74,1.74,0,0,0-.48-1.32l-3.22-3.39V114.5c.34-.28.67-.57,1-.88a20.31,20.31,0,0,0,6.4-14.77V94.3a20,20,0,0,0,1.86-8.42V67.37a1.74,1.74,0,0,0-1.74-1.74H80A16.57,16.57,0,0,0,63.42,82.18v3.7a20,20,0,0,0,1.85,8.42v3.91a21.14,21.14,0,0,0,7.41,16.15v5.83l-3.23,3.39A1.77,1.77,0,0,0,69,124.9l-10.65,3.88a8.89,8.89,0,0,0-2.14,1.12l-1.68-.84c5-2.16,6.56-5.21,6.64-5.37a1.74,1.74,0,0,0,0-1.54c-1.25-2.5-1.4-7.08-1.52-10.76,0-1.22-.08-2.38-.16-3.41-.59-8.3-6.9-14.57-14.69-14.57S30.68,99.68,30.09,108c-.07,1-.11,2.19-.15,3.41-.12,3.68-.27,8.26-1.52,10.76a1.74,1.74,0,0,0,0,1.54c.08.16,1.65,3.2,6.64,5.37l-4.65,2.32a7.26,7.26,0,0,0-4,6.52v12.8a1.73,1.73,0,0,0,3.46,0V137.9A3.8,3.8,0,0,1,32,134.48l5.79-2.89,2,1.91a7.27,7.27,0,0,0,10,0l2-1.91,1.88.94a9.2,9.2,0,0,0-1.39,4.84V150.7a1.73,1.73,0,0,0,3.46,0V137.37A5.72,5.72,0,0,1,59.51,132L70.75,128l4.67,7a3.56,3.56,0,0,0,2.63,1.58l.36,0a3.57,3.57,0,0,0,2.53-1.05l2.85-2.85v18a1.74,1.74,0,0,0,3.47,0v-18l2.85,2.85a3.56,3.56,0,0,0,2.53,1.05,2.17,2.17,0,0,0,.36,0A3.56,3.56,0,0,0,95.63,135l4.67-7L111.54,132a5.71,5.71,0,0,1,3.73,5.34V150.7a1.74,1.74,0,0,0,3.47,0V137.37a9.18,9.18,0,0,0-2.56-6.34l.42-.12a9.18,9.18,0,0,0,1.61-.58l4.43,4.42V150.7a1.73,1.73,0,0,0,3.46,0V134.75l4.39-4.39a3.92,3.92,0,0,0,.74.29l7.15,2a3.86,3.86,0,0,1,2.78,3.68V150.7a1.73,1.73,0,0,0,3.46,0V136.37A7.31,7.31,0,0,0,139.33,129.36ZM37.5,126.3a12.47,12.47,0,0,1-5.56-3.56,19,19,0,0,0,1-4.15,13,13,0,0,0,4.58,5.64ZM47.42,131a3.83,3.83,0,0,1-5.27,0l-1.61-1.53a3.62,3.62,0,0,0,.42-1.69v-1.85a12.9,12.9,0,0,0,7.65,0v1.85a3.62,3.62,0,0,0,.42,1.69Zm-2.64-8a9.38,9.38,0,0,1-9.37-9.38,1.73,1.73,0,0,0-1.74-1.73l-.28,0c0-.14,0-.29,0-.44,0-1.19.08-2.32.15-3.28a12.86,12.86,0,0,1,3.5-8.08,10.76,10.76,0,0,1,15.47,0,12.92,12.92,0,0,1,3.5,8.08c.07,1,.11,2.09.14,3.28v.31a15.46,15.46,0,0,0-8.55-6.25,21.82,21.82,0,0,0-6.59-1,1.82,1.82,0,0,0-1.2.53l-3.12,3.24a1.73,1.73,0,0,0,2.49,2.41l2.6-2.7c2.24.11,9.45,1,12.25,7.12A9.36,9.36,0,0,1,44.78,123Zm7.29,3.27v-2.07a12.66,12.66,0,0,0,4.57-5.64,19.46,19.46,0,0,0,1,4.14A12.54,12.54,0,0,1,52.07,126.31Zm16.67-28.1v-4.3a1.79,1.79,0,0,0-.17-.75,16.52,16.52,0,0,1-1.68-7.28v-3.7A13.09,13.09,0,0,1,80,69.1h24.19V85.88a16.52,16.52,0,0,1-1.68,7.28,1.8,1.8,0,0,0-.17.76v4.93A16.64,16.64,0,0,1,97,111.1c-.43.4-.87.77-1.33,1.12l0,0A16.66,16.66,0,0,1,84.4,115.6C75.62,115,68.74,107.39,68.74,98.21Zm9.75,34.85a.13.13,0,0,1-.1,0,.13.13,0,0,1-.09-.06L72.92,125l1.73-1.82,8.17,5.59Zm7-6.68L76.14,120v-3.24a19.31,19.31,0,0,0,8,2.32c.46,0,.91,0,1.36,0a20,20,0,0,0,9.36-2.3V120ZM92.74,133a.11.11,0,0,1-.08.06.13.13,0,0,1-.1,0l-4.34-4.33,8.18-5.59L98.13,125Zm31.63-1.46-3.93-3.93a4.65,4.65,0,0,0,.11-1v-.73a12.22,12.22,0,0,0,3.42.61h.4a12.8,12.8,0,0,0,3.82-.57v.69a4.17,4.17,0,0,0,.13,1Zm6.53-11.19a9.36,9.36,0,0,1-6.82,2.65A9.7,9.7,0,0,1,115,113.2V110a1.75,1.75,0,0,0-.18-.78L113.74,107a5.71,5.71,0,0,1-.6-2.53v-.11a7.53,7.53,0,0,1,7.53-7.53H135.6v7.2a7.68,7.68,0,0,1-.79,3.36l-.88,1.75a1.75,1.75,0,0,0-.18.78v3.7A9.28,9.28,0,0,1,130.9,120.39Z"/><path class="cls-1" d="M135.48,137.85a1.73,1.73,0,0,0-1.73,1.74V150.7a1.73,1.73,0,0,0,3.46,0V139.59A1.73,1.73,0,0,0,135.48,137.85Z"/><path class="cls-1" d="M35.52,140.14a1.74,1.74,0,0,0-1.73,1.74v8.82a1.74,1.74,0,0,0,3.47,0v-8.82A1.74,1.74,0,0,0,35.52,140.14Z"/><path class="cls-1" d="M99.71,86.51c-6.55-6.55-20.25-5.3-25.84-4.45a3.55,3.55,0,0,0-3,3.54v4a1.73,1.73,0,1,0,3.46,0v-4a.12.12,0,0,1,.09-.12,54.29,54.29,0,0,1,11.26-.55c5.4.36,9.31,1.72,11.62,4a1.73,1.73,0,0,0,2.45-2.45Z"/><path class="cls-1" d="M65.15,141.56a1.73,1.73,0,0,0-1.73,1.73v7.41a1.74,1.74,0,0,0,3.47,0v-7.41A1.73,1.73,0,0,0,65.15,141.56Z"/><path class="cls-1" d="M105.89,141.56a1.73,1.73,0,0,0-1.73,1.73v7.41a1.74,1.74,0,0,0,3.47,0v-7.41A1.73,1.73,0,0,0,105.89,141.56Z"/><circle class="cls-2" cx="44.04" cy="56.23" r="13.19"/><circle class="cls-2" cx="125.72" cy="56.23" r="13.19"/><path class="cls-3" d="M43.45,60.32c-.55.5-1.86,1.69-2.06,1.84s-.25.09-.29.06l-.05-.12.4-3.37h0Z"/><path class="cls-4" d="M50.08,51.42c0,.25-2.26,11.07-2.26,11.07s-.67.67-1.22.3c-.3-.2-1.83-1.42-3.15-2.47l-2-1.6c1.34-1.21,5.68-5.15,6.08-5.48.17-.52-.19-.21-.19-.21l-7.84,4.88a22.09,22.09,0,0,1-3.23-1.15c-.84-.47-.18-.92-.18-.92s12.06-4.93,13.18-5.17S50.08,51.17,50.08,51.42Z"/><path class="cls-5" d="M47.54,53.24c-.4.33-4.74,4.27-6.08,5.48h0v0l-.4,3.37-1.5-4.18h0L47.35,53S47.71,52.72,47.54,53.24Z"/><path class="cls-2" d="M102.49,37A17,17,0,0,1,78.64,52.54H70.53V45a17,17,0,1,1,32-8Z"/><path class="cls-6" d="M79.61,28.1l2.16,4.46s.22.87-1.59,2.53c0,.64,2.89,5.47,7.21,6.48a18.47,18.47,0,0,0,1.8-2.31s0-.43.93-.14a45.93,45.93,0,0,1,4.18,2.05s1.26,3.89-3.35,4.65c-7.49.36-14.73-7.46-16-13.47C74.67,30.55,77.3,27.59,79.61,28.1Z"/><path class="cls-2" d="M102.49,37A17,17,0,0,1,78.64,52.54H70.53V45a17,17,0,1,1,32-8Z"/><path class="cls-6" d="M79.61,28.1l2.16,4.46s.22.87-1.59,2.53c0,.64,2.89,5.47,7.21,6.48a18.47,18.47,0,0,0,1.8-2.31s0-.43.93-.14a45.93,45.93,0,0,1,4.18,2.05s1.26,3.89-3.35,4.65c-7.49.36-14.73-7.46-16-13.47C74.67,30.55,77.3,27.59,79.61,28.1Z"/><path class="cls-2" d="M102.49,37A17,17,0,0,1,78.64,52.54H70.53V45a17,17,0,1,1,32-8Z"/><path class="cls-6" d="M79.61,28.1l2.16,4.46s.22.87-1.59,2.53c0,.64,2.89,5.47,7.21,6.48a18.47,18.47,0,0,0,1.8-2.31s0-.43.93-.14a45.93,45.93,0,0,1,4.18,2.05s1.26,3.89-3.35,4.65c-7.49.36-14.73-7.46-16-13.47C74.67,30.55,77.3,27.59,79.61,28.1Z"/><path class="cls-2" d="M102.49,37A17,17,0,0,1,78.64,52.54H70.53V45a17,17,0,1,1,32-8Z"/><path class="cls-6" d="M79.61,28.1l2.16,4.46s.22.87-1.59,2.53c0,.64,2.89,5.47,7.21,6.48a18.47,18.47,0,0,0,1.8-2.31s0-.43.93-.14a45.93,45.93,0,0,1,4.18,2.05s1.26,3.89-3.35,4.65c-7.49.36-14.73-7.46-16-13.47C74.67,30.55,77.3,27.59,79.61,28.1Z"/><path class="cls-7" d="M114.38,3.84A87.9,87.9,0,0,0,13.1,43l6.72,3A80.64,80.64,0,0,1,111.9,10.71c2.36.71,4.68,1.52,6.94,2.45a23,23,0,0,1,2.49-6.87Q117.93,4.91,114.38,3.84Zm47.68,35.72c-1.35-2.06-2.8-4.05-4.32-6a22.77,22.77,0,0,1-5.9,4.3c1.52,1.91,3,3.9,4.3,6a80,80,0,0,1,13.15,44.06c0,20.11-5.75,35.13-13.88,45.19l-.12,12.13a87.75,87.75,0,0,0,6.77-105.67Z"/><path class="cls-7" d="M112.53,172.56l-.31.08a87.89,87.89,0,0,1-58.33-4H10.79v-40A87.7,87.7,0,0,1,1.25,78.5l7.22,1.11A81.34,81.34,0,0,0,8,87.91a80.47,80.47,0,0,0,9.61,38.15l.44.81v34.5H55.44l.7.31a80.48,80.48,0,0,0,51.68,4.56c.27-.06.55-.12.82-.2C109.91,168.06,111.26,170.38,112.53,172.56Z"/><line class="cls-8" x1="166.83" y1="155.16" x2="160.25" y2="149.7"/><line class="cls-8" x1="7.89" y1="38.73" y2="35.25"/><path class="cls-6" d="M124.24,56.82a9.42,9.42,0,0,1-1.35-.63,3.9,3.9,0,0,1-1-.82,3.22,3.22,0,0,1-.65-1.13,4.67,4.67,0,0,1-.24-1.59,4.81,4.81,0,0,1,.39-2,4,4,0,0,1,1.09-1.44,4.83,4.83,0,0,1,1.7-.89A8.09,8.09,0,0,1,126.4,48a10.15,10.15,0,0,1,2.11.2c.37.07.76.17,1.16.28a2.73,2.73,0,0,1,1.65,1.36c.3.59.25,2-1.45,1.45l-.68-.27a5.19,5.19,0,0,0-.73-.22,6.1,6.1,0,0,0-.87-.14,9,9,0,0,0-1.1-.06,3.91,3.91,0,0,0-.76.07,2,2,0,0,0-.7.24,1.5,1.5,0,0,0-.51.52,1.81,1.81,0,0,0-.19.89,1.62,1.62,0,0,0,.15.74,1.48,1.48,0,0,0,.42.51,2.55,2.55,0,0,0,.6.35l.66.28,1.32.51a14.62,14.62,0,0,1,1.52.68,4.15,4.15,0,0,1,1.16.87,3.59,3.59,0,0,1,.74,1.26,5.33,5.33,0,0,1,.27,1.82,5.07,5.07,0,0,1-.41,2A4.41,4.41,0,0,1,129.58,63a5.64,5.64,0,0,1-1.91,1,8.37,8.37,0,0,1-2.62.37c-.48,0-.92,0-1.3,0s-.74-.08-1.09-.14a9.13,9.13,0,0,1-1-.26l-.41-.15A1.83,1.83,0,0,1,120,61.78v0c.12-.46.25-.73,1.21-.88a10.89,10.89,0,0,0,1.74.56,7.48,7.48,0,0,0,1.74.19,3.94,3.94,0,0,0,2.19-.52,1.74,1.74,0,0,0,.79-1.58,1.78,1.78,0,0,0-.67-1.47,2.68,2.68,0,0,0-.67-.41c-.25-.11-.51-.22-.78-.32Z"/></g></g></svg>