<svg xmlns="http://www.w3.org/2000/svg" xmlns:xlink="http://www.w3.org/1999/xlink" viewBox="0 0 202.55 201.17"><defs><style>.cls-1{fill:url(#Degradado_sin_nombre_54);}.cls-2{fill:url(#Degradado_sin_nombre_54-5);}.cls-3{fill:url(#Degradado_sin_nombre_54-8);}.cls-4{fill:url(#Degradado_sin_nombre_54-13);}.cls-5{fill:url(#Degradado_sin_nombre_52);}.cls-6{fill:none;}.cls-7{fill:url(#Degradado_sin_nombre_52-2);}.cls-8{fill:url(#Degradado_sin_nombre_4);}.cls-9{fill:url(#Degradado_sin_nombre_6);}.cls-10{fill:url(#Degradado_sin_nombre_52-6);}.cls-11{fill:url(#Degradado_sin_nombre_4-2);}.cls-12{fill:url(#Degradado_sin_nombre_52-8);}.cls-13{fill:url(#Degradado_sin_nombre_52-12);}.cls-14{fill:url(#Degradado_sin_nombre_52-14);}.cls-15{fill:url(#Degradado_sin_nombre_52-16);}.cls-16{fill:url(#Degradado_sin_nombre_52-19);}.cls-17{fill:url(#Degradado_sin_nombre_52-21);}.cls-18{fill:url(#Degradado_sin_nombre_52-23);}.cls-19{fill:url(#Degradado_sin_nombre_52-25);}.cls-20{fill:url(#Degradado_sin_nombre_52-26);}.cls-21{fill:url(#Degradado_sin_nombre_52-28);}</style><radialGradient id="Degradado_sin_nombre_54" cx="316.5" cy="176.43" r="653.03" gradientUnits="userSpaceOnUse"><stop offset="0.11" stop-color="#c87a00"/><stop offset="0.3" stop-color="#ffbf00"/><stop offset="0.49" stop-color="#c87a00"/><stop offset="0.67" stop-color="#ffbf00"/><stop offset="0.78" stop-color="#c87a00"/><stop offset="1" stop-color="#332700"/></radialGradient><radialGradient id="Degradado_sin_nombre_54-5" cx="316.57" cy="176.42" r="653.2" xlink:href="#Degradado_sin_nombre_54"/><radialGradient id="Degradado_sin_nombre_54-8" cx="316.36" cy="176.42" r="652.63" xlink:href="#Degradado_sin_nombre_54"/><radialGradient id="Degradado_sin_nombre_54-13" cx="316.53" cy="176.44" r="653.19" xlink:href="#Degradado_sin_nombre_54"/><radialGradient id="Degradado_sin_nombre_52" cx="363.21" cy="158.85" r="617.83" gradientUnits="userSpaceOnUse"><stop offset="0" stop-color="#332700"/><stop offset="0.19" stop-color="#c87a00"/><stop offset="0.35" stop-color="#ffbf00"/><stop offset="0.49" stop-color="#c87a00"/><stop offset="0.67" stop-color="#ffbf00"/><stop offset="0.78" stop-color="#c87a00"/><stop offset="1" stop-color="#332700"/></radialGradient><radialGradient id="Degradado_sin_nombre_52-2" cx="195.73" cy="114.77" r="336.87" xlink:href="#Degradado_sin_nombre_52"/><radialGradient id="Degradado_sin_nombre_4" cx="277.36" cy="159.02" r="632.94" gradientUnits="userSpaceOnUse"><stop offset="0" stop-color="#332700"/><stop offset="0.02" stop-color="#c87a00"/><stop offset="0.24" stop-color="#ffbf00"/><stop offset="0.38" stop-color="#c87a00"/><stop offset="0.67" stop-color="#ffbf00"/><stop offset="0.78" stop-color="#c87a00"/><stop offset="1" stop-color="#332700"/></radialGradient><radialGradient id="Degradado_sin_nombre_6" cx="277.39" cy="159.08" r="633.04" gradientUnits="userSpaceOnUse"><stop offset="0" stop-color="#332700"/><stop offset="0.19" stop-color="#c87a00"/><stop offset="0.35" stop-color="#ffbf00"/><stop offset="0.4" stop-color="#ffbf00"/><stop offset="0.78" stop-color="#c87a00"/><stop offset="1" stop-color="#332700"/></radialGradient><radialGradient id="Degradado_sin_nombre_52-6" cx="277.37" cy="159.01" r="632.95" xlink:href="#Degradado_sin_nombre_52"/><radialGradient id="Degradado_sin_nombre_4-2" cx="277.37" cy="159.03" r="632.98" xlink:href="#Degradado_sin_nombre_4"/><radialGradient id="Degradado_sin_nombre_52-8" cx="238.67" cy="138.4" r="300.73" xlink:href="#Degradado_sin_nombre_52"/><radialGradient id="Degradado_sin_nombre_52-12" cx="276.78" cy="144.25" r="620.58" xlink:href="#Degradado_sin_nombre_52"/><radialGradient id="Degradado_sin_nombre_52-14" cx="275.95" cy="140.97" r="617.21" xlink:href="#Degradado_sin_nombre_52"/><radialGradient id="Degradado_sin_nombre_52-16" cx="275.37" cy="138.92" r="615.75" xlink:href="#Degradado_sin_nombre_52"/><radialGradient id="Degradado_sin_nombre_52-19" cx="277.35" cy="159.07" r="632.93" xlink:href="#Degradado_sin_nombre_52"/><radialGradient id="Degradado_sin_nombre_52-21" cx="277.37" cy="159.04" r="632.97" xlink:href="#Degradado_sin_nombre_52"/><radialGradient id="Degradado_sin_nombre_52-23" cx="277.33" cy="159.02" r="632.82" xlink:href="#Degradado_sin_nombre_52"/><radialGradient id="Degradado_sin_nombre_52-25" cx="277.39" cy="159.01" r="632.99" xlink:href="#Degradado_sin_nombre_52"/><radialGradient id="Degradado_sin_nombre_52-26" cx="277.35" cy="159.04" r="632.9" xlink:href="#Degradado_sin_nombre_52"/><radialGradient id="Degradado_sin_nombre_52-28" cx="65.01" cy="-548.16" r="45.64" gradientTransform="translate(-50.36 596.94) rotate(8.48)" xlink:href="#Degradado_sin_nombre_52"/></defs><title>Recurso 9</title><g id="Capa_2" data-name="Capa 2"><g id="Capa_1-2" data-name="Capa 1"><path class="cls-1" d="M41.14,143.49h.15l.28-.28.09-.8-.26-.3-1.27-.07c-.42,0-.51-.1-.51-.11s-.07-.06-.07-.2,0-.19,0-.3c0-.4.14-1.07.29-2l1-5.76.81-4.27h.93q1.08,0,1.71.06a1.75,1.75,0,0,1,.56.1,1.32,1.32,0,0,1,.06.51,15.75,15.75,0,0,1-.1,1.58l0,.14.27.31H46l.29-.26v-.14c0-.24.14-1.07.65-3.59l0-.16-.38-.43-.16,0c-.55,0-1.52.09-2.9.12s-2.59,0-3.57,0c-1.59,0-3.18,0-4.73-.11l-1.49-.07h-.14l-.3.31V128c-.18,1.47-.35,2.7-.53,3.66l0,.15.27.34h.91l.26-.24,0-.1c.06-.28.15-.64.26-1.07a4.54,4.54,0,0,1,.28-.83,1.15,1.15,0,0,1,.13-.21l.38-.1a7.54,7.54,0,0,1,1.08-.11l1.79,0-.67,4-.91,5.25a23.37,23.37,0,0,1-.62,3.05.74.74,0,0,1-.18.27,3.2,3.2,0,0,1-.91.09l-.52,0h-.12l-.26.26-.08.79.27.32h.16c1.12-.05,2.26-.08,3.37-.08C39.13,143.41,40.31,143.44,41.14,143.49Z"/><path class="cls-1" d="M48.48,129a2.3,2.3,0,0,1,.64.08,1,1,0,0,1,0,.18,33,33,0,0,1-.55,3.9l-1,5.71c-.17,1-.34,1.83-.48,2.41a1.48,1.48,0,0,1-.28.69c-.2,0-.49.05-.9.07l-.62,0-.29.24-.1.87.33.24h.11c2.15-.09,4.54-.09,6.91,0h.13l.28-.25.1-.78-.23-.31-1.29-.09a1.24,1.24,0,0,1-.54-.09.27.27,0,0,1-.06-.2v-.23c0-.23.12-1.13.65-4.15l1.39-8.08a7.11,7.11,0,0,1,1.45-.11c1.6,0,2.35.64,2.35,2a3.09,3.09,0,0,1-1,2.47,4.06,4.06,0,0,1-2.75.86c-.21,0-.41,0-.61,0l-.27,0-.19.77.08.11c1,1.54,2.54,4.21,4.48,7.93l.1.19h.21c.7,0,1.38-.07,2-.07s1.29,0,1.81.07h.12l.32-.25.09-.83-.31-.28h-.11a3,3,0,0,1-.77-.12,1.19,1.19,0,0,1-.33-.35c-.16-.2-.51-.79-1.06-1.74l-2.66-4.5A6.22,6.22,0,0,0,59,133.78,4,4,0,0,0,60.08,131a3.61,3.61,0,0,0-.92-2.4c-.63-.72-1.9-1.08-3.87-1.08l-4.25.09c-1.35,0-2.49,0-3.39-.07h-.12l-.31.24-.13.85.28.31Z"/><path class="cls-1" d="M61.69,143.48c1.41,0,2.68-.07,3.77-.07l4.75.05,2.35,0h.12l.3-.25.78-3.94-.28-.32h-.92l-.24.24,0,.07c-.16.47-.25.79-.29,1a3.18,3.18,0,0,1-.36,1,.68.68,0,0,1-.37.21,6.24,6.24,0,0,1-1.3.16c-.66,0-1.45.07-2.35.07H66.21c.06-.5.17-1.18.32-2.05l.64-3.59h.6l4,.09h.12l.3-.23.35-1.18-.22-.43h-.21c-.74,0-1.43,0-2.07,0l-2.59,0c.13-.78.25-1.4.33-1.83l.62-3.13a11.72,11.72,0,0,1,1.69-.1,14.6,14.6,0,0,1,1.57.09,6.13,6.13,0,0,1,1.07.17,1.39,1.39,0,0,1,.21.1,1,1,0,0,1,0,.26c0,.17,0,.66,0,1.5v.14l.28.28H74l.28-.25v-.12c.06-.48.14-1,.24-1.55.26-1.42.3-1.75.31-1.86v-.14l-.29-.35h-.15l-6.55.08c-1.91,0-3.46,0-4.59-.08h-.13l-.29.25-.12.86.26.3h.14c1.07.06,1.39.09,1.48.1a.16.16,0,0,1,.13.06s0,.06,0,.16a25.52,25.52,0,0,1-.39,3l-.83,4.8c-.45,2.54-.71,4-.78,4.26a2.84,2.84,0,0,1-.13.45l0,.06a5.16,5.16,0,0,1-.92.27l-.08,0-.26.23-.11.85.29.29Z"/><path class="cls-1" d="M88.68,143.3c.21-1.62.43-3,.65-4.17l1.49-7.63a10.88,10.88,0,0,1,.57-2.31c.13-.17.2-.18.2-.18a7.54,7.54,0,0,1,1.09-.06h.11l.32-.26.06-.85-.31-.28h-.13c-1.16,0-1.86.07-2.08.07s-1,0-2.27-.07h-.7l-.27.25-.16.77.26.36h.15l1,.06a1.2,1.2,0,0,1,.51.12s.08,0,.08.24c0,.61-.52,3.86-1.57,9.65l-4.51-7.8-2.06-3.66-3.24,0c-.42,0-.93,0-1.54,0h-.1l-.36.22-.1.83.22.32.15,0a6.71,6.71,0,0,1,1.66.23s.19.11.63.76l-1.2,6.57c-.15.79-.32,1.68-.53,2.64l-.45,2.09a2.14,2.14,0,0,1-.2.65,1,1,0,0,1-.2.15,6.25,6.25,0,0,1-1.1.09H74.6l-.26.26-.06.79.24.33h.18c1-.06,1.69-.09,2-.09l2.39.07h.68l.28-.21.13-.82-.24-.31h-.15l-.93-.06a1.52,1.52,0,0,1-.53-.12s-.11,0-.11-.27c0-.82.53-4,1.58-9.59l6.49,11.5h2.37Z"/><path class="cls-2" d="M53.55,152.84a4.76,4.76,0,0,0-2.21-2.22,9.77,9.77,0,0,0-4.33-.76l-4.09.06c-1.31,0-2.48,0-3.51-.08h-.14l-.27.24-.14.87.28.3h.13l1.46.11a.41.41,0,0,1,.16.06.3.3,0,0,1,0,.15c0,.32-.13,1.43-.73,5-.51,2.86-.86,4.85-1,5.91a9.48,9.48,0,0,1-.38,1.61,1.86,1.86,0,0,1-.65.22l-.38.1-.26.23-.11.85.29.29h.14c.91,0,2-.07,3.24-.07.45,0,1.15,0,2,0l2,0a8.37,8.37,0,0,0,5.09-1.61,9.07,9.07,0,0,0,3.14-3.84,11,11,0,0,0,1-4.37A7.19,7.19,0,0,0,53.55,152.84Zm-3.33,6a12,12,0,0,1-.81,2.46,7.11,7.11,0,0,1-1,1.6,3.4,3.4,0,0,1-1.28.93,5.21,5.21,0,0,1-1.88.3A12,12,0,0,1,43.5,164l-1.19-.15c.14-.92.43-2.57.84-4.94l.94-5.23c.18-.95.31-1.62.37-2a16.46,16.46,0,0,1,1.87-.09,8.21,8.21,0,0,1,1.5.11,2.81,2.81,0,0,1,1.93,1.17,3.8,3.8,0,0,1,.58,1.23,6,6,0,0,1,.21,1.72A13.94,13.94,0,0,1,50.22,158.81Z"/><path class="cls-1" d="M67.71,149.84l-6.55.08c-1.91,0-3.46,0-4.59-.08h-.14l-.28.25L56,151l.27.3h.14c1.07.06,1.39.09,1.47.1a.17.17,0,0,1,.14.06s0,.06,0,.16a24.18,24.18,0,0,1-.4,3l-.82,4.8c-.45,2.54-.71,4-.78,4.26a2.84,2.84,0,0,1-.13.45l-.06.06a4.75,4.75,0,0,1-.91.27l-.08,0-.26.23-.11.85.29.29H55c1.41-.05,2.68-.07,3.76-.07l4.76.05,2.35,0H66l.3-.25.78-3.94-.28-.32h-.92l-.24.24,0,.07c-.16.47-.25.79-.29.95a3.54,3.54,0,0,1-.36,1,.68.68,0,0,1-.37.21,6.24,6.24,0,0,1-1.3.16c-.66,0-1.45.06-2.35.06H59.48c.06-.49.17-1.17.32-2l.64-3.59H61l4,.09h.11l.31-.23.35-1.18-.22-.43h-.21c-.74,0-1.43,0-2.08,0l-2.58,0q.2-1.19.33-1.83l.62-3.14a13.44,13.44,0,0,1,1.69-.09,14.42,14.42,0,0,1,1.56.09,5.93,5.93,0,0,1,1.07.17,1.25,1.25,0,0,1,.22.1,2,2,0,0,1,0,.26c0,.17,0,.66,0,1.5v.14l.29.28h.81l.29-.25v-.12c.06-.48.14-1,.24-1.55.26-1.42.3-1.75.31-1.86v-.14l-.29-.35Z"/><path class="cls-1" d="M79.71,161.27l-.23.24,0,.07c-.15.47-.25.79-.28.95a4,4,0,0,1-.36,1,.76.76,0,0,1-.38.21,6.24,6.24,0,0,1-1.3.16c-.66,0-1.45.06-2.34.06H73.36c0-.45.15-1.06.29-1.82L75,154.46c.24-1.36.41-2.21.5-2.53a1.63,1.63,0,0,1,.19-.5.32.32,0,0,1,.17-.09,11.54,11.54,0,0,1,1.32-.08h.12l.27-.25.12-.84-.25-.33h-.16l-3.47.08c-1.25,0-2.39,0-3.39-.08h-.14l-.29.26-.11.84.23.31h.16c1.12.06,1.4.09,1.47.1a.33.33,0,0,1,.16.07.24.24,0,0,1,0,.15,19.82,19.82,0,0,1-.31,2.41l-1.37,8a13.38,13.38,0,0,1-.41,2,.23.23,0,0,1,0,.09l-.07,0a4.9,4.9,0,0,1-.88.25l-.08,0-.26.23-.11.85.29.29h.14c.93-.05,2.24-.07,3.88-.07l4.36.05,2.63,0h.12l.3-.24,0-.11c.06-.24.15-.64.26-1.25s.17-.94.26-1.36.19-.92.21-1.1l0-.14-.27-.31Z"/><path class="cls-3" d="M103.17,152.84a4.8,4.8,0,0,0-2.21-2.22,9.8,9.8,0,0,0-4.33-.76l-4.09.06c-1.31,0-2.48,0-3.51-.08h-.14l-.29.24-.12.87.27.3h.14l1.46.11a.31.31,0,0,1,.15.06s0,.06,0,.15a47.92,47.92,0,0,1-.73,5c-.5,2.86-.85,4.85-1,5.91a8.72,8.72,0,0,1-.36,1.61,2.11,2.11,0,0,1-.65.22l-.38.1-.26.23-.11.85.29.29h.14c.91,0,2-.07,3.23-.07.46,0,1.16,0,2,0l2,0a8.44,8.44,0,0,0,5.1-1.61,9.22,9.22,0,0,0,3.14-3.84,10.94,10.94,0,0,0,.93-4.37A7.18,7.18,0,0,0,103.17,152.84Zm-3.33,6a13.34,13.34,0,0,1-.81,2.46,7.11,7.11,0,0,1-1,1.6,3.4,3.4,0,0,1-1.28.93,5.25,5.25,0,0,1-1.88.3,11.88,11.88,0,0,1-1.72-.15l-1.19-.15c.14-.92.43-2.57.84-4.94l.94-5.23c.18-.95.3-1.62.37-2a16.39,16.39,0,0,1,1.86-.09,8.26,8.26,0,0,1,1.51.11,3.4,3.4,0,0,1,1.09.39,3.31,3.31,0,0,1,.84.78A4.26,4.26,0,0,1,100,154a6.86,6.86,0,0,1,.21,1.72A14.57,14.57,0,0,1,99.84,158.81Z"/><path class="cls-1" d="M113.29,151.26l.27-.25.14-.84-.25-.33h-.17c-1.82,0-3,.08-3.48.08-1.28,0-2.42,0-3.39-.08h-.14l-.28.27-.12.84.26.3,1.13.06a1.88,1.88,0,0,1,.56.08l.08,0a.52.52,0,0,1,0,.15,38.3,38.3,0,0,1-.55,3.89l-1,5.73a23.63,23.63,0,0,1-.55,2.76c-.09.23-.17.3-.19.31a3.08,3.08,0,0,1-.92.1l-.52,0h-.11l-.26.26-.09.79.27.32h.16c1.06-.05,2.2-.08,3.36-.08,1.52,0,2.71,0,3.53.08h.15l.28-.28.09-.8-.26-.3-1.26-.06a1.12,1.12,0,0,1-.52-.11s-.07-.05-.07-.21a20.83,20.83,0,0,1,.28-2.23l1.41-8.17a14.49,14.49,0,0,1,.46-2,.4.4,0,0,1,.11-.18.31.31,0,0,1,.15-.08,11.44,11.44,0,0,1,1.31-.08Z"/><path class="cls-1" d="M130.79,151.24l.31-.26.07-.85-.32-.28h-.13c-1.15.05-1.85.07-2.07.07s-1,0-2.28-.07h-.69l-.27.24-.16.78.26.36h.15l1,.06a1.33,1.33,0,0,1,.51.11s.09.05.09.25c0,.61-.53,3.86-1.57,9.65l-4.52-7.8-2-3.66-3.24.05c-.42,0-.94,0-1.54-.05h-.1l-.37.22-.09.83.21.32.16,0a6.38,6.38,0,0,1,1.65.23s.2.11.64.76l-1.2,6.57c-.15.79-.33,1.68-.53,2.64l-.45,2.09c-.12.53-.2.64-.21.64a.8.8,0,0,1-.19.16,8,8,0,0,1-1.1.08h-.13l-.26.26-.07.79.25.33h.17c1-.06,1.7-.09,2-.09l2.39.07h.68l.28-.21.12-.82-.23-.31h-.15l-.93-.06a1.63,1.63,0,0,1-.54-.12s-.1-.05-.1-.27c0-.82.53-4,1.57-9.59l6.5,11.5h2.37l0-.29c.22-1.62.44-3,.66-4.17l1.48-7.63a10.23,10.23,0,0,1,.58-2.31c.12-.17.19-.18.19-.18a7.84,7.84,0,0,1,1.1-.06Z"/><path class="cls-1" d="M143.5,150.33v-.14l-.29-.35h-.16l-6.54.08c-1.92,0-3.46,0-4.6-.08h-.13l-.28.25-.13.86.27.3h.13c1.07.06,1.4.09,1.48.1a.18.18,0,0,1,.14.06s0,.06,0,.16a25.52,25.52,0,0,1-.39,3l-.83,4.8c-.44,2.54-.7,4-.77,4.26a3.23,3.23,0,0,1-.14.45.1.1,0,0,1-.05.06,4.76,4.76,0,0,1-.92.27l-.08,0-.25.23-.12.85.29.29h.14c1.42-.05,2.69-.07,3.77-.07l4.75.05,2.36,0h.12l.3-.25.77-3.94-.28-.32h-.91l-.24.24,0,.07c-.16.47-.25.79-.29.95a3.54,3.54,0,0,1-.36,1,.72.72,0,0,1-.38.21,6.24,6.24,0,0,1-1.3.16c-.66,0-1.45.06-2.34.06h-1.43q.09-.74.33-2l.63-3.59h.6c1.34,0,2.67.07,4,.09h.11l.31-.23.34-1.18-.21-.43h-.22c-.73,0-1.43,0-2.07,0l-2.59,0c.14-.79.25-1.4.34-1.83l.62-3.14a13.38,13.38,0,0,1,1.68-.09,14.6,14.6,0,0,1,1.57.09,5.93,5.93,0,0,1,1.07.17,1,1,0,0,1,.21.1.8.8,0,0,1,0,.26c0,.17,0,.66,0,1.5v.14l.28.28h.82l.28-.25,0-.12c.06-.48.13-1,.23-1.55C143.45,150.77,143.49,150.44,143.5,150.33Z"/><path class="cls-1" d="M158.59,164.42a2.85,2.85,0,0,1-.77-.12,1.3,1.3,0,0,1-.34-.35c-.15-.2-.51-.79-1.06-1.74l-2.66-4.51a6.21,6.21,0,0,0,3.23-1.63,4,4,0,0,0,1.11-2.76,3.61,3.61,0,0,0-.92-2.4c-.63-.72-1.89-1.08-3.87-1.08l-4.24.09c-1.35,0-2.49,0-3.39-.07h-.13l-.3.24-.13.85.28.31,1.11.07a2.37,2.37,0,0,1,.63.09.4.4,0,0,1,0,.18,35.46,35.46,0,0,1-.55,3.9l-1,5.71c-.18,1-.34,1.83-.48,2.41a1.8,1.8,0,0,1-.28.69c-.2,0-.5,0-.9.07l-.62,0-.29.24-.1.86.33.25h.11c2.15-.09,4.54-.09,6.9,0h.13l.29-.25.1-.78-.24-.31-1.28-.09a1.24,1.24,0,0,1-.54-.09.27.27,0,0,1-.06-.2v-.24c0-.22.11-1.12.64-4.14l1.4-8.08a7.11,7.11,0,0,1,1.45-.11c1.6,0,2.34.63,2.34,2a3.08,3.08,0,0,1-1,2.47,4.08,4.08,0,0,1-2.75.86l-.61,0-.28,0-.18.76.08.12c1,1.54,2.54,4.2,4.48,7.93l.1.19h.21c.69-.05,1.38-.07,2-.07s1.28,0,1.8.07h.13l.32-.26.08-.83-.3-.27Z"/><path class="cls-4" d="M176.48,153.52a5.29,5.29,0,0,0-1.5-2.24,6.33,6.33,0,0,0-2.37-1.32,10.07,10.07,0,0,0-2.71-.36,10.38,10.38,0,0,0-3.36.53,8.34,8.34,0,0,0-2.78,1.64,8.79,8.79,0,0,0-2,2.6,10.34,10.34,0,0,0-1,3,16.11,16.11,0,0,0-.24,2.31,7.31,7.31,0,0,0,.79,3.51,5.23,5.23,0,0,0,2.4,2.24,8.54,8.54,0,0,0,3.75.77,8.79,8.79,0,0,0,6.89-2.89,10,10,0,0,0,2.57-6.94A8.9,8.9,0,0,0,176.48,153.52Zm-4.06,6.69a8,8,0,0,1-1.87,3.39,3.81,3.81,0,0,1-2.64.94,4.29,4.29,0,0,1-2-.5,2.65,2.65,0,0,1-1.3-1.4,6.46,6.46,0,0,1-.38-2.31,19.08,19.08,0,0,1,.28-2.84,12.6,12.6,0,0,1,1-3.27A5.42,5.42,0,0,1,167.1,152a4.27,4.27,0,0,1,2.5-.7,3.6,3.6,0,0,1,2.63,1,4.44,4.44,0,0,1,1,3.3A15,15,0,0,1,172.42,160.21Z"/><path class="cls-5" d="M104.36,201c-1.64.07-3.29.14-4.94.19s-3.3,0-5-.08-3.3-.24-5-.36c-.41,0-.82-.07-1.23-.13L87,200.45l-2.47-.32a95.59,95.59,0,0,1-19.37-5,99.58,99.58,0,0,1-34-21.37A101.18,101.18,0,0,1,2.05,120.93a102,102,0,0,1,0-40.69A101,101,0,0,1,31.16,27.39,99.47,99.47,0,0,1,65.19,6,95.91,95.91,0,0,1,84.56,1L87,.72,88.26.56c.42-.06.83-.11,1.24-.13,1.66-.12,3.31-.28,5-.36s3.31-.07,5-.07,3.3.11,4.94.18c-1.64.16-3.28.3-4.91.44s-3.26.43-4.87.65-3.23.56-4.83.84c-.4.07-.8.15-1.2.25l-1.19.28L85,3.19a103.91,103.91,0,0,0-18.3,6.42A102,102,0,0,0,35.57,31.79l-3.22,3.53c-1,1.23-2,2.45-3,3.68s-1.93,2.53-2.87,3.81-1.81,2.61-2.67,3.94A99.61,99.61,0,0,0,15.06,63.6a99.29,99.29,0,0,0,0,74,99.7,99.7,0,0,0,8.72,16.86,101.32,101.32,0,0,0,42.91,37.13A103.94,103.94,0,0,0,85,198l2.38.55,1.19.27c.4.1.8.19,1.2.25,1.6.28,3.21.59,4.82.85s3.25.45,4.88.64Z"/><line class="cls-6" x1="196.47" y1="109.56" x2="196.47" y2="109.56"/><line class="cls-6" x1="173.37" y1="115.34" x2="173.37" y2="115.34"/><line class="cls-6" x1="193.56" y1="112.46" x2="193.49" y2="112.53"/><polygon class="cls-7" points="196.47 109.56 196.47 109.56 193.56 112.46 196.47 109.56"/><line class="cls-6" x1="193.56" y1="112.46" x2="193.49" y2="112.53"/><path class="cls-6" d="M146.76,119.49l0,0"/><line class="cls-6" x1="112.06" y1="115.89" x2="111.95" y2="115.87"/><path class="cls-6" d="M107.6,125.26l.67.14h0"/><path class="cls-7" d="M143.57,119c-.34-.36-.68-.74-1-1.11C142.91,118.22,143.24,118.59,143.57,119Z"/><path class="cls-7" d="M143.57,119c-.34-.36-.68-.74-1-1.11C142.91,118.22,143.24,118.59,143.57,119Z"/><path class="cls-7" d="M143.57,119c-.34-.36-.68-.74-1-1.11C142.91,118.22,143.24,118.59,143.57,119Z"/><line class="cls-6" x1="112.06" y1="115.89" x2="111.95" y2="115.87"/><line class="cls-6" x1="193.56" y1="112.46" x2="193.49" y2="112.53"/><line class="cls-6" x1="199.81" y1="106.75" x2="199.81" y2="106.75"/><line class="cls-6" x1="175.84" y1="112.75" x2="175.84" y2="112.75"/><line class="cls-6" x1="196.79" y1="109.76" x2="196.71" y2="109.83"/><line class="cls-6" x1="196.79" y1="109.76" x2="196.71" y2="109.83"/><path class="cls-8" d="M200.35,89.83c-.21-.46-.44-.9-.69-1.34a16.3,16.3,0,0,1-7,4.86,5.05,5.05,0,0,1-.55.18,42.37,42.37,0,0,1-34.76-4c-.85-.52-1.69-1-2.5-1.61v0L153.65,87l-1.89-1.46h0l-4.45-3.44-6.25-4.82-4.84-3.74,0,0-.07-.06-.08,0,0,0c-.37-.3-.75-.59-1.14-.86l0,0h0a30,30,0,0,0-3.9-2.43,31.1,31.1,0,0,0-14.49-3.56H116l-2.28,0h-1.44l-28.54.12L70,66.7l-8.13,0a4.48,4.48,0,0,0,3.8,2.57,1.06,1.06,0,0,0,.26,0h.18l4.86,0,5.54.06,20.69.23,5.38.06,16,.2h.17a8.74,8.74,0,0,1,4.06,1l.38.23a47.51,47.51,0,0,1,6.37,4.36c.17.12.33.26.5.4,1.32,1.09,2.59,2.25,3.79,3.46l.89.93c.16.15.29.32.43.47q.45.48.87,1c.28.32.56.65.83,1s.5.62.76.92l.82,1.1a48.78,48.78,0,0,1,5.76,10c.11.24.22.5.32.74.25.59.49,1.19.7,1.78.09.24.19.5.26.74a.85.85,0,0,1,.06.17l-5.62-.47L138,97.56l-4.68-.39L76,92.33h0L62.71,91.21l-8.49-.72L27.43,88.23l-3.51-.29a1.91,1.91,0,0,0,1.57,1.28l.09,0,27.63,3.19L65.83,93.9,120,100.18c.49,0,1,.1,1.45.16A38.43,38.43,0,0,1,148.19,117h0v0A34.17,34.17,0,0,0,194,118.16a3.11,3.11,0,0,0,.35-.3c.14-.12.29-.25.42-.38l.43-.38a24.2,24.2,0,0,0,5.34-7.6,4.7,4.7,0,0,0,.25-.6,23.19,23.19,0,0,0,1.57-5.91,21.56,21.56,0,0,0,.21-3.13A23.88,23.88,0,0,0,200.35,89.83ZM175.89,113.3v.1s0,0,0,.08a.61.61,0,0,1,0,.11h0a.29.29,0,0,1,0,.11,1.79,1.79,0,0,1-.12.24l-.09.09a.27.27,0,0,1-.07.08l-.09.1s-.06,0-.07,0l-.12.09s-.07,0-.08,0l-.2.09s-.06,0-.09,0l-.09,0h-.5l-.09,0h0a0,0,0,0,1,0,0l-11.79-2.76-1.5-.35h0s0,0,0,0h0a.3.3,0,0,1-.12,0,.06.06,0,0,0,0,0l-.1,0s0,0,0,0a.76.76,0,0,1-.13-.07.54.54,0,0,1-.12-.09,1,1,0,0,1-.15-.14l-.08-.09v0a.47.47,0,0,1-.06-.09.09.09,0,0,1,0-.06.33.33,0,0,1-.06-.1v0s0-.09-.06-.12v0l-.59-1.57-3.56-9.56,5.08,9.43.3.56.81.2.58.13,11.14,2.62h0l.35.09-.13-.29-4.31-9,6.16,9.3h0v0a0,0,0,0,1,0,0h0v0h0a.84.84,0,0,0,.06.14.11.11,0,0,1,0,.07.41.41,0,0,1,0,.08h0a.29.29,0,0,1,0,.1.54.54,0,0,1,0,.1v.09a.79.79,0,0,1,0,.25Zm24.58-7.91v.06s0,.06,0,.09,0,.06,0,.09a.2.2,0,0,1,0,.08s0,.05,0,.08,0,.06-.08.09,0,0,0,.06l0,0-.09.08-1.08.86-3.35,2.66-.07.06h0a.9.9,0,0,1-.58.19.88.88,0,0,1-.73-.83l0-.15,1-9.83.34,8.92,3.22-2.57.33-.29.06-.39.89-8.7.27,8.12.06,1.15Z"/><path class="cls-6" d="M148.22,117.06l0,0"/><path class="cls-9" d="M50.92,55.64,40.14,58l-5,1.08L17.9,62.72a8.46,8.46,0,0,0,7.18,3.94,7.83,7.83,0,0,0,.82,0H26l39.88-3.73A47.94,47.94,0,0,1,50.92,55.64Z"/><line class="cls-6" x1="70.89" y1="104.57" x2="70.76" y2="104.55"/><line class="cls-6" x1="112.21" y1="113.32" x2="112.09" y2="113.3"/><polyline class="cls-6" points="155.63 99.25 155.64 99.27 155.64 99.27 155.64 99.27"/><polyline class="cls-6" points="155.64 99.27 155.64 99.27 155.64 99.27 155.63 99.25"/><polygon class="cls-10" points="161.82 109.46 161.02 109.27 161.02 109.27 161.82 109.46"/><polygon class="cls-10" points="161.82 109.46 161.02 109.27 161.02 109.27 161.82 109.46"/><path class="cls-11" d="M178.78,64l-8.38-9.32c-.61-.68-1.21-1.36-1.82-2l-.79-.88s0,0-.06-.07a.3.3,0,0,1-.11-.12l-.44-.48-.43-.47a.86.86,0,0,0-.07-.1c-.49-.51-1-1-1.42-1.44-.76-.71-1.55-1.41-2.35-2.1a39.73,39.73,0,0,0-25-9h-.14a38.9,38.9,0,0,0-6.37.51l-3.88.83h-.06l-4.76,1-6.84,1.47L56,54.63a.52.52,0,0,0,.13.06v0l.61.36c.47.28,1,.55,1.43.8l.5.27c.7.36,1.43.71,2.19,1.06l.53.25h0l.19.09h0v0l.45.18.15.08.48.18.14.06h0l.09.05h0l.67.26c.53.21,1,.36,1.43.52.25.09.5.18.74.25l.91.28.52.16.9.25.18.06.47.1c.26.08.5.14.76.2l.76.17.7.15.88.18c.55.1,1.1.19,1.57.25s1,.15,1.52.21l1.55.17h.15c.44,0,.88,0,1.34.06h.16c.4,0,.78.05,1.18.05h0c.32,0,.65,0,1,0h.21c.38,0,.76,0,1.14,0h.81a4.78,4.78,0,0,0,.53,0h.46l3,0h1.4l.65,0c2,0,4.15-.08,6.3-.17l3-.15,1.9-.14h.06l.32,0L101,61c1.94-.15,3.86-.32,5.7-.53l.44,0,.48-.05,2-.24.65-.09s0,0,.07,0a42.56,42.56,0,0,1,5.09-.3,41.53,41.53,0,0,1,32.32,15.38l0,.06h0l.3.38.08.12,0,0h0a45.71,45.71,0,0,0,12.27,10.58A45,45,0,0,0,175.66,92a45.7,45.7,0,0,0,6,.69H182a3.54,3.54,0,0,0,.45,0H183a24.51,24.51,0,0,0,16.16-6C192.82,79.59,185.91,71.92,178.78,64Zm-18.41,4.85-3.07.43,1.35-5.78,3-.39Zm.32,0L162,63l3-.43L164.31,66l-.55,2.42Zm10.46-4.72c0,.08,0,.13,0,.17v.08c0,.1,0,.19,0,.29s0,.12-.05.19,0,0,0,.08,0,.11,0,.17a4,4,0,0,1-.62,1.18s0,0-.05.06a4,4,0,0,1-1,.93,4.51,4.51,0,0,1-1.09.5,5,5,0,0,1-.58.12l-3.6.49.54-2.42,2.74-.36a1.6,1.6,0,0,0,.56-.18,1.8,1.8,0,0,0,.92-1.19,1.67,1.67,0,0,0,0-.59,2,2,0,0,0-.17-.55,1.72,1.72,0,0,0-1.18-.91l-.17,0-9.9,1.35-1.2-2.19L167,59.79h.17a6.15,6.15,0,0,1,.74.06l.16,0,.07,0a.59.59,0,0,1,.2.06h.06a.93.93,0,0,1,.2.08.28.28,0,0,1,.15.06l.09.05a2.58,2.58,0,0,1,.7.41l.06,0a3.72,3.72,0,0,1,.91,1,2.35,2.35,0,0,1,.26.46l.09.19s0,.05,0,.08,0,.11.06.15,0,.15.08.22a3.69,3.69,0,0,1,.11.56,4.08,4.08,0,0,1,0,.59A1.48,1.48,0,0,1,171.15,64.07Z"/><path class="cls-6" d="M107.59,123l.69.15h0"/><path class="cls-12" d="M186.15,126.57a37,37,0,0,1-21.4,6.78,37.34,37.34,0,0,1-7.18-.69c-.48-.1-.91-.19-1.31-.29h-.09l-.59-.14c-.53-.1-1.05-.23-1.57-.33-12.32-2.68-25.75-5.6-38.76-8.41a12.08,12.08,0,0,0,7-9.48l-5.79-1.07-1.43-.26-15.17-2.76-.26-.06-3.27-.6L95,109l-2.07-.38L82.31,106.7l-.12,0-2.37-.44L78.57,106l-3.94-.71-7.93-1.46h-.06l-5-.93a9.34,9.34,0,0,0-.14,1.6A9.61,9.61,0,0,0,63.2,110c-8.86-1.77-18.58-3.71-25.84-5.14l-.49-.09A14.68,14.68,0,0,1,25.33,91.3c5.72.77,16.18,2.17,29.92,4l1.75.25,5,.67,3.49.47,6.2.83,4.35.6,12.83,1.73,2,.26.1,0h0l15.71,2.13h0l4,.53,8,1.08,2.14.29a36.88,36.88,0,0,1,6.15,1.61,40.42,40.42,0,0,1,16,10.32h0c.38.44.75.83,1.1,1.19v0a38.47,38.47,0,0,0,42.09,9.21Z"/><path class="cls-10" d="M144.92,116.52c-.36-.38-.71-.77-1-1.16C144.23,115.74,144.57,116.12,144.92,116.52Z"/><path class="cls-10" d="M144.92,116.52c-.36-.38-.71-.77-1-1.16C144.23,115.74,144.57,116.12,144.92,116.52Z"/><path class="cls-10" d="M144.92,116.52c-.36-.38-.71-.77-1-1.16C144.23,115.74,144.57,116.12,144.92,116.52Z"/><path class="cls-13" d="M115,112.67a8.94,8.94,0,0,1-5.22,7.39,3.11,3.11,0,0,1-.5.21,5.62,5.62,0,0,1-2,.35,5.76,5.76,0,0,1-2.2-.44l-.19-.09a9,9,0,0,1-5.32-8.19,9.19,9.19,0,0,1,.22-2l-.26-.06a9.2,9.2,0,0,0-.23,2.05,10,10,0,0,0,5.93,9.1l.21.09a6.21,6.21,0,0,0,2.45.51,6.5,6.5,0,0,0,2.16-.38l.56-.25a10,10,0,0,0,5.78-8Z"/><path class="cls-10" d="M91,115.79a6.39,6.39,0,0,0,.6-.26A4,4,0,0,1,91,115.79Z"/><path class="cls-14" d="M95,109a7.48,7.48,0,0,1-4.27,5.77c-.18.07-.35.16-.55.22l-.13,0a4.65,4.65,0,0,1-1.4.21,5,5,0,0,1-1.6-.27,0,0,0,0,0,0,0,3.93,3.93,0,0,1-.43-.18h0A7.52,7.52,0,0,1,82.2,108a6.63,6.63,0,0,1,.11-1.28l-.12,0a7,7,0,0,0-.11,1.3,8.32,8.32,0,0,0,4.85,7.57h0a3.32,3.32,0,0,0,.47.2h0a5.3,5.3,0,0,0,3.33.08l.15-.06h0l.3-.12a2.23,2.23,0,0,0,.31-.12,8.38,8.38,0,0,0,4.57-5.6,5.1,5.1,0,0,0,.14-.7Z"/><path class="cls-10" d="M91.56,115.53a4,4,0,0,1-.6.26A6.39,6.39,0,0,0,91.56,115.53Z"/><path class="cls-15" d="M78.57,106c0,.16,0,.31-.08.46a7,7,0,0,1-3.92,4.8,2.37,2.37,0,0,1-.41.17l-.18.06a4.15,4.15,0,0,1-1.32.22,4.23,4.23,0,0,1-1.52-.28,4.43,4.43,0,0,1-.45-.2,7,7,0,0,1-4.07-6.35,7.2,7.2,0,0,1,.08-1h-.06a7.1,7.1,0,0,0-.08,1A7.78,7.78,0,0,0,71.08,112c.15.07.31.15.48.21a4.73,4.73,0,0,0,1.69.29,4.31,4.31,0,0,0,1.47-.23l.2-.06a3.76,3.76,0,0,0,.46-.2,7.78,7.78,0,0,0,4.44-5.73Z"/><line class="cls-6" x1="70.89" y1="104.57" x2="70.76" y2="104.55"/><line class="cls-6" x1="112.21" y1="113.32" x2="112.09" y2="113.3"/><polygon class="cls-10" points="161.82 109.46 161.02 109.27 161.02 109.27 161.82 109.46"/><line class="cls-6" x1="196.79" y1="109.76" x2="196.71" y2="109.83"/><path class="cls-10" d="M63,88.21,60.27,88h0L49.77,72.35H52.4Z"/><path class="cls-16" d="M71.18,72.47h0l-18.76-.11L63,88.21,82.7,89.66v0ZM73.7,87.79l-10-.72-9-13.5,15.88.07,9.81,14.65Z"/><path class="cls-10" d="M85.74,89.87l-3-.23h0L71.18,72.45h2.89Z"/><path class="cls-17" d="M97.15,79.34,92.6,72.56h0l-18.51-.09h0l11.67,17.4,5.93.44,13.49,1Zm-9,9.51-1.71-.13-10.09-15L92,73.74,96.14,80l6.68,9.93c-3.64-.27-7.33-.55-11.06-.8Z"/><path class="cls-10" d="M108.47,91.53l-3.3-.24h0l-8-12-4.56-6.79h3.15l3.33,5Z"/><path class="cls-18" d="M134.34,93.44a21.48,21.48,0,0,0-19.06-20.78l-4.67,0h0l-14.85-.06,3.33,4.94v0l4.69,7,.66,1,4,6h0C117.73,92.21,126.48,92.87,134.34,93.44ZM100.06,76.86,98,73.77l12.62.06,4.62,0a20.3,20.3,0,0,1,17.85,18.3c-7.33-.53-15.42-1.12-23.93-1.76Z"/><path class="cls-10" d="M32.16,86c-.41,0-.82,0-1.22-.09Z"/><path class="cls-19" d="M60.27,88,49.76,72.36l-1.82,0-17.21-.07L39,84.61l.66,1L40,86l.35.54h0ZM40,83.94,33,73.47l14.94.07h1.2l8.79,13.09L41,85.42Z"/><path class="cls-20" d="M37.11,85.31,33.6,80.07l-5.24-7.82h0l-11,0A15.39,15.39,0,0,0,30.91,85.89h0l1,.06H32a.27.27,0,0,1,.12,0c1.87.12,3.75.26,5.67.41v0ZM34.56,85l-2.31-.17-1.2-.08A14.27,14.27,0,0,1,18.72,73.41l9,0L35.47,85Z"/><path class="cls-10" d="M40.32,86.56l-2.49-.18-.72-1.06L28.35,72.25l2.38,0L39,84.6Z"/><line class="cls-6" x1="126.62" y1="114.8" x2="122.2" y2="114"/><line class="cls-6" x1="61.62" y1="102.91" x2="58.59" y2="102.37"/><line class="cls-6" x1="62.02" y1="96.26" x2="65.5" y2="96.73"/><path class="cls-21" d="M125.29,84.17a.78.78,0,0,1,0,.21c0,.08,0,.12,0,.17v.07l-.09.28c0,.06,0,.12-.08.19s0,0,0,.07a1.11,1.11,0,0,0-.07.16,4.12,4.12,0,0,1-.79,1.08.13.13,0,0,1-.06,0,4.12,4.12,0,0,1-1.11.78,4.43,4.43,0,0,1-1.16.33l-.59,0-3.63-.06.9-2.31,2.76,0a1.57,1.57,0,0,0,.58-.1,1.77,1.77,0,0,0,1.08-1,1.61,1.61,0,0,0,.1-.58,2.12,2.12,0,0,0-.09-.57,1.75,1.75,0,0,0-1-1.08l-.16,0-10-.12-.87-2.34,10.88.13.17,0c.24,0,.49.11.72.17a.44.44,0,0,0,.15,0l.07,0a.66.66,0,0,1,.19.09s0,0,0,0a.85.85,0,0,1,.19.1.26.26,0,0,1,.14.09l.08.06a2.83,2.83,0,0,1,.63.5l.06.06a3.63,3.63,0,0,1,.75,1.11,2.26,2.26,0,0,1,.19.49,1.05,1.05,0,0,1,.06.21s0,0,0,.08,0,.11,0,.16,0,.15,0,.22a4.24,4.24,0,0,1,0,1.16Z"/><polygon class="cls-21" points="119.46 82.04 118.2 85.24 117.31 87.55 114.21 87.5 116.39 82.02 119.46 82.04"/><polygon class="cls-21" points="116.04 82.01 113.89 87.5 110.79 87.47 112.98 81.95 116.04 82.01"/></g></g></svg>