<svg xmlns="http://www.w3.org/2000/svg" xmlns:xlink="http://www.w3.org/1999/xlink" viewBox="0 0 155.63 165.82"><defs><style>.cls-1{fill:url(#Degradado_sin_nombre_4);}.cls-2{fill:#999;}</style><radialGradient id="Degradado_sin_nombre_4" cx="-53.22" cy="25.75" r="340.83" gradientUnits="userSpaceOnUse"><stop offset="0" stop-color="#332700"/><stop offset="0.02" stop-color="#c87a00"/><stop offset="0.24" stop-color="#ffbf00"/><stop offset="0.38" stop-color="#c87a00"/><stop offset="0.67" stop-color="#ffbf00"/><stop offset="0.78" stop-color="#c87a00"/><stop offset="1" stop-color="#332700"/></radialGradient></defs><title>Recurso 48</title><g id="Capa_2" data-name="Capa 2"><g id="Capa_1-2" data-name="Capa 1"><path class="cls-1" d="M137.42,0h-7.13c-3.13,0-3.13,4.86,0,4.86h7.13a13.34,13.34,0,0,1,13.35,13.3V74.39a13.34,13.34,0,0,1-13.35,13.3h-8.09a2.44,2.44,0,0,0-1.47.5L113,99.54V90.12a2.43,2.43,0,0,0-2.43-2.43H81a13.35,13.35,0,0,1-6.8-1.85V58.57a14.84,14.84,0,0,0-6.55-12.3V18.16A13.34,13.34,0,0,1,81,4.86h34.05c3.13,0,3.13-4.86,0-4.86H81A18.21,18.21,0,0,0,62.81,18.16v26a14.63,14.63,0,0,0-3.46-.41H14.88A14.87,14.87,0,0,0,0,58.57v5.24C0,67,4.86,67,4.86,63.81V58.57a10,10,0,0,1,10-10H59.35a10,10,0,0,1,10,10V86.8a3.53,3.53,0,0,0,0,.65V102.9c0,.31,0,.61,0,.92h-5A11.27,11.27,0,0,0,53.23,113a2.45,2.45,0,0,0-.63.35l-10.86,8.39v-6.47a2.43,2.43,0,0,0-2.43-2.43H14.88a10,10,0,0,1-10-10V78.39c0-3.14-4.86-3.14-4.86,0V102.9a14.88,14.88,0,0,0,14.88,14.84h22v9a2.47,2.47,0,0,0,3.91,1.93l12.26-9.47v27.33a11.26,11.26,0,0,0,11.26,11.24H79.22v5.67a2.46,2.46,0,0,0,3.91,1.92L93,157.75h2.91a11.26,11.26,0,0,0,11.26-11.24V142.2c0-3.13-4.86-3.13-4.86,0v4.31a6.4,6.4,0,0,1-6.4,6.38H92.14a2.44,2.44,0,0,0-1.49.51l-6.57,5.07v-3.15a2.43,2.43,0,0,0-2.43-2.43H64.31a6.4,6.4,0,0,1-6.4-6.38V115.05a6.4,6.4,0,0,1,6.4-6.38H95.87a6.4,6.4,0,0,1,6.4,6.38V127c0,3.13,4.86,3.13,4.86,0V115.05a11.26,11.26,0,0,0-11.26-11.23H74.2c0-.31,0-12.58,0-12.58A18.24,18.24,0,0,0,81,92.55h27.14v11.91a2.47,2.47,0,0,0,3.91,1.93l18.09-13.84h7.26a18.21,18.21,0,0,0,18.21-18.16V18.16A18.21,18.21,0,0,0,137.42,0Z"/><path class="cls-2" d="M85.92,117.34A15.35,15.35,0,1,0,95.15,137,15.37,15.37,0,0,0,85.92,117.34Zm2,12.15a9.55,9.55,0,0,1-15.09,7.74,6.72,6.72,0,0,0,5-1.15,3.34,3.34,0,0,1-3-2.47,3.39,3.39,0,0,0,1.52,0,3.35,3.35,0,0,1-2.52-3.46,3.25,3.25,0,0,0,1.49.49,3.36,3.36,0,0,1-.81-4.52A9.51,9.51,0,0,0,81.26,130a3.36,3.36,0,0,1,5.86-2.77,6.82,6.82,0,0,0,2.17-.7,3.36,3.36,0,0,1-1.56,1.78,7.24,7.24,0,0,0,2-.44A6.93,6.93,0,0,1,87.92,129.49Z"/><circle class="cls-2" cx="36.59" cy="80.92" r="3.89"/><path class="cls-2" d="M46.1,76.2A6.48,6.48,0,0,0,45.7,74a3.83,3.83,0,0,0-.87-1.34,3.74,3.74,0,0,0-1.34-.87,6.89,6.89,0,0,0-2.18-.4c-1.22,0-1.59-.07-4.72-.07s-3.47,0-4.71.07a6.69,6.69,0,0,0-2.17.4A3.89,3.89,0,0,0,27.49,74a6.75,6.75,0,0,0-.4,2.17C27,77.44,27,77.8,27,80.92s0,3.49.07,4.71a6.62,6.62,0,0,0,.4,2.17,3.52,3.52,0,0,0,.88,1.35,3.74,3.74,0,0,0,1.34.87,6.17,6.17,0,0,0,2.17.4c1.24.06,1.61.07,4.71.07s3.5,0,4.72-.07a6.35,6.35,0,0,0,2.18-.4,3.74,3.74,0,0,0,1.34-.87,3.61,3.61,0,0,0,.87-1.35,6.36,6.36,0,0,0,.4-2.17c.06-1.22.07-1.59.07-4.71S46.16,77.44,46.1,76.2ZM36.59,86.92a6,6,0,1,1,6-6A6,6,0,0,1,36.59,86.92Zm6.25-10.84a1.4,1.4,0,1,1,1.39-1.39A1.39,1.39,0,0,1,42.84,76.08Zm3.26.12A6.48,6.48,0,0,0,45.7,74a3.83,3.83,0,0,0-.87-1.34,3.74,3.74,0,0,0-1.34-.87,6.89,6.89,0,0,0-2.18-.4c-1.22,0-1.59-.07-4.72-.07s-3.47,0-4.71.07a6.69,6.69,0,0,0-2.17.4A3.89,3.89,0,0,0,27.49,74a6.75,6.75,0,0,0-.4,2.17C27,77.44,27,77.8,27,80.92s0,3.49.07,4.71a6.62,6.62,0,0,0,.4,2.17,3.52,3.52,0,0,0,.88,1.35,3.74,3.74,0,0,0,1.34.87,6.17,6.17,0,0,0,2.17.4c1.24.06,1.61.07,4.71.07s3.5,0,4.72-.07a6.35,6.35,0,0,0,2.18-.4,3.74,3.74,0,0,0,1.34-.87,3.61,3.61,0,0,0,.87-1.35,6.36,6.36,0,0,0,.4-2.17c.06-1.22.07-1.59.07-4.71S46.16,77.44,46.1,76.2ZM36.59,86.92a6,6,0,1,1,6-6A6,6,0,0,1,36.59,86.92Zm6.25-10.84a1.4,1.4,0,1,1,1.39-1.39A1.39,1.39,0,0,1,42.84,76.08ZM36.59,59.62a21.3,21.3,0,1,0,21.3,21.3A21.3,21.3,0,0,0,36.59,59.62ZM48.21,85.73a8.61,8.61,0,0,1-.56,2.84A6,6,0,0,1,44.25,92a9.22,9.22,0,0,1-2.84.54c-1.25.06-1.64.07-4.82.07s-3.56,0-4.81-.07A9,9,0,0,1,29,92a5.9,5.9,0,0,1-3.43-3.42A8.94,8.94,0,0,1,25,85.73c0-1.24-.07-1.64-.07-4.81s0-3.57.07-4.81a9.07,9.07,0,0,1,.54-2.85A5.87,5.87,0,0,1,29,69.86a8.18,8.18,0,0,1,2.82-.54c1.25-.06,1.65-.08,4.81-.08s3.57,0,4.82.08a8.41,8.41,0,0,1,2.84.54,5.93,5.93,0,0,1,3.4,3.4,8.73,8.73,0,0,1,.56,2.85c0,1.24.06,1.64.06,4.81S48.25,84.49,48.21,85.73ZM45.7,74a3.83,3.83,0,0,0-.87-1.34,3.74,3.74,0,0,0-1.34-.87,6.89,6.89,0,0,0-2.18-.4c-1.22,0-1.59-.07-4.72-.07s-3.47,0-4.71.07a6.69,6.69,0,0,0-2.17.4A3.89,3.89,0,0,0,27.49,74a6.75,6.75,0,0,0-.4,2.17C27,77.44,27,77.8,27,80.92s0,3.49.07,4.71a6.62,6.62,0,0,0,.4,2.17,3.52,3.52,0,0,0,.88,1.35,3.74,3.74,0,0,0,1.34.87,6.17,6.17,0,0,0,2.17.4c1.24.06,1.61.07,4.71.07s3.5,0,4.72-.07a6.35,6.35,0,0,0,2.18-.4,3.74,3.74,0,0,0,1.34-.87,3.61,3.61,0,0,0,.87-1.35,6.36,6.36,0,0,0,.4-2.17c.06-1.22.07-1.59.07-4.71s0-3.48-.07-4.72A6.48,6.48,0,0,0,45.7,74ZM36.59,86.92a6,6,0,1,1,6-6A6,6,0,0,1,36.59,86.92Zm6.25-10.84a1.4,1.4,0,1,1,1.39-1.39A1.39,1.39,0,0,1,42.84,76.08Zm3.26.12A6.48,6.48,0,0,0,45.7,74a3.83,3.83,0,0,0-.87-1.34,3.74,3.74,0,0,0-1.34-.87,6.89,6.89,0,0,0-2.18-.4c-1.22,0-1.59-.07-4.72-.07s-3.47,0-4.71.07a6.69,6.69,0,0,0-2.17.4A3.89,3.89,0,0,0,27.49,74a6.75,6.75,0,0,0-.4,2.17C27,77.44,27,77.8,27,80.92s0,3.49.07,4.71a6.62,6.62,0,0,0,.4,2.17,3.52,3.52,0,0,0,.88,1.35,3.74,3.74,0,0,0,1.34.87,6.17,6.17,0,0,0,2.17.4c1.24.06,1.61.07,4.71.07s3.5,0,4.72-.07a6.35,6.35,0,0,0,2.18-.4,3.74,3.74,0,0,0,1.34-.87,3.61,3.61,0,0,0,.87-1.35,6.36,6.36,0,0,0,.4-2.17c.06-1.22.07-1.59.07-4.71S46.16,77.44,46.1,76.2ZM36.59,86.92a6,6,0,1,1,6-6A6,6,0,0,1,36.59,86.92Zm6.25-10.84a1.4,1.4,0,1,1,1.39-1.39A1.39,1.39,0,0,1,42.84,76.08Zm3.26.12A6.48,6.48,0,0,0,45.7,74a3.83,3.83,0,0,0-.87-1.34,3.74,3.74,0,0,0-1.34-.87,6.89,6.89,0,0,0-2.18-.4c-1.22,0-1.59-.07-4.72-.07s-3.47,0-4.71.07a6.69,6.69,0,0,0-2.17.4A3.89,3.89,0,0,0,27.49,74a6.75,6.75,0,0,0-.4,2.17C27,77.44,27,77.8,27,80.92s0,3.49.07,4.71a6.62,6.62,0,0,0,.4,2.17,3.52,3.52,0,0,0,.88,1.35,3.74,3.74,0,0,0,1.34.87,6.17,6.17,0,0,0,2.17.4c1.24.06,1.61.07,4.71.07s3.5,0,4.72-.07a6.35,6.35,0,0,0,2.18-.4,3.74,3.74,0,0,0,1.34-.87,3.61,3.61,0,0,0,.87-1.35,6.36,6.36,0,0,0,.4-2.17c.06-1.22.07-1.59.07-4.71S46.16,77.44,46.1,76.2ZM36.59,86.92a6,6,0,1,1,6-6A6,6,0,0,1,36.59,86.92Zm6.25-10.84a1.4,1.4,0,1,1,1.39-1.39A1.39,1.39,0,0,1,42.84,76.08Z"/><path class="cls-2" d="M112.93,17.6a28.78,28.78,0,1,0,28.78,28.78A28.78,28.78,0,0,0,112.93,17.6Zm8,17.48h-3.79c-1.36,0-1.63.55-1.63,1.94v3.34H121l-.52,5.88h-4.9V63.78h-7V46.32h-3.65v-6h3.65V35.68c0-4.39,2.34-6.71,7.56-6.71H121Z"/></g></g></svg>