<svg xmlns="http://www.w3.org/2000/svg" xmlns:xlink="http://www.w3.org/1999/xlink" viewBox="0 0 129.02 169.09"><defs><style>.cls-1{fill:url(#Degradado_sin_nombre_4);}.cls-2{fill:#999;}.cls-3{fill:url(#Degradado_sin_nombre_4-2);}</style><radialGradient id="Degradado_sin_nombre_4" cx="-21.56" cy="752.72" r="1056.42" gradientUnits="userSpaceOnUse"><stop offset="0" stop-color="#332700"/><stop offset="0.02" stop-color="#c87a00"/><stop offset="0.24" stop-color="#ffbf00"/><stop offset="0.38" stop-color="#c87a00"/><stop offset="0.67" stop-color="#ffbf00"/><stop offset="0.78" stop-color="#c87a00"/><stop offset="1" stop-color="#332700"/></radialGradient><radialGradient id="Degradado_sin_nombre_4-2" cx="42" cy="131.2" fx="130.96967846707798" fy="194.11181229006593" r="186.87" xlink:href="#Degradado_sin_nombre_4"/></defs><title>Recurso 47</title><g id="Capa_2" data-name="Capa 2"><g id="Capa_1-2" data-name="Capa 1"><path class="cls-1" d="M128.78,151.51a12.78,12.78,0,0,0-3.49-6.57,14,14,0,0,0-6.49-3.49V123.61a2.59,2.59,0,0,0-2.62-2.46H93.72V108.21a44.45,44.45,0,0,0,7-9.19l0-.07L103.24,94h0a41.68,41.68,0,0,0-4.54-40.19V34.12a34.13,34.13,0,0,0-68.25,0V53.83A41.67,41.67,0,0,0,25.85,94l0,.06h-.09l3.07,5.85v0a37.71,37.71,0,0,0,7.71,9.4v11.86H12.89a2.59,2.59,0,0,0-2.62,2.46v17.84a14.06,14.06,0,0,0-6.49,3.49,12.82,12.82,0,1,0,11.42-3.49V126.08h24a2.39,2.39,0,0,0,2.36-2.41s0,0,0-.06V113.07a42.86,42.86,0,0,0,20.56,6.76v23.93a12.78,12.78,0,1,0,4.93,0V119.83a42.26,42.26,0,0,0,21.79-7.55v11.33a2.32,2.32,0,0,0,2.29,2.47h22.79v15.37a12.72,12.72,0,1,0,14.91,10.06ZM18.43,148.43a7.78,7.78,0,0,1,.07,11l-.07.08a7.83,7.83,0,1,1,0-11.09ZM35.35,34.12a29.19,29.19,0,1,1,58.37,0V48a24.79,24.79,0,0,0-4.11-3.61V34.12a25.08,25.08,0,1,0-50.15,0V44.43A24.79,24.79,0,0,0,35.35,48Zm49.33,0v7.13a41.8,41.8,0,0,0-40.29,0V34.12a20.15,20.15,0,0,1,40.29,0ZM70.08,150.75a7.83,7.83,0,1,1-5.53-2.3A7.87,7.87,0,0,1,70.08,150.75Zm20.59-46.62A37,37,0,1,1,101.52,78,36.9,36.9,0,0,1,90.67,104.13Zm31.13,55.31-.08.08a7.79,7.79,0,1,1,.08-.08Z"/><path class="cls-2" d="M84.87,57.65A28.76,28.76,0,1,0,93.31,78,28.68,28.68,0,0,0,84.87,57.65ZM81.39,94.84a23.84,23.84,0,1,1,7-16.85A23.85,23.85,0,0,1,81.39,94.84Z"/><path class="cls-3" d="M71.16,75.72a6.93,6.93,0,1,0-9.5,8.36v3.77a2.47,2.47,0,1,0,4.93,0V84.4A6.93,6.93,0,0,0,71.16,75.72Zm-6.63,4.06a2,2,0,1,1,2-2A2,2,0,0,1,64.53,79.78Z"/></g></g></svg>