<svg xmlns="http://www.w3.org/2000/svg" xmlns:xlink="http://www.w3.org/1999/xlink" viewBox="0 0 146.2 164.72"><defs><style>.cls-1{fill:#999;}.cls-2{fill:url(#Degradado_sin_nombre_4);}.cls-3{fill:url(#Degradado_sin_nombre_4-2);}.cls-4{fill:url(#Degradado_sin_nombre_4-3);}.cls-5{fill:url(#Degradado_sin_nombre_4-5);}.cls-6{fill:url(#Degradado_sin_nombre_4-6);}.cls-7{fill:url(#Degradado_sin_nombre_4-7);}</style><radialGradient id="Degradado_sin_nombre_4" cx="40.5" cy="54.36" r="124.57" gradientUnits="userSpaceOnUse"><stop offset="0" stop-color="#332700"/><stop offset="0.02" stop-color="#c87a00"/><stop offset="0.24" stop-color="#ffbf00"/><stop offset="0.38" stop-color="#c87a00"/><stop offset="0.67" stop-color="#ffbf00"/><stop offset="0.78" stop-color="#c87a00"/><stop offset="1" stop-color="#332700"/></radialGradient><radialGradient id="Degradado_sin_nombre_4-2" cx="113.91" cy="154.39" r="208.04" xlink:href="#Degradado_sin_nombre_4"/><radialGradient id="Degradado_sin_nombre_4-3" cx="67.13" cy="92.63" r="199.76" xlink:href="#Degradado_sin_nombre_4"/><radialGradient id="Degradado_sin_nombre_4-5" cx="-4.25" cy="144.32" r="152.49" xlink:href="#Degradado_sin_nombre_4"/><radialGradient id="Degradado_sin_nombre_4-6" cx="-46.55" cy="4.46" r="242.93" xlink:href="#Degradado_sin_nombre_4"/><radialGradient id="Degradado_sin_nombre_4-7" cx="47.14" cy="79.5" r="267.89" xlink:href="#Degradado_sin_nombre_4"/></defs><title>Recurso 51</title><g id="Capa_2" data-name="Capa 2"><g id="Capa_1-2" data-name="Capa 1"><path class="cls-1" d="M72,70.91A11.45,11.45,0,1,0,83.48,82.36,11.46,11.46,0,0,0,72,70.91Zm0,19.27a7.82,7.82,0,1,1,7.81-7.82A7.82,7.82,0,0,1,72,90.18Z"/><path class="cls-2" d="M91.18,76.61h-.32a19.42,19.42,0,0,0-1.45-3.5l.23-.22a3.48,3.48,0,0,0,0-4.89l-3.25-3.24a3.38,3.38,0,0,0-2.45-1,3.43,3.43,0,0,0-2.43,1l-.22.23a19.72,19.72,0,0,0-3.5-1.45v-.32a3.46,3.46,0,0,0-3.46-3.45H69.74a3.46,3.46,0,0,0-3.45,3.45v.32A19.63,19.63,0,0,0,62.8,65l-.23-.22a3.46,3.46,0,0,0-4.89,0L54.44,68a3.46,3.46,0,0,0,0,4.88l.23.23a19.42,19.42,0,0,0-1.45,3.5H52.9a3.46,3.46,0,0,0-3.45,3.45v4.6a3.46,3.46,0,0,0,3.45,3.45h.32a19.42,19.42,0,0,0,1.45,3.5l-.22.22a3.49,3.49,0,0,0-1,2.44,3.44,3.44,0,0,0,1,2.45L57.68,100a3.46,3.46,0,0,0,4.89,0l.23-.23a18.63,18.63,0,0,0,3.49,1.45v.32A3.46,3.46,0,0,0,69.74,105h4.59a3.46,3.46,0,0,0,3.46-3.46v-.32a18.36,18.36,0,0,0,3.49-1.45l.23.22a3.36,3.36,0,0,0,2.43,1h0a3.43,3.43,0,0,0,2.44-1l3.25-3.25a3.44,3.44,0,0,0,1-2.45,3.39,3.39,0,0,0-1-2.43l-.23-.23a19.42,19.42,0,0,0,1.45-3.5h.32a3.46,3.46,0,0,0,3.45-3.45v-4.6a3.46,3.46,0,0,0-3.45-3.45ZM91,84.48H89.47a1.83,1.83,0,0,0-1.78,1.42,15.86,15.86,0,0,1-2.08,5,1.8,1.8,0,0,0,.25,2.25L87,94.28l-3,3-1.09-1.09a1.8,1.8,0,0,0-2.25-.25,16.07,16.07,0,0,1-5,2.09,1.81,1.81,0,0,0-1.42,1.77v1.54H69.92V99.8A1.81,1.81,0,0,0,68.5,98a16.07,16.07,0,0,1-5-2.09,1.8,1.8,0,0,0-2.25.25l-1.09,1.09-3-3,1.09-1.09a1.81,1.81,0,0,0,.25-2.25,16.1,16.1,0,0,1-2.08-5,1.82,1.82,0,0,0-1.77-1.42H53.08V80.24h1.54a1.82,1.82,0,0,0,1.77-1.42,16.2,16.2,0,0,1,2.08-5,1.8,1.8,0,0,0-.25-2.24l-1.09-1.1,3-3,1.09,1.09a1.81,1.81,0,0,0,2.25.25,16.14,16.14,0,0,1,5-2.08,1.82,1.82,0,0,0,1.42-1.77V63.39h4.24v1.54a1.82,1.82,0,0,0,1.42,1.77,16,16,0,0,1,5,2.08,1.81,1.81,0,0,0,2.25-.25L84,67.45l3,3-1.09,1.09a1.82,1.82,0,0,0-.25,2.26,15.81,15.81,0,0,1,2.08,5,1.83,1.83,0,0,0,1.78,1.42H91Z"/><path class="cls-3" d="M142.24,67.6a4,4,0,0,0,0-7.93h-15V48.86h15a4,4,0,0,0,0-7.93h-15V34.44A4,4,0,0,0,126,31.63L114.57,20.15A4,4,0,0,0,111.76,19h-6.49V4a4,4,0,1,0-7.93,0V19H86.53V4A4,4,0,1,0,78.6,4V19H67.81v7.93h42.31l9.15,9.16v92.57l-9.15,9.15H67.81v7.93H78.6v15a4,4,0,0,0,7.93,0v-15H97.34v15a4,4,0,0,0,7.93,0v-15h6.49a4,4,0,0,0,2.81-1.16L126,133.09a3.93,3.93,0,0,0,1.17-2.8v-6.5h15a4,4,0,0,0,0-7.94h-15V105.06h15a4,4,0,0,0,0-7.93h-15V86.32h15a4,4,0,0,0,0-7.93h-15V67.6Z"/><path class="cls-4" d="M107.51,122.07V100.16a4,4,0,1,0-7.93,0V118.1H67.81V126h35.73A4,4,0,0,0,107.51,122.07Z"/><path class="cls-4" d="M99.58,64.52a4,4,0,1,0,7.93,0V42.66a4,4,0,0,0-4-4H67.81v7.93H99.58Z"/><path class="cls-1" d="M103.54,78.38a4,4,0,0,0-4,4h0a4,4,0,1,0,4-4Z"/><path class="cls-5" d="M36,106.75H28.34V97.54a6.91,6.91,0,0,0-13.81,0v19.77L13,115.76A7.18,7.18,0,0,0,2.82,125.92l11.71,11.71v3.65h-2.3a2.31,2.31,0,0,0-2.31,2.3v20.71h4.61V145.88H42.15v18.41h4.6V143.58a2.3,2.3,0,0,0-2.3-2.3h-2.3v-3.65l4.72-4.72A15.33,15.33,0,0,0,36,106.75Zm7.58,22.9L38.22,135a2.38,2.38,0,0,0-.68,1.63v4.61H19.13v-4.61a2.33,2.33,0,0,0-.67-1.63L6.08,122.66A2.58,2.58,0,1,1,9.69,119l0,0,5.47,5.48a2.3,2.3,0,0,0,3.93-1.63V97.54a2.3,2.3,0,1,1,4.6,0v11.51a2.31,2.31,0,0,0,2.31,2.3H36a10.72,10.72,0,0,1,7.58,18.3Z"/><path class="cls-1" d="M24.44,58.48a1.56,1.56,0,0,0-.57,0,3.81,3.81,0,0,1-3.37-3.78,1.68,1.68,0,1,0-3.35,0,7.15,7.15,0,0,0,5.27,6.9v1.68a1.68,1.68,0,1,0,3.35,0V61.69A7.16,7.16,0,0,0,24.3,47.52a3.81,3.81,0,1,1,3.81-3.8,1.68,1.68,0,1,0,3.35,0,7.18,7.18,0,0,0-5.69-7V35.19a1.68,1.68,0,1,0-3.35,0v1.63A7.16,7.16,0,0,0,24.3,50.88a3.8,3.8,0,0,1,.14,7.6Z"/><path class="cls-6" d="M0,49.33A24.31,24.31,0,1,0,24.3,25,24.3,24.3,0,0,0,0,49.33ZM24.3,28.38a21,21,0,1,1-20.95,21A21,21,0,0,1,24.3,28.38Z"/><path class="cls-7" d="M26,20.31V4.39a1.68,1.68,0,0,0-3.35,0V20.31a1.68,1.68,0,1,0,3.35,0Z"/><path class="cls-7" d="M38.55,20.31V12.77a1.68,1.68,0,0,0-3.35,0v7.54a1.68,1.68,0,1,0,3.35,0Z"/><path class="cls-7" d="M13.41,20.31V12.77a1.68,1.68,0,0,0-3.35,0v7.54a1.68,1.68,0,1,0,3.35,0Z"/></g></g></svg>